<ttFont>
          <CharString index="0">
            -107 callgsubr
            endchar
          </CharString>
          <CharString index="1">
            rmoveto
            56 hlineto
            88 96 89 -96 rlineto
            56 7 hlineto
            -102 135 rlineto
            -85 hlineto
            -102 -135 rlineto
            return
          </CharString>
          <CharString index="2">
            86 387 hlineto
            249 -27 60 -236 -236 -26 -60 -249 vhcurveto
            -387 85 235 354 vlineto
            185 vmoveto
            -101 -354 101 vlineto
            164 9 32 168 168 9 -32 -164 vhcurveto
            return
          </CharString>
          <CharString index="3">
            rmoveto
            211 12 53 210 210 -12 53 -211 -212 -12 -53 -210 -210 12 -53 212 hvcurveto
            74 vmoveto
            -77 callgsubr
            return
          </CharString>
          <CharString index="4">
            89 hlineto
            -260 688 rlineto
            -108 hlineto
            -260 -688 rlineto
            87 hlineto
            71 183 rlineto
            310 hlineto
            -153 412 rmoveto
            126 -331 rlineto
            -257 hlineto
            126 331 rlineto
            return
          </CharString>
          <CharString index="5">
            rmoveto
            -54 hlineto
            -58 -2 -32 -83 -84 0 32 58 vhcurveto
            -53 hlineto
            -84 7 -61 130 131 8 61 84 vhcurveto
            return
          </CharString>
          <CharString index="6">
            -263 hlineto
            -100 callgsubr
            return
          </CharString>
          <CharString index="7">
            rmoveto
            207 24 75 196 hvcurveto
            445 -73 vlineto
            -3 -72 rlineto
            -6 hlineto
            68 -30 -70 12 -68 hhcurveto
            -148 -41 -56 -207 -205 39 -55 150 81 57 17 55 26 hvcurveto
            5 -22 hlineto
            -144 -16 -33 -151 -48 -67 3 3 -48 vhcurveto
            -71 vlineto
            -5 41 75 -4 64 hhcurveto
            12 279 -6 callgsubr
            21 162 163 17 21 122 66 39 -16 -40 18 hvcurveto
            14 -29 1 -42 -57 vvcurveto
            -59 -2 -42 -15 -31 vhcurveto
            -35 -16 -38 -16 -67 hhcurveto
            endchar
          </CharString>
          <CharString index="8">
            rmoveto
            -103 callsubr
            endchar
          </CharString>
          <CharString index="9">
            rmoveto
            60 hlineto
            129 -41 callsubr
            -101 -136 rlineto
            return
          </CharString>
          <CharString index="10">
            rmoveto
            203 27 74 194 hvcurveto
            448 -81 -262 vlineto
            -110 -7 -65 -131 -110 -16 15 137 vhcurveto
            285 -81 -318 vlineto
            -135 24 -62 150 105 42 32 41 18 vhcurveto
            6 -30 hlineto
            -129 -12 -41 -155 -38 -50 2 3 -66 vhcurveto
            -70 vlineto
            -6 43 71 -3 58 hhcurveto
            return
          </CharString>
          <CharString index="11">
            rmoveto
            124 64 22 130 116 -30 18 -80 9 hvcurveto
            -138 16 rlineto
            -51 5 -11 7 56 vvcurveto
            69 41 4 79 55 54 -4 -8 52 vhcurveto
            72 vlineto
            8 -41 -67 6 -52 hhcurveto
            -123 -77 -14 -136 -88 20 -41 93 -11 hvcurveto
            133 -15 rlineto
            52 -6 13 -3 -62 vvcurveto
            -56 -12 -20 -102 -62 -56 4 7 -63 vhcurveto
            -72 vlineto
            -7 51 77 -6 57 hhcurveto
            return
          </CharString>
          <CharString index="12">
            rmoveto
            129 26 35 70 63 -24 18 -48 10 hvcurveto
            2 vlineto
            47 8 21 26 55 vvcurveto
            70 -34 29 -117 -118 -34 -29 -70 -55 22 -26 47 -8 vhcurveto
            -2 vlineto
            -47 -10 -25 -18 -63 vvcurveto
            -70 26 -35 129 vhcurveto
            219 vmoveto
            -74 -17 10 48 48 15 11 76 75 16 -11 -48 -48 -17 -10 -74 hvcurveto
            -169 vmoveto
            -73 -21 8 52 54 17 8 77 76 19 -8 -54 -52 -21 -8 -74 hvcurveto
            endchar
          </CharString>
          <CharString index="13">
            rmoveto
            244 7 59 246 hvcurveto
            84 -242 -78 157 -26 vlineto
            -188 -8 -17 -162 -177 -26 27 245 269 42 3 215 39 72 -7 -9 66 vhcurveto
            76 vlineto
            11 -61 -90 9 -68 hhcurveto
            -247 -53 -59 -293 -293 44 -59 248 hvcurveto
            return
          </CharString>
          <CharString index="14">
            rmoveto
            -216 vlineto
            -4 -32 -61 -4 -42 hhcurveto
            -184 -24 36 238 269 41 3 208 39 71 -7 -9 64 hvcurveto
            76 vlineto
            11 -59 -90 9 -67 hhcurveto
            -241 -51 -59 -293 -293 48 -59 244 62 91 8 12 66 hvcurveto
            361 -238 -79 vlineto
            return
          </CharString>
          <CharString index="15">
            rmoveto
            -216 vlineto
            -164 -9 -32 -168 -168 -9 32 164 vhcurveto
            216 -86 -183 vlineto
            -233 24 -67 195 -8 vhcurveto
            -197 86 197 vlineto
            198 7 23 68 233 vvcurveto
            183 vlineto
            return
          </CharString>
          <CharString index="16">
            448 80 -362 227 314 80 -314 221 362 80 -448 hlineto
            return
          </CharString>
          <CharString index="17">
            -72 callsubr
            -58 hlineto
            6 -28 -36 2 -44 -52 callgsubr
            211 12 53 210 109 -3 66 -33 39 hvcurveto
            79 4 15 27 81 vvcurveto
            24 vlineto
            -281 -539 rmoveto
            -64 callsubr
          </CharString>
          <CharString index="18">
            rmoveto
            122 6 30 76 75 -6 32 -122 -120 -6 -32 -75 -76 6 -30 120 hvcurveto
            45 vmoveto
            -73 -1 13 48 48 1 14 73 75 0 -14 -48 -48 0 -13 -75 hvcurveto
            return
          </CharString>
          <CharString index="19">
            rmoveto
            60 5 hlineto
            -101 136 rlineto
            -88 -5 hlineto
            return
          </CharString>
          <CharString index="20">
            rmoveto
            77 83 -77 hlineto
            189 -83 rmoveto
            76 83 -76 hlineto
            return
          </CharString>
          <CharString index="21">
            rmoveto
            77 vlineto
            -6 -39 -59 -4 -44 hhcurveto
            -196 -18 21 251 251 18 21 196 37 56 -4 -6 45 hvcurveto
            75 vlineto
            9 -39 -67 6 -54 hhcurveto
            -240 -37 -59 -293 -295 37 -57 240 52 69 5 8 43 hvcurveto
            endchar
          </CharString>
          <CharString index="22">
            rmoveto
            -40 vlineto
            97 15 23 100 -5 callsubr
            -99 -8 callsubr
            -39 -10 -9 -48 vhcurveto
            endchar
          </CharString>
          <CharString index="23">
            rmoveto
            -150 -420 rlineto
            -7 hlineto
            -151 420 rlineto
            -85 hlineto
            188 -510 rlineto
            17 hlineto
            -68 -189 rlineto
            83 hlineto
            256 699 rlineto
            endchar
          </CharString>
          <CharString index="24">
            rmoveto
            -23 -6 -6 -46 -11 vhcurveto
            -22 -7 -31 callsubr
            23 2 2 39 11 vhcurveto
            24 7 rlineto
            50 14 12 15 47 vvcurveto
            71 -44 8 -87 -34 -50 -3 -5 -32 vhcurveto
            -46 vlineto
            3 32 46 2 24 hhcurveto
            64 24 1 -38 hvcurveto
            return
          </CharString>
          <CharString index="25">
            102 hlineto
            187 688 rlineto
            -86 hlineto
            -149 -570 rlineto
            -6 hlineto
            -170 570 rlineto
            -90 hlineto
            -168 -570 rlineto
            -5 hlineto
            -154 570 rlineto
            -88 hlineto
            188 -688 rlineto
            102 hlineto
            166 547 rlineto
            4 hlineto
            endchar
          </CharString>
          <CharString index="26">
            404 74 -298 hlineto
            296 367 rlineto
            69 -390 -74 285 vlineto
            -297 -367 rlineto
            return
          </CharString>
          <CharString index="27">
            rmoveto
            95 103 -43 callsubr
          </CharString>
          <CharString index="28">
            rlineto
            -35 -10 -10 -9 -37 vvcurveto
            return
          </CharString>
          <CharString index="29">
            -616 -101 callgsubr
          </CharString>
          <CharString index="30">
            254 -8 rmoveto
            69 69 12 67 30 hvcurveto
            6 hlineto
            3 -71 rlineto
            73 743 -81 -297 -6 hlineto
            56 -27 -57 16 -82 hhcurveto
            -147 -39 -57 -207 -206 41 -56 148 hvcurveto
            return
          </CharString>
          <CharString index="31">
            1062 -57 callsubr
            return
          </CharString>
          <CharString index="32">
            502 80 -395 hlineto
            390 534 rlineto
            74 -486 -80 377 vlineto
            -388 -532 rlineto
            return
          </CharString>
          <CharString index="33">
            rmoveto
            133 44 10 133 hvcurveto
            567 -81 -587 vlineto
            -42 -8 -13 -88 vhcurveto
            endchar
          </CharString>
          <CharString index="34">
            81 228 hlineto
            141 32 62 139 vhcurveto
            87 vlineto
            -83 -62 -20 -85 -25 hvcurveto
            -6 hlineto
            -4 97 rlineto
            -72 hlineto
            return
          </CharString>
          <CharString index="35">
            rmoveto
            -32 vlineto
            -49 -6 -14 -50 vhcurveto
            return
          </CharString>
          <CharString index="36">
            rmoveto
            60 hlineto
            79 -41 callsubr
            -51 -136 rlineto
            return
          </CharString>
          <CharString index="37">
            rmoveto
            -184 -13 5 267 267 13 5 184 183 13 -5 -267 -267 -13 -5 -183 hvcurveto
            return
          </CharString>
          <CharString index="38">
            164 0 25 143 return
          </CharString>
          <CharString index="39">
            rmoveto
            58 94 rlineto
            -75 hlineto
            -39 -64 rlineto
            13 -40 -55 4 -73 hhcurveto
            -30 callsubr
            -59 -293 -167 4 -91 53 -47 hvcurveto
            -57 -94 rlineto
            74 hlineto
            39 64 rlineto
            -13 41 54 -4 74 hhcurveto
            268 14 59 293 167 -5 91 -53 47 hvcurveto
            -421 -305 rmoveto
            267 13 5 184 55 40 0 -9 29 vhcurveto
            -299 -487 rlineto
            -19 38 -3 67 119 vvcurveto
            197 -272 rmoveto
            -56 -40 1 8 -29 hvcurveto
            299 487 rlineto
            19 -38 3 -67 -119 vvcurveto
            -267 -13 -5 -183 vhcurveto
            endchar
          </CharString>
          <CharString index="40">
            rmoveto
            50 82 rlineto
            -67 hlineto
            -35 -58 rlineto
            8 -31 -39 3 -51 hhcurveto
            -212 -12 -53 -210 -123 4 -69 46 -36 hvcurveto
            -50 -82 rlineto
            66 hlineto
            36 58 rlineto
            -8 30 40 -3 52 hhcurveto
            211 12 53 210 123 -4 69 -46 36 hvcurveto
            -316 -228 rmoveto
            -69 callsubr
            33 26 -1 -5 19 vhcurveto
            -205 -335 rlineto
            -16 27 0 47 78 vvcurveto
            143 -189 rmoveto
            -34 -26 1 5 -20 hvcurveto
            206 336 rlineto
            16 -28 0 -46 -79 vvcurveto
            -68 callgsubr
            vhcurveto
            endchar
          </CharString>
          <CharString index="41">
            rmoveto
            5 -88 vlineto
            -101 -136 rlineto
            -5 60 vlineto
            return
          </CharString>
          <CharString index="42">
            -8 rmoveto
            225 42 69 123 118 -43 29 -82 18 hvcurveto
            4 vlineto
            82 16 37 46 100 vvcurveto
            122 -54 59 -207 -206 -55 -59 -122 -100 37 -46 82 -16 vhcurveto
            -4 vlineto
            -81 -18 -44 -29 -118 vvcurveto
            -123 42 -69 225 vhcurveto
            395 vmoveto
            -141 -32 22 92 94 29 21 144 145 30 -21 -94 -92 -34 -22 -141 hvcurveto
            -315 vmoveto
            -139 -40 15 101 105 33 16 146 146 35 -16 -105 -101 -42 -15 -139 hvcurveto
            endchar
          </CharString>
          <CharString index="43">
            -77 callgsubr
            endchar
          </CharString>
          <CharString index="44">
            1062 -106 callgsubr
            return
          </CharString>
          <CharString index="45">
            81 78 hmoveto
            225 74 hlineto
            -125 15 -15 65 207 vvcurveto
            229 14 26 182 181 14 -27 -228 -207 -14 -65 -125 -15 vhcurveto
            -74 225 80 -11 vlineto
            -38 -7 -38 -6 -39 -7 rrcurveto
            6 vlineto
            108 38 19 104 158 vvcurveto
            249 -18 81 -264 -264 -18 -81 -249 -158 18 -104 109 -38 vhcurveto
            -6 vlineto
            -39 7 -38 6 -38 7 rrcurveto
            -11 hlineto
            endchar
          </CharString>
          <CharString index="46">
            rmoveto
            244 80 -244 hlineto
            return
          </CharString>
          <CharString index="47">
            -60 144 601 -106 callsubr
            145 -616 -104 callsubr
            return
          </CharString>
          <CharString index="48">
            rmoveto
            62 11 4 31 60 vvcurveto
            76 -7 32 -122 -120 -6 -32 -76 -60 4 -31 61 -11 vhcurveto
            -252 -675 rlineto
            87 hlineto
            71 183 rlineto
            310 hlineto
            71 -183 rlineto
            89 hlineto
            -388 777 rmoveto
            48 1 14 72 75 1 -14 -48 -48 -1 -13 -75 -72 -1 13 48 vhcurveto
            -56 -513 rmoveto
            126 331 rlineto
            5 hlineto
            126 -331 rlineto
            endchar
          </CharString>
          <CharString index="49">
            917 -57 callsubr
            return
          </CharString>
          <CharString index="50">
            -106 callgsubr
            -44 -174 -102 callsubr
            return
          </CharString>
          <CharString index="51">
            -133 154 200 rmoveto
            77 60 hlineto
            56 4 1 79 27 vhcurveto
            35 13 rlineto
            68 23 16 52 87 vvcurveto
            132 -58 45 -145 -55 -80 -7 -9 -57 vhcurveto
            -76 vlineto
            7 54 69 5 41 hhcurveto
            107 38 -6 -93 -79 -11 -12 -72 -24 hvcurveto
            -36 -13 rlineto
            -53 -18 -21 -17 -75 vvcurveto
            -9 -279 -20 callsubr
            endchar
          </CharString>
          <CharString index="52">
            hhcurveto
            -209 -40 -51 -176 -167 65 -27 169 130 43 27 23 20 hvcurveto
            6 hlineto
            -216 -22 -37 -187 -47 -77 6 7 -62 vhcurveto
            -75 vlineto
            -10 65 86 -8 53 hhcurveto
            15 363 rmoveto
            -144 -29 9 124 116 33 12 140 134 39 -13 -141 -78 -15 -29 -158 hvcurveto
            endchar
          </CharString>
          <CharString index="53">
            219 hlineto
            280 13 54 290 290 -13 54 -280 hvcurveto
            -219 hlineto
            643 -688 rmoveto
            -75 callsubr
            -557 4 rmoveto
            528 119 vlineto
            208 14 -3 -261 -261 -11 -3 -211 hvcurveto
            endchar
          </CharString>
          <CharString index="54">
            46 rmoveto
            32 50 rlineto
            -83 52 -55 91 105 vvcurveto
            104 56 92 82 51 vhcurveto
            -32 51 rlineto
            -99 -62 -67 -111 -125 vvcurveto
            -126 67 -110 99 -62 vhcurveto
            return
          </CharString>
          <CharString index="55">
            143 142 0 return
          </CharString>
          <CharString index="56">
            111 318 rmoveto
            60 370 -42 hlineto
            -94 -51 rlineto
            -60 vlineto
            76 35 rlineto
            return
          </CharString>
          <CharString index="57">
            -49 callgsubr
            endchar
          </CharString>
          <CharString index="58">
            45 618 hmoveto
            -91 callgsubr
            return
          </CharString>
          <CharString index="59">
            31 6 9 26 11 vhcurveto
            41 17 34 13 30 12 rrcurveto
            46 19 21 27 63 vvcurveto
            93 -58 7 -70 -37 -52 -4 -6 -39 vhcurveto
            -57 vlineto
            5 47 44 4 23 hhcurveto
            64 17 -6 -41 -31 -7 -11 -33 -13 hvcurveto
            -109 -46 rlineto
            -50 -23 -3 -22 -79 vvcurveto
            -48 263 return
          </CharString>
          <CharString index="60">
            368 80 -297 hlineto
            -65 227 rlineto
            315 80 -333 hlineto
            -63 221 rlineto
            443 80 -571 hlineto
            -335 -688 rlineto
            87 hlineto
            91 183 rlineto
            310 hlineto
            -107 412 rmoveto
            89 -331 rlineto
            -258 hlineto
            164 331 rlineto
            endchar
          </CharString>
          <CharString index="61">
            rmoveto
            86 688 -86 hlineto
            endchar
          </CharString>
          <CharString index="62">
            63 hlineto
            1 55 14 253 83 vvcurveto
            96 -94 -96 vlineto
            -83 14 -253 2 -55 vhcurveto
            return
          </CharString>
          <CharString index="63">
            rmoveto
            145 5 25 168 167 -6 26 -144 -145 -5 -26 -167 -168 5 -25 145 hvcurveto
            51 vmoveto
            -87 -1 2 140 139 1 2 87 88 1 -2 -139 -140 -1 -2 -88 hvcurveto
            endchar
          </CharString>
          <CharString index="64">
            -95 hlineto
            endchar
          </CharString>
          <CharString index="65">
            81 -36 callsubr
            hlineto
            return
          </CharString>
          <CharString index="66">
            136 rlineto
            5 -88 vlineto
            return
          </CharString>
          <CharString index="67">
            -100 412 hmoveto
            95 hlineto
            -210 263 207 247 rlineto
            -91 hlineto
            -181 -215 rlineto
            -64 return
          </CharString>
          <CharString index="68">
            hlineto
            450 688 rlineto
            -65 hlineto
            return
          </CharString>
          <CharString index="69">
            -38 432 hmoveto
            81 319 hlineto
            136 -24 62 -151 -102 -43 -30 -44 -20 vhcurveto
            -5 300 -81 -743 81 263 hlineto
            111 6 65 131 110 17 -15 -137 vhcurveto
            return
          </CharString>
          <CharString index="70">
            164 164 return
          </CharString>
          <CharString index="71">
            510 -81 return
          </CharString>
          <CharString index="72">
            rmoveto
            -24 callgsubr
            -136 rlineto
            return
          </CharString>
          <CharString index="73">
            792 rmoveto
            77 83 -77 hlineto
            return
          </CharString>
          <CharString index="74">
            85 688 -85 -300 -361 300 -86 -688 86 305 361 hlineto
            return
          </CharString>
          <CharString index="75">
            -242 198 -85 rmoveto
            128 274 -96 -37 rlineto
            307 vlineto
            96 -37 -128 274 -129 -274 97 37 rlineto
            -307 vlineto
            -97 37 rlineto
            return
          </CharString>
          <CharString index="76">
            -10 callgsubr
            49 vlineto
            return
          </CharString>
          <CharString index="77">
            -269 -13 return
          </CharString>
          <CharString index="78">
            86 605 217 83 -521 -83 218 hlineto
            return
          </CharString>
          <CharString index="79">
            647 rmoveto
            77 83 -77 hlineto
            return
          </CharString>
          <CharString index="80">
            -143 0 return
          </CharString>
          <CharString index="81">
            48 28 hmoveto
            629 hlineto
            -261 688 rlineto
            -107 hlineto
            54 -88 rmoveto
            202 -520 rlineto
            -407 hlineto
            200 520 rlineto
            endchar
          </CharString>
          <CharString index="82">
            24 330 -8 rmoveto
            249 5 59 293 293 -5 59 -249 -249 -5 -59 -293 -293 5 -59 249 hvcurveto
            return
          </CharString>
          <CharString index="83">
            -20 callsubr
            -688 vmoveto
            94 96 hlineto
            83 -14 253 -1 55 vhcurveto
            -63 hlineto
            -1 -55 -15 -253 -83 vvcurveto
            endchar
          </CharString>
          <CharString index="84">
            hhcurveto
            -122 return
          </CharString>
          <CharString index="85">
            136 7 rlineto
            55 vlineto
            -136 8 -7 171 rlineto
            -52 hlineto
            -7 -171 -136 -8 rlineto
            -55 vlineto
            136 -7 rlineto
            return
          </CharString>
          <CharString index="86">
            rmoveto
            -77 callgsubr
            return
          </CharString>
          <CharString index="87">
            rmoveto
            0 callgsubr
            return
          </CharString>
          <CharString index="88">
            189 -9 return
          </CharString>
          <CharString index="89">
            8 581 rmoveto
            -40 vlineto
            96 16 26 112 hvcurveto
            64 -91 -82 -8 callsubr
            -51 -10 -12 -48 vhcurveto
            return
          </CharString>
          <CharString index="90">
            hvcurveto
            80 vmoveto
            return
          </CharString>
          <CharString index="91">
            rmoveto
            -65 -5 2 117 117 5 2 65 67 2 -2 -117 -117 -5 -2 -64 hvcurveto
            return
          </CharString>
          <CharString index="92">
            rmoveto
            -42 vlineto
            99 17 27 115 hvcurveto
            83 -95 -102 -8 callsubr
            -53 -10 -11 -48 vhcurveto
            endchar
          </CharString>
          <CharString index="93">
            87 hmoveto
            81 743 -81 hlineto
            return
          </CharString>
          <CharString index="94">
            52 100 hmoveto
            219 hlineto
            280 13 54 290 290 -13 54 -280 hvcurveto
            -219 return
          </CharString>
          <CharString index="95">
            rmoveto
            37 -17 hlineto
            -39 -10 -9 -48 vhcurveto
            -40 vlineto
            97 15 23 100 -5 callsubr
            vlineto
            endchar
          </CharString>
          <CharString index="96">
            rmoveto
            65 45 45 65 65 -45 45 -65 -65 -45 -45 -65 -65 45 -45 65 hvcurveto
            60 vmoveto
            return
          </CharString>
          <CharString index="97">
            rmoveto
            58 hlineto
            132 205 -132 206 rlineto
            -58 hlineto
            114 -206 rlineto
            return
          </CharString>
          <CharString index="98">
            12 callgsubr
            3 -743 -49 callgsubr
            return
          </CharString>
          <CharString index="99">
            37 -17 vlineto
            return
          </CharString>
          <CharString index="100">
            -38 -15 -39 -18 -69 hhcurveto
            return
          </CharString>
          <CharString index="101">
            -75 0 16 85 85 0 16 75 74 0 -16 -85 -85 0 -16 -74 hvcurveto
            return
          </CharString>
          <CharString index="102">
            hvcurveto
            81 -91 return
          </CharString>
          <CharString index="103">
            -240 397 hmoveto
            696 vlineto
            -207 -145 -143 -205 return
          </CharString>
          <CharString index="104">
            24 -31 11 hvcurveto
            4 vlineto
            30 13 19 25 47 vvcurveto
            70 -34 33 -107 return
          </CharString>
          <CharString index="105">
            hhcurveto
            123 16 -21 -38 callgsubr
            -16 -20 -123 hvcurveto
            endchar
          </CharString>
          <CharString index="106">
            1 1 18 vhcurveto
            56 vlineto
            -7 -6 -1 return
          </CharString>
          <CharString index="107">
            18 17 2 4 hhcurveto
            56 vlineto
            -4 -7 -1 -7 hhcurveto
            -35 -11 18 return
          </CharString>
          <CharString index="108">
            rmoveto
            94 102 -94 hlineto
            endchar
          </CharString>
          <CharString index="109">
            -72 -1 628 rmoveto
            567 60 -567 hlineto
            -688 vmoveto
            return
          </CharString>
          <CharString index="110">
            vlineto
            -400 168 rlineto
            -75 vlineto
            334 -134 -334 return
          </CharString>
          <CharString index="111">
            84 -28 callgsubr
            return
          </CharString>
          <CharString index="112">
            7 34 134 133 -7 35 return
          </CharString>
          <CharString index="113">
            -275 -6 -49 -303 -304 6 -48 275 return
          </CharString>
          <CharString index="114">
            275 7 48 304 303 -7 49 -275 return
          </CharString>
          <CharString index="115">
            271 131 -271 132 37 -98 rlineto
            return
          </CharString>
          <CharString index="116">
            -5 81 vlineto
            38 182 rlineto
            return
          </CharString>
          <CharString index="117">
            vmoveto
            359 71 -359 hlineto
            return
          </CharString>
          <CharString index="118">
            289 -8 rmoveto
            215 8 56 223 return
          </CharString>
          <CharString index="119">
            13 141 78 15 29 158 144 return
          </CharString>
        <CharString name=".notdef">
          -137 0 vmoveto
          500 700 -500 hlineto
          450 -50 rmoveto
          -600 -400 600 vlineto
          179 -435 rmoveto
          53 53 hlineto
          33 21 18 23 19 vhcurveto
          30 26 37 36 67 vvcurveto
          12 -3 123 -140 -140 -11 -124 -23 -15 3 -13 1 -3 vhcurveto
          49 28 hlineto
          23 8 77 90 77 12 -59 -28 -51 -28 -24 -28 -23 vhcurveto
          -28 -23 -26 -23 -43 vvcurveto
          -4 -179 rmoveto
          60 70 -60 hlineto
          endchar
        </CharString>
        <CharString name="A">
          47 567 hmoveto
          -103 callsubr
          endchar
        </CharString>
        <CharString name="A.ss01">
          72 531 hmoveto
          -105 callsubr
          endchar
        </CharString>
        <CharString name="AE">
          319 531 hmoveto
          -47 callsubr
        </CharString>
        <CharString name="AEacute">
          319 441 747 -98 callsubr
          90 -752 rmoveto
          -47 callsubr
        </CharString>
        <CharString name="Aacute">
          47 290 750 -98 callsubr
          277 -755 -99 callsubr
        </CharString>
        <CharString name="Aacute.ss01">
          72 313 750 -98 callsubr
          218 -755 -102 callgsubr
        </CharString>
        <CharString name="Abreve">
          -57 callgsubr
          endchar
        </CharString>
        <CharString name="Abreve.ss01">
          -58 callgsubr
          endchar
        </CharString>
        <CharString name="Acircumflex">
          47 197 750 -106 callsubr
          370 -757 -99 callsubr
        </CharString>
        <CharString name="Acircumflex.ss01">
          72 212 750 -106 callsubr
          319 -757 -102 callgsubr
        </CharString>
        <CharString name="Adieresis">
          47 209 775 -87 callsubr
          169 -858 -99 callsubr
        </CharString>
        <CharString name="Adieresis.ss01">
          72 225 775 -87 callsubr
          117 -858 -102 callgsubr
        </CharString>
        <CharString name="Agrave">
          47 332 750 -88 callsubr
          364 -886 -99 callsubr
        </CharString>
        <CharString name="Agrave.ss01">
          72 341 750 -88 callsubr
          319 -886 -102 callgsubr
        </CharString>
        <CharString name="Amacron">
          47 220 807 -61 callsubr
          347 -887 -99 callsubr
        </CharString>
        <CharString name="Amacron.ss01">
          72 233 807 -61 callsubr
          298 -887 -102 callgsubr
        </CharString>
        <CharString name="Aogonek">
          47 578 -99 rmoveto
          33 32 44 27 22 vhcurveto
          19 hlineto
          -260 688 rlineto
          -108 hlineto
          -260 -688 rlineto
          87 hlineto
          71 183 rlineto
          310 hlineto
          70 -182 rlineto
          -34 -35 -25 -45 -39 vvcurveto
          -43 22 -35 74 11 10 -1 callsubr
          -4 hhcurveto
          -36 -11 17 23 hvcurveto
          -366 363 rmoveto
          126 331 rlineto
          5 hlineto
          126 -331 rlineto
          endchar
        </CharString>
        <CharString name="Aogonek.ss01">
          72 601 hmoveto
          16 387 hlineto
          249 -27 60 -236 -236 -26 -60 -249 vhcurveto
          -387 85 235 354 -234 vlineto
          -34 -35 -25 -45 -39 vvcurveto
          -43 22 -35 74 14 12 1 1 13 vhcurveto
          57 vlineto
          -2 -7 -6 0 -4 hhcurveto
          -36 -11 17 23 33 33 44 25 22 hvcurveto
          -424 319 rmoveto
          101 vlineto
          164 9 32 168 168 9 -32 -164 vhcurveto
          -101 vlineto
          endchar
        </CharString>
        <CharString name="Aring">
          47 404 675 -59 callsubr
        </CharString>
        <CharString name="Aring.ss01">
          72 355 740 -89 callsubr
          176 -785 -102 callgsubr
        </CharString>
        <CharString name="Aringacute">
          47 495 1080 -66 callsubr
          38 -269 -59 callsubr
        </CharString>
        <CharString name="Aringacute.ss01">
          72 322 959 -98 callsubr
          32 -247 -89 callsubr
          177 -762 -102 callgsubr
        </CharString>
        <CharString name="Atilde">
          47 523 879 -106 callgsubr
          44 -879 -99 callsubr
        </CharString>
        <CharString name="Atilde.ss01">
          72 534 878 -106 callgsubr
          -3 -878 -102 callgsubr
        </CharString>
        <CharString name="B">
          45 100 hmoveto
          317 hlineto
          159 34 83 98 86 -23 64 -102 18 hvcurveto
          4 vlineto
          84 17 34 55 90 vvcurveto
          107 -47 66 -136 vhcurveto
          -320 hlineto
          292 -300 rmoveto
          -206 220 206 hlineto
          99 26 -30 -80 -75 -40 -35 -85 hvcurveto
          4 -308 rmoveto
          -210 228 210 hlineto
          94 34 -32 -82 -83 -29 -31 -99 hvcurveto
          endchar
        </CharString>
        <CharString name="C">
          -62 518 5 -86 callsubr
        </CharString>
        <CharString name="Cacute">
          -62 253 747 -98 callsubr
          265 -747 -86 callsubr
        </CharString>
        <CharString name="Cacute.loclPLK">
          -62 253 747 -71 callsubr
          265 -747 -86 callsubr
        </CharString>
        <CharString name="Ccaron">
          -62 245 746 -96 callgsubr
          375 -877 -86 callsubr
        </CharString>
        <CharString name="Ccedilla">
          -62 376 72 rmoveto
          -196 -18 21 251 251 18 21 196 37 56 -4 -6 45 hvcurveto
          75 vlineto
          9 -39 -67 6 -54 hhcurveto
          -240 -37 -59 -293 -250 27 -79 153 -18 hvcurveto
          -61 -182 rlineto
          -5 81 vlineto
          38 183 rlineto
          -1 12 13 0 14 hhcurveto
          52 69 5 8 43 hvcurveto
          77 vlineto
          -6 -39 -59 -4 -44 hhcurveto
          endchar
        </CharString>
        <CharString name="Ccircumflex">
          -62 143 746 -106 callsubr
          375 -748 -86 callsubr
        </CharString>
        <CharString name="Cdotaccent">
          -62 249 -34 callsubr
          269 -870 -86 callsubr
        </CharString>
        <CharString name="D">
          52 100 hmoveto
          -76 callgsubr
          endchar
        </CharString>
        <CharString name="Dcaron">
          52 302 746 -96 callgsubr
          -100 -882 rmoveto
          -76 callgsubr
          endchar
        </CharString>
        <CharString name="Dcroat">
          -48 callgsubr
        </CharString>
        <CharString name="E">
          -33 100 hmoveto
          -91 callsubr
          endchar
        </CharString>
        <CharString name="Eacute">
          -33 289 750 -98 callsubr
          -189 -755 rmoveto
          -91 callsubr
          endchar
        </CharString>
        <CharString name="Ebreve">
          -33 462 888 -102 callsubr
          -362 -888 rmoveto
          -91 callsubr
          endchar
        </CharString>
        <CharString name="Ecaron">
          -33 281 746 -96 callgsubr
          -79 -882 rmoveto
          -91 callsubr
          endchar
        </CharString>
        <CharString name="Ecircumflex">
          -33 180 750 -106 callsubr
          -80 -757 rmoveto
          -91 callsubr
          endchar
        </CharString>
        <CharString name="Edieresis">
          -33 197 775 -87 callsubr
          -286 -858 rmoveto
          -91 callsubr
          endchar
        </CharString>
        <CharString name="Edotaccent">
          -33 285 -34 callsubr
          -185 -875 rmoveto
          -91 callsubr
          endchar
        </CharString>
        <CharString name="Egrave">
          -33 313 750 -88 callsubr
          -84 -886 rmoveto
          -91 callsubr
          endchar
        </CharString>
        <CharString name="Emacron">
          -33 202 807 -61 callsubr
          -102 -887 rmoveto
          -91 callsubr
          endchar
        </CharString>
        <CharString name="Eng">
          95 550 688 rmoveto
          -515 -4 vlineto
          -358 515 rlineto
          -88 -688 83 526 4 hlineto
          363 -526 rlineto
          -77 vlineto
          -42 -8 -13 -88 vhcurveto
          -68 vlineto
          134 44 10 133 hvcurveto
          745 vlineto
          endchar
        </CharString>
        <CharString name="Eogonek">
          -33 504 -196 rmoveto
          0 callsubr
          20 37 40 44 29 20 hvcurveto
          80 -362 227 314 80 -314 221 362 80 -448 -688 376 vlineto
          -42 -38 -25 -42 -41 vvcurveto
          -40 22 -35 73 vhcurveto
          endchar
        </CharString>
        <CharString name="Eth">
          -48 callgsubr
        </CharString>
        <CharString name="Euro">
          -17 400 -8 rmoveto
          76 68 10 2 19 hvcurveto
          78 vlineto
          -3 -18 -60 -7 -64 hhcurveto
          -164 -36 15 153 -8 hvcurveto
          297 58 -298 95 298 57 -297 hlineto
          151 8 37 15 163 hhcurveto
          52 68 -7 -3 18 hvcurveto
          75 vlineto
          3 -17 -66 12 -76 hhcurveto
          -206 -56 -49 -197 -11 hvcurveto
          -90 -57 88 -95 -88 -58 90 hlineto
          -208 10 55 -40 208 hhcurveto
          endchar
        </CharString>
        <CharString name="F">
          -71 100 hmoveto
          86 291 304 81 -304 236 342 80 -428 hlineto
          endchar
        </CharString>
        <CharString name="G">
          40 505 294 -93 callsubr
          endchar
        </CharString>
        <CharString name="G.ss01">
          57 369 -8 -94 callsubr
          endchar
        </CharString>
        <CharString name="G_tilde.loclGUA">
          40 519 889 -106 callgsubr
          -14 -595 -93 callsubr
          endchar
        </CharString>
        <CharString name="Gbreve">
          40 477 888 -102 callsubr
          28 -594 -93 callsubr
          endchar
        </CharString>
        <CharString name="Gbreve.ss01">
          57 485 888 -102 callsubr
          -116 -896 -94 callsubr
          endchar
        </CharString>
        <CharString name="Gcaron">
          40 296 746 -96 callgsubr
          311 -588 -93 callsubr
          endchar
        </CharString>
        <CharString name="Gcaron.ss01">
          57 304 746 -96 callgsubr
          167 -890 -94 callsubr
          endchar
        </CharString>
        <CharString name="Gcircumflex">
          40 194 746 -106 callsubr
          311 -459 -93 callsubr
          endchar
        </CharString>
        <CharString name="Gcircumflex.ss01">
          57 202 746 -106 callsubr
          167 -761 -94 callsubr
          endchar
        </CharString>
        <CharString name="Gcommaaccent">
          40 505 294 -93 callsubr
          -68 -520 -85 callsubr
        </CharString>
        <CharString name="Gcommaaccent.ss01">
          57 369 -8 -94 callsubr
          -79 -218 -85 callsubr
        </CharString>
        <CharString name="Gdotaccent">
          40 300 -34 callsubr
          205 -581 -93 callsubr
          endchar
        </CharString>
        <CharString name="Gdotaccent.ss01">
          57 308 -34 callsubr
          61 -883 -94 callsubr
          endchar
        </CharString>
        <CharString name="Gtilde.loclGUA.ss01">
          57 527 889 -106 callgsubr
          -158 -897 -94 callsubr
          endchar
        </CharString>
        <CharString name="H">
          95 547 hmoveto
          -33 callsubr
          endchar
        </CharString>
        <CharString name="Hbar">
          95 547 688 rmoveto
          -133 -361 133 -86 -688 86 273 361 -273 85 688 vlineto
          -446 -332 rmoveto
          124 361 -124 vlineto
          endchar
        </CharString>
        <CharString name="Hcircumflex">
          95 221 746 -106 callsubr
          326 -753 rmoveto
          -33 callsubr
          endchar
        </CharString>
        <CharString name="I">
          -351 100 hmoveto
          86 688 -86 hlineto
          endchar
        </CharString>
        <CharString name="IJ">
          4 100 hmoveto
          86 688 -86 hlineto
          220 -612 -70 callgsubr
        </CharString>
        <CharString name="Iacute">
          -351 98 750 -98 callsubr
          2 -755 -46 callsubr
        </CharString>
        <CharString name="Iacute_J.loclNLD">
          4 108 747 -98 callsubr
          363 -5 -98 callsubr
          -371 -752 rmoveto
          86 688 -86 hlineto
          220 -612 -70 callgsubr
        </CharString>
        <CharString name="Ibreve">
          -351 281 888 -102 callsubr
          -181 -888 -46 callsubr
        </CharString>
        <CharString name="Icircumflex">
          -351 -2 750 -106 callsubr
          102 -757 -46 callsubr
        </CharString>
        <CharString name="Idieresis">
          -351 10 775 -87 callsubr
          -99 -858 -46 callsubr
        </CharString>
        <CharString name="Idotaccent">
          -351 104 -34 callsubr
          -4 -875 -46 callsubr
        </CharString>
        <CharString name="Igrave">
          -351 132 750 -88 callsubr
          97 -886 -46 callsubr
        </CharString>
        <CharString name="Imacron">
          -351 21 807 -61 callsubr
          79 -887 -46 callsubr
        </CharString>
        <CharString name="Iogonek">
          -351 147 -196 rmoveto
          19 17 2 4 hhcurveto
          56 vlineto
          -17 -1 rlineto
          -36 -11 17 23 34 36 46 27 19 hvcurveto
          688 -86 -688 14 vlineto
          -36 -34 -26 -45 -39 vvcurveto
          -43 21 -35 74 vhcurveto
          endchar
        </CharString>
        <CharString name="Itilde">
          -351 323 889 -106 callgsubr
          -223 -889 -46 callsubr
        </CharString>
        <CharString name="J">
          -282 34 76 -70 callgsubr
        </CharString>
        <CharString name="Jcircumflex">
          -282 75 746 -106 callsubr
          -41 -677 -70 callgsubr
        </CharString>
        <CharString name="K">
          -32 callgsubr
          endchar
        </CharString>
        <CharString name="Kcommaaccent">
          -32 callgsubr
          -31 -536 -85 callsubr
        </CharString>
        <CharString name="L">
          -99 100 hmoveto
          -39 callgsubr
          endchar
        </CharString>
        <CharString name="Lacute">
          -99 108 747 -98 callsubr
          -8 -752 rmoveto
          -39 callgsubr
          endchar
        </CharString>
        <CharString name="Lcaron">
          -99 100 hmoveto
          -39 callgsubr
          228 -246 -34 callgsubr
          endchar
        </CharString>
        <CharString name="Lcommaaccent">
          -99 100 hmoveto
          -39 callgsubr
          132 -914 -85 callsubr
        </CharString>
        <CharString name="Ldot">
          -99 100 hmoveto
          -39 callgsubr
          267 -372 -80 callsubr
        </CharString>
        <CharString name="Lslash">
          -99 186 83 rmoveto
          237 vlineto
          190 72 rlineto
          72 vlineto
          -190 -72 rlineto
          296 -86 -328 vlineto
          -64 -24 rlineto
          -72 vlineto
          64 24 rlineto
          -288 407 83 vlineto
          endchar
        </CharString>
        <CharString name="M">
          270 723 hmoveto
          84 688 -116 hlineto
          -235 -535 rlineto
          -5 hlineto
          -235 535 rlineto
          -116 -688 81 541 4 hlineto
          235 -541 rlineto
          63 hlineto
          236 541 rlineto
          4 hlineto
          endchar
        </CharString>
        <CharString name="N">
          95 550 hmoveto
          -79 callgsubr
          endchar
        </CharString>
        <CharString name="Nacute">
          95 331 747 -98 callsubr
          219 -752 rmoveto
          -79 callgsubr
          endchar
        </CharString>
        <CharString name="Nacute.loclPLK">
          95 331 747 -71 callsubr
          219 -752 rmoveto
          -79 callgsubr
          endchar
        </CharString>
        <CharString name="Ncaron">
          95 323 746 -96 callgsubr
          329 -882 rmoveto
          -79 callgsubr
          endchar
        </CharString>
        <CharString name="Ncommaaccent">
          95 550 hmoveto
          -79 callgsubr
          122 -752 -85 callsubr
        </CharString>
        <CharString name="Ntilde">
          95 548 879 -106 callgsubr
          2 -879 rmoveto
          -79 callgsubr
          endchar
        </CharString>
        <CharString name="O">
          81 359 -8 -104 callgsubr
          endchar
        </CharString>
        <CharString name="OE">
          409 359 hmoveto
          631 80 -327 hlineto
          -25 -28 -2 -4 -19 hvcurveto
          43 44 6 70 1 119 rrcurveto
          302 80 -302 hlineto
          -1 114 -8 70 -41 43 rrcurveto
          -4 19 28 -2 25 hhcurveto
          327 80 -631 hlineto
          -30 callsubr
          -58 -286 -286 13 -58 269 -17 callsubr
          -184 -13 5 259 259 13 5 184 183 13 -5 -259 -259 -13 -5 -183 hvcurveto
          endchar
        </CharString>
        <CharString name="Oacute">
          81 317 750 -98 callsubr
          42 -763 -104 callgsubr
          endchar
        </CharString>
        <CharString name="Oacute.loclPLK">
          81 324 747 -71 callsubr
          35 -760 -104 callgsubr
          endchar
        </CharString>
        <CharString name="Obreve">
          81 497 888 -102 callsubr
          -138 -896 -104 callgsubr
          endchar
        </CharString>
        <CharString name="Ocircumflex">
          81 214 750 -106 callsubr
          145 -765 -104 callgsubr
          endchar
        </CharString>
        <CharString name="Odieresis">
          81 226 775 -87 callsubr
          -56 -866 -104 callgsubr
          endchar
        </CharString>
        <CharString name="Ograve">
          81 334 750 -88 callsubr
          154 -894 -104 callgsubr
          endchar
        </CharString>
        <CharString name="Ohorn">
          81 605 783 -89 callgsubr
        </CharString>
        <CharString name="Ohungarumlaut">
          81 233 752 -80 callgsubr
          -66 -765 -104 callgsubr
          endchar
        </CharString>
        <CharString name="Omacron">
          81 237 807 -61 callsubr
          122 -895 -104 callgsubr
          endchar
        </CharString>
        <CharString name="Oslash">
          81 583 649 -68 callsubr
        </CharString>
        <CharString name="Oslashacute">
          81 513 883 -66 callsubr
          199 -98 -68 callsubr
        </CharString>
        <CharString name="Otilde">
          81 539 879 -106 callgsubr
          -180 -887 -104 callgsubr
          endchar
        </CharString>
        <CharString name="P">
          15 100 hmoveto
          86 250 214 hlineto
          178 21 98 121 127 -22 92 -175 hvcurveto
          -302 hlineto
          86 -358 rmoveto
          278 187 vlineto
          132 9 -40 -99 -99 -11 -40 -132 hvcurveto
          endchar
        </CharString>
        <CharString name="Q">
          81 559 22 rmoveto
          76 41 6 92 189 vvcurveto
          293 -14 59 -268 -30 callsubr
          -59 -293 -293 13 -59 269 48 39 2 5 33 vhcurveto
          82 -114 rlineto
          98 2 hlineto
          -300 185 rmoveto
          -184 -13 5 267 267 13 5 184 183 13 -5 -267 -165 -5 -65 -41 -26 hvcurveto
          -96 130 rlineto
          -92 hlineto
          105 -146 rlineto
          endchar
        </CharString>
        <CharString name="R">
          -49 callsubr
          endchar
        </CharString>
        <CharString name="R.ss01">
          -56 callgsubr
          endchar
        </CharString>
        <CharString name="Racute">
          45 495 883 -66 callsubr
          252 -747 rmoveto
          -91 callgsubr
          endchar
        </CharString>
        <CharString name="Racute.ss01">
          50 498 883 -66 callsubr
          232 -576 -93 callgsubr
          endchar
        </CharString>
        <CharString name="Rcaron">
          45 383 746 -35 callsubr
          320 -746 rmoveto
          -91 callgsubr
          endchar
        </CharString>
        <CharString name="Rcaron.ss01">
          50 386 746 -35 callsubr
          300 -575 -93 callgsubr
          endchar
        </CharString>
        <CharString name="Rcommaaccent">
          -49 callsubr
          -75 -511 -12 callsubr
        </CharString>
        <CharString name="Rcommaaccent.ss01">
          -56 callgsubr
          -77 -514 -12 callsubr
        </CharString>
        <CharString name="S">
          -65 callgsubr
          endchar
        </CharString>
        <CharString name="Sacute">
          -8 280 747 -98 callsubr
          49 -760 -97 callgsubr
          endchar
        </CharString>
        <CharString name="Sacute.loclPLK">
          -8 280 747 -71 callsubr
          49 -760 -97 callgsubr
          endchar
        </CharString>
        <CharString name="Scaron">
          -8 280 750 -96 callgsubr
          151 -894 -97 callgsubr
          endchar
        </CharString>
        <CharString name="Scedilla">
          -8 561 197 rmoveto
          50 -3 37 -11 28 vhcurveto
          -22 57 -49 11 -70 7 -168 19 rcurveline
          -75 8 -10 14 77 vvcurveto
          42 3 30 30 17 vhcurveto
          16 26 43 6 74 hhcurveto
          63 83 -5 -8 52 hvcurveto
          76 vlineto
          10 -47 -89 7 -77 hhcurveto
          -155 -92 -23 -171 -106 17 -63 129 -15 hvcurveto
          170 -19 rlineto
          87 -8 5 -14 -86 vvcurveto
          -44 -3 -36 -29 -18 vhcurveto
          -16 -30 -39 -5 -70 hhcurveto
          -54 -93 6 7 -70 hvcurveto
          -79 vlineto
          55 -6 75 -6 66 -1 -60 -178 rcurveline
          9 callsubr
          131 1 88 18 186 vvcurveto
          endchar
        </CharString>
        <CharString name="Scircumflex">
          -8 170 746 -106 callsubr
          159 -761 -97 callgsubr
          endchar
        </CharString>
        <CharString name="Scommaaccent">
          -65 callgsubr
          -71 -218 -85 callsubr
        </CharString>
        <CharString name="T">
          -55 248 hmoveto
          -29 callsubr
          endchar
        </CharString>
        <CharString name="Tbar">
          -55 551 605 rmoveto
          83 -521 -83 218 -230 -193 -73 193 -302 86 302 192 73 -192 230 vlineto
          endchar
        </CharString>
        <CharString name="Tcaron">
          -55 248 746 -96 callgsubr
          102 -882 rmoveto
          -29 callsubr
          endchar
        </CharString>
        <CharString name="Thorn">
          15 100 hmoveto
          86 132 214 hlineto
          178 21 98 121 126 -22 92 -175 hvcurveto
          -216 119 -86 hlineto
          86 -476 rmoveto
          277 187 vlineto
          132 9 -39 -99 -100 -11 -39 -132 hvcurveto
          endchar
        </CharString>
        <CharString name="U">
          72 531 688 rmoveto
          -420 vlineto
          -99 callgsubr
          387 vlineto
          endchar
        </CharString>
        <CharString name="Uacute">
          72 317 750 -98 callsubr
          214 -67 rmoveto
          -420 vlineto
          -99 callgsubr
          387 vlineto
          endchar
        </CharString>
        <CharString name="Ubreve">
          72 493 888 -102 callsubr
          38 -200 rmoveto
          -420 vlineto
          -99 callgsubr
          387 vlineto
          endchar
        </CharString>
        <CharString name="Ucircumflex">
          72 212 750 -106 callsubr
          319 -69 rmoveto
          -420 vlineto
          -99 callgsubr
          387 vlineto
          endchar
        </CharString>
        <CharString name="Udieresis">
          72 222 775 -36 callgsubr
          -170 rmoveto
          -420 vlineto
          -99 callgsubr
          387 vlineto
          endchar
        </CharString>
        <CharString name="Ugrave">
          72 349 750 -88 callsubr
          311 -198 rmoveto
          -420 vlineto
          -99 callgsubr
          387 vlineto
          endchar
        </CharString>
        <CharString name="Uhorn">
          72 664 783 -72 callsubr
          -77 -420 hlineto
          -99 callgsubr
          346 vlineto
          89 2 17 25 85 vvcurveto
          24 vlineto
          endchar
        </CharString>
        <CharString name="Uhungarumlaut">
          72 229 752 -80 callgsubr
          110 -69 rmoveto
          -420 vlineto
          -99 callgsubr
          387 vlineto
          endchar
        </CharString>
        <CharString name="Umacron">
          72 233 807 -61 callsubr
          298 -199 rmoveto
          -420 vlineto
          -99 callgsubr
          387 vlineto
          endchar
        </CharString>
        <CharString name="Uogonek">
          72 531 688 rmoveto
          -420 vlineto
          -164 -8 -32 -168 -168 -10 32 164 vhcurveto
          420 -85 -387 vlineto
          -249 27 -60 236 31 27 1 3 23 vhcurveto
          -34 -35 -22 -42 -37 vvcurveto
          -43 21 -35 74 11 11 -1 callsubr
          -4 hhcurveto
          -37 -10 17 23 57 45 42 41 22 hvcurveto
          69 38 11 82 159 vvcurveto
          387 vlineto
          endchar
        </CharString>
        <CharString name="Uring">
          72 354 717 -89 callsubr
          177 -74 rmoveto
          -420 vlineto
          -99 callgsubr
          387 vlineto
          endchar
        </CharString>
        <CharString name="Utilde">
          72 535 889 -106 callgsubr
          -4 -201 rmoveto
          -420 vlineto
          -99 callgsubr
          387 vlineto
          endchar
        </CharString>
        <CharString name="V">
          27 278 hmoveto
          108 hlineto
          248 688 rlineto
          -87 hlineto
          -212 -582 rlineto
          -5 hlineto
          -211 582 rlineto
          -90 hlineto
          endchar
        </CharString>
        <CharString name="W">
          351 663 hmoveto
          -82 callsubr
        </CharString>
        <CharString name="Wacute">
          351 459 747 -98 callsubr
          204 -752 rmoveto
          -82 callsubr
        </CharString>
        <CharString name="Wcircumflex">
          351 349 746 -106 callsubr
          314 -753 rmoveto
          -82 callsubr
        </CharString>
        <CharString name="Wdieresis">
          351 361 792 -87 callsubr
          113 -875 rmoveto
          -82 callsubr
        </CharString>
        <CharString name="Wgrave">
          351 472 747 -88 callsubr
          320 -883 rmoveto
          -82 callsubr
        </CharString>
        <CharString name="X">
          38 545 hmoveto
          101 hlineto
          -256 348 253 340 rlineto
          -99 hlineto
          -201 -265 rlineto
          -8 hlineto
          -200 265 rlineto
          -102 hlineto
          253 -343 -257 -345 rlineto
          98 hlineto
          205 271 rlineto
          8 hlineto
          endchar
        </CharString>
        <CharString name="Y">
          -27 261 hmoveto
          -83 callgsubr
          endchar
        </CharString>
        <CharString name="Y.loclGUA">
          -27 482 688 -92 callsubr
          endchar
        </CharString>
        <CharString name="Yacute">
          -27 276 750 -98 callsubr
          -15 -755 rmoveto
          -83 callgsubr
          endchar
        </CharString>
        <CharString name="Yacute.loclGUA">
          -27 458 883 -66 callsubr
          153 -59 -92 callsubr
          endchar
        </CharString>
        <CharString name="Ycircumflex">
          -27 160 746 -106 callsubr
          101 -753 rmoveto
          -83 callgsubr
          endchar
        </CharString>
        <CharString name="Ycircumflex.loclGUA">
          -27 303 842 -66 callgsubr
          267 -58 -92 callsubr
          endchar
        </CharString>
        <CharString name="Ydieresis">
          -27 176 775 -87 callsubr
          -104 -858 rmoveto
          -83 callgsubr
          endchar
        </CharString>
        <CharString name="Ydieresis.loclGUA">
          -27 248 875 -19 callgsubr
          46 -104 -92 callsubr
          endchar
        </CharString>
        <CharString name="Ygrave">
          -27 283 747 -88 callsubr
          107 -883 rmoveto
          -83 callgsubr
          endchar
        </CharString>
        <CharString name="Ygrave.loclGUA">
          -27 342 747 -62 callgsubr
          200 -59 -92 callsubr
          endchar
        </CharString>
        <CharString name="Z">
          -30 54 hmoveto
          -75 callsubr
          endchar
        </CharString>
        <CharString name="Zacute">
          -30 269 747 -98 callsubr
          -215 -752 rmoveto
          -75 callsubr
          endchar
        </CharString>
        <CharString name="Zacute.loclPLK">
          -30 269 747 -71 callsubr
          -215 -752 rmoveto
          -75 callsubr
          endchar
        </CharString>
        <CharString name="Zcaron">
          -30 268 749 -96 callgsubr
          -112 -885 rmoveto
          -75 callsubr
          endchar
        </CharString>
        <CharString name="Zdotaccent">
          -30 265 -34 callsubr
          -211 -875 rmoveto
          -75 callsubr
          endchar
        </CharString>
        <CharString name="a">
          -67 223 -8 -107 callsubr
        </CharString>
        <CharString name="aacute">
          -67 241 602 -98 callsubr
          -18 -615 -107 callsubr
        </CharString>
        <CharString name="abreve">
          -67 423 743 -102 callsubr
          -200 -92 callgsubr
        </CharString>
        <CharString name="acircumflex">
          -67 142 601 -106 callsubr
          81 -616 -107 callsubr
        </CharString>
        <CharString name="acute">
          -408 20 602 -98 callsubr
          endchar
        </CharString>
        <CharString name="acute.case.loclPLK">
          -408 20 747 -71 callsubr
          endchar
        </CharString>
        <CharString name="acute.loclPLK">
          -408 20 602 -71 callsubr
          endchar
        </CharString>
        <CharString name="acutecomb">
          -209 602 -98 callsubr
          endchar
        </CharString>
        <CharString name="acutecomb.case">
          -209 747 -98 callsubr
          endchar
        </CharString>
        <CharString name="adieresis">
          -67 154 647 -87 callsubr
          -120 -738 -107 callsubr
        </CharString>
        <CharString name="ae">
          261 832 256 -75 callgsubr
        </CharString>
        <CharString name="aeacute">
          261 601 738 -66 callsubr
          360 -346 -75 callgsubr
        </CharString>
        <CharString name="agrave">
          -67 273 602 -88 callsubr
          79 -746 -107 callsubr
        </CharString>
        <CharString name="amacron">
          -67 163 662 -61 callsubr
          60 -750 -107 callsubr
        </CharString>
        <CharString name="ampersand">
          99 502 386 rmoveto
          -312 vlineto
          -5 -45 -48 -2 -46 hhcurveto
          -148 -64 16 105 81 14 41 133 hvcurveto
          96 76 -96 hlineto
          -132 -9 57 58 88 26 31 204 50 81 -6 -8 61 hvcurveto
          71 vlineto
          11 -62 -91 8 -64 hhcurveto
          -241 -47 -78 -103 -100 39 -43 80 -19 hvcurveto
          -4 vlineto
          -81 -19 -44 -34 -112 vvcurveto
          -114 37 -78 258 87 97 12 7 36 vhcurveto
          299 115 76 vlineto
          endchar
        </CharString>
        <CharString name="aogonek">
          -67 467 -139 rmoveto
          -35 -11 17 21 37 35 45 27 19 hvcurveto
          319 vlineto
          148 -28 51 -181 -68 -66 -5 -9 -51 vhcurveto
          -71 vlineto
          5 34 77 6 45 hhcurveto
          134 23 -8 -116 hvcurveto
          -30 vlineto
          2 -65 -97 3 -29 -23 callsubr
          -34 -40 -115 -115 56 -33 112 64 82 8 71 31 hvcurveto
          6 hlineto
          4 -71 rlineto
          1 hlineto
          -34 -35 -26 -44 -42 vvcurveto
          -40 22 -35 73 11 11 1 1 17 vhcurveto
          56 vlineto
          -6 -6 -1 -6 hhcurveto
          -65 348 rmoveto
          -43 -6 -31 -15 -26 vhcurveto
          -38 -21 -49 -6 -57 hhcurveto
          -99 -20 13 70 73 18 11 79 hvcurveto
          170 hlineto
          endchar
        </CharString>
        <CharString name="approxequal">
          -140 67 285 rmoveto
          48 hlineto
          40 2 14 29 27 32 -10 -9 31 vhcurveto
          -12 39 40 -12 40 hhcurveto
          67 7 38 79 hvcurveto
          -47 hlineto
          -40 -2 -13 -29 -28 -31 9 9 callgsubr
          -37 -80 hvcurveto
          -189 vmoveto
          48 hlineto
          40 2 13 29 27 32 -9 -9 31 vhcurveto
          -12 39 40 -12 40 hhcurveto
          67 7 37 80 hvcurveto
          -47 hlineto
          -40 -2 -14 -29 -28 -31 10 9 callgsubr
          -38 -79 hvcurveto
          endchar
        </CharString>
        <CharString name="aring">
          -67 284 592 -89 callsubr
          -61 -645 -107 callsubr
        </CharString>
        <CharString name="aringacute">
          -67 250 847 -98 callsubr
          34 -250 -89 callsubr
          -61 -655 -107 callsubr
        </CharString>
        <CharString name="arrowboth">
          246 326 173 rmoveto
          -37 97 rlineto
          305 hlineto
          -37 -97 8 callsubr
          -305 hlineto
          37 98 -271 -132 rlineto
          endchar
        </CharString>
        <CharString name="arrowdown">
          -242 198 -85 rmoveto
          128 274 -96 -37 rlineto
          536 -64 -536 vlineto
          -97 37 rlineto
          endchar
        </CharString>
        <CharString name="arrowdown.ss01">
          -292 173 171 rmoveto
          142 285 rlineto
          -285 hlineto
          endchar
        </CharString>
        <CharString name="arrowleft">
          246 284 270 rmoveto
          544 68 -544 hlineto
          38 98 -267 -132 267 -131 rlineto
          endchar
        </CharString>
        <CharString name="arrowleft.ss01">
          -274 315 201 rmoveto
          285 vlineto
          -285 -143 rlineto
          endchar
        </CharString>
        <CharString name="arrowright">
          246 557 173 rmoveto
          8 callsubr
          -539 -68 539 hlineto
          endchar
        </CharString>
        <CharString name="arrowright.ss01">
          -274 48 201 rmoveto
          285 142 -285 143 rlineto
          endchar
        </CharString>
        <CharString name="arrowup">
          -242 166 -82 rmoveto
          64 536 hlineto
          96 -37 -128 274 -129 -274 97 37 rlineto
          endchar
        </CharString>
        <CharString name="arrowup.ss01">
          -292 30 231 rmoveto
          285 hlineto
          -142 285 rlineto
          endchar
        </CharString>
        <CharString name="arrowupdn">
          -32 callsubr
          endchar
        </CharString>
        <CharString name="arrowupdnbse">
          -32 callsubr
          -14 -376 rmoveto
          285 64 -285 hlineto
          endchar
        </CharString>
        <CharString name="asciicircum">
          -180 340 443 rmoveto
          66 hlineto
          -139 306 rlineto
          -77 hlineto
          -140 -306 rlineto
          67 hlineto
          112 245 rlineto
          endchar
        </CharString>
        <CharString name="asciitilde">
          -140 429 366 rmoveto
          -47 hlineto
          -40 -2 -13 -29 -28 -31 9 10 -32 vhcurveto
          11 -39 -40 12 -40 hhcurveto
          -66 -8 -37 -80 hvcurveto
          48 hlineto
          40 2 14 29 27 32 -10 -9 31 vhcurveto
          -11 39 40 -13 40 hhcurveto
          67 7 38 79 hvcurveto
          endchar
        </CharString>
        <CharString name="asterisk">
          -195 242 465 rmoveto
          125 -81 27 52 -132 67 132 67 -27 52 -126 -80 8 146 rlineto
          -55 hlineto
          7 -147 -126 81 -27 -52 132 -67 -132 -67 27 -52 126 81 -7 -146 rlineto
          55 hlineto
          endchar
        </CharString>
        <CharString name="asterisk.ss02">
          180 178 -14 rmoveto
          231 170 231 -170 -90 276 232 174 rlineto
          -288 hlineto
          -85 269 -87 -269 rlineto
          -287 hlineto
          234 -174 rlineto
          endchar
        </CharString>
        <CharString name="at">
          294 465 -108 rmoveto
          99 44 1 2 42 hvcurveto
          47 vlineto
          -2 -22 -99 -2 -64 hhcurveto
          -61 -50 1 3 -32 hvcurveto
          -185 13 -7 60 279 vvcurveto
          261 6 69 151 18 vhcurveto
          6 44 58 2 75 hhcurveto
          84 63 -2 -8 46 hvcurveto
          137 -21 5 -73 -252 vvcurveto
          -172 -19 -3 -51 vhcurveto
          -79 230 hlineto
          125 -23 44 -157 -55 -59 -5 -7 -47 vhcurveto
          -63 vlineto
          4 25 73 4 37 hhcurveto
          116 16 -6 -96 hvcurveto
          -26 vlineto
          2 -53 -82 2 -29 hhcurveto
          -104 -28 -31 -99 -99 46 -30 100 56 64 7 61 28 hvcurveto
          5 hlineto
          4 -61 rlineto
          135 hlineto
          95 34 5 214 352 -8 50 -374 -374 -7 -52 -350 -349 7 -53 374 hvcurveto
          -14 239 rmoveto
          -83 -15 12 59 62 13 9 65 hvcurveto
          145 -28 hlineto
          -90 -28 -24 -97 vhcurveto
          endchar
        </CharString>
        <CharString name="atilde">
          -67 465 743 -106 callgsubr
          -242 -92 callgsubr
        </CharString>
        <CharString name="b">
          -46 337 -8 rmoveto
          148 41 56 207 207 -40 56 -147 -82 -56 -16 -56 -28 hvcurveto
          -5 297 -81 -743 72 hlineto
          4 71 rlineto
          6 hlineto
          -67 29 69 -12 70 hhcurveto
          -32 78 rmoveto
          -64 -39 15 35 -17 hvcurveto
          -16 32 -1 44 59 vvcurveto
          60 2 43 16 32 vhcurveto
          34 16 38 15 65 hhcurveto
          123 16 -21 -163 -165 -16 -20 -123 hvcurveto
          endchar
        </CharString>
        <CharString name="backslash">
          -278 288 -55 rmoveto
          74 hlineto
          -291 798 rlineto
          -75 hlineto
          endchar
        </CharString>
        <CharString name="bar">
          -360 102 -161 rmoveto
          74 904 -74 hlineto
          endchar
        </CharString>
        <CharString name="bar.ss02">
          -139 -1 hmoveto
          500 696 -500 hlineto
          endchar
        </CharString>
        <CharString name="braceleft">
          -312 242 -150 rmoveto
          63 hlineto
          -28 14 -73 75 86 vvcurveto
          121 vlineto
          77 -27 54 -71 16 vhcurveto
          7 vlineto
          71 16 27 54 76 vvcurveto
          122 vlineto
          86 73 75 28 14 vhcurveto
          -63 hlineto
          -28 -12 -86 -66 -105 vvcurveto
          -115 vlineto
          -56 -17 -69 -84 vhcurveto
          -47 vlineto
          84 17 -69 -56 hvcurveto
          -116 vlineto
          -104 86 -66 28 -12 vhcurveto
          endchar
        </CharString>
        <CharString name="braceright">
          -312 19 -150 rmoveto
          63 hlineto
          28 12 86 66 104 vvcurveto
          116 vlineto
          56 17 69 84 vhcurveto
          47 vlineto
          -84 -17 69 56 hvcurveto
          115 vlineto
          105 -86 66 -28 12 vhcurveto
          -63 hlineto
          29 -14 72 -75 -86 vvcurveto
          -122 vlineto
          -76 27 -54 71 -16 vhcurveto
          -7 vlineto
          -71 -16 -27 -54 -77 vvcurveto
          -121 vlineto
          -86 -72 -75 -29 -14 vhcurveto
          endchar
        </CharString>
        <CharString name="bracketleft">
          -301 100 -150 rmoveto
          195 64 hlineto
          -119 4 rlineto
          757 vlineto
          119 4 rlineto
          64 -195 vlineto
          endchar
        </CharString>
        <CharString name="bracketleft.ss02">
          -4 callsubr
          hvcurveto
          -348 vlineto
          endchar
        </CharString>
        <CharString name="bracketright">
          -301 42 -150 rmoveto
          194 893 -194 -64 hlineto
          119 -4 rlineto
          -757 vlineto
          -119 -4 rlineto
          endchar
        </CharString>
        <CharString name="bracketright.ss02">
          -240 0 vmoveto
          352 348 hlineto
          5 callgsubr
          vhcurveto
          endchar
        </CharString>
        <CharString name="breve">
          -321 296 743 -102 callsubr
          endchar
        </CharString>
        <CharString name="brokenbar">
          -360 102 390 rmoveto
          74 353 -74 hlineto
          -904 vmoveto
          74 353 -74 hlineto
          endchar
        </CharString>
        <CharString name="bullet">
          -268 294 342 rmoveto
          98 -4 16 -107 -104 -4 -16 -98 -96 4 -15 104 107 4 15 96 vhcurveto
          endchar
        </CharString>
        <CharString name="bullet.ss02">
          146 392 421 rmoveto
          62 50 39 73 90 -76 73 -36 -37 -76 -73 -90 -73 50 -39 63 hvcurveto
          60 vmoveto
          -30 -23 18 34 57 36 46 17 17 35 -46 -57 -34 -23 -18 -29 hvcurveto
          -189 -250 rmoveto
          73 39 50 63 62 -39 50 -73 -90 -73 -76 -36 -37 73 -76 90 hvcurveto
          378 hmoveto
          89 73 76 37 36 -73 76 -89 -74 -39 -50 -62 -63 39 -50 74 hvcurveto
          -378 60 rmoveto
          -57 -46 36 17 17 46 35 57 34 18 -23 -29 -30 -18 -23 -34 hvcurveto
          378 hmoveto
          -35 -18 23 30 29 18 23 35 56 46 -35 -17 -17 -46 -36 -56 hvcurveto
          -189 -299 rmoveto
          36 76 73 90 73 -50 39 -62 -63 -50 -39 -73 -90 76 -73 37 hvcurveto
          60 vmoveto
          -17 -36 46 57 34 23 18 30 29 23 -18 -34 -57 -35 -46 -17 hvcurveto
          endchar
        </CharString>
        <CharString name="c">
          -177 411 5 -86 callgsubr
        </CharString>
        <CharString name="cacute">
          -177 193 602 -98 callsubr
          218 -602 -86 callgsubr
        </CharString>
        <CharString name="cacute.loclPLK">
          -177 193 602 -71 callsubr
          218 -602 -86 callgsubr
        </CharString>
        <CharString name="caron">
          -307 122 601 -96 callgsubr
          endchar
        </CharString>
        <CharString name="caron.loclCSY">
          -428 51 442 -34 callgsubr
          endchar
        </CharString>
        <CharString name="ccaron">
          -177 187 601 -96 callgsubr
          326 -732 -86 callgsubr
        </CharString>
        <CharString name="ccedilla">
          -177 292 66 rmoveto
          -127 -19 29 160 155 17 34 126 37 48 -5 -6 33 hvcurveto
          72 vlineto
          7 -34 -57 6 -47 hhcurveto
          -175 -29 -76 -187 -156 11 -81 123 -21 hvcurveto
          -61 -182 rlineto
          9 callsubr
          15 hlineto
          48 57 6 7 34 hvcurveto
          71 vlineto
          -5 -35 -48 -5 -36 hhcurveto
          endchar
        </CharString>
        <CharString name="ccircumflex">
          -177 85 601 -106 callsubr
          326 -603 -86 callgsubr
        </CharString>
        <CharString name="cdotaccent">
          -177 191 -28 callsubr
          220 -725 -86 callgsubr
        </CharString>
        <CharString name="cedilla">
          -476 20 -7 callgsubr
        </CharString>
        <CharString name="cent">
          -169 416 156 rmoveto
          -29 -6 -47 -4 -36 -1 rrcurveto
          396 vlineto
          37 -1 43 -4 27 -5 rrcurveto
          73 vlineto
          -33 8 -37 4 -37 1 rrcurveto
          79 -63 -79 vlineto
          -137 -9 -39 -81 -185 vvcurveto
          -176 25 -88 151 -10 vhcurveto
          -76 63 76 vlineto
          48 1 34 5 30 7 rrcurveto
          -265 262 rmoveto
          141 14 43 76 11 vhcurveto
          -390 vlineto
          -75 11 -15 41 143 vvcurveto
          endchar
        </CharString>
        <CharString name="circumflex">
          -307 20 601 -106 callsubr
          endchar
        </CharString>
        <CharString name="colon">
          13 callgsubr
          -510 vmoveto
          0 callgsubr
          endchar
        </CharString>
        <CharString name="comma">
          -414 43 -81 -15 callsubr
        </CharString>
        <CharString name="copyright">
          96 366 -8 rmoveto
          7 callsubr
          6 callsubr
          hvcurveto
          42 -21 callgsubr
          23 119 rmoveto
          31 38 3 4 21 hvcurveto
          48 vlineto
          -3 -20 -33 -2 -26 hhcurveto
          -98 -8 11 129 128 8 11 98 23 32 -2 -3 22 hvcurveto
          47 vlineto
          5 -17 -38 3 -33 hhcurveto
          -130 -20 -36 -153 -155 20 -35 130 hvcurveto
          endchar
        </CharString>
        <CharString name="currency">
          81 111 -8 rmoveto
          101 98 rlineto
          -16 31 47 -5 69 hhcurveto
          68 46 5 16 32 hvcurveto
          102 -99 46 50 -97 95 rlineto
          23 42 3 66 100 vvcurveto
          100 -3 66 -22 42 vhcurveto
          96 94 -46 50 -101 -99 rlineto
          16 -32 -46 6 -69 hhcurveto
          -69 -47 -6 -15 -32 hvcurveto
          -99 97 -47 -50 96 -93 rlineto
          -23 -42 -3 -66 -100 vvcurveto
          -100 3 -67 24 -41 vhcurveto
          -97 -94 rlineto
          294 101 rmoveto
          -27 callsubr
          27 174 175 0 26 -52 callsubr
          -26 -175 -174 0 -27 -18 callgsubr
          endchar
        </CharString>
        <CharString name="d">
          -46 -77 callsubr
          31 78 rmoveto
          -72 callgsubr
          -7 callsubr
          endchar
        </CharString>
        <CharString name="dagger">
          -187 199 hmoveto
          52 hlineto
          7 447 -22 callsubr
          endchar
        </CharString>
        <CharString name="daggerdbl">
          -187 199 hmoveto
          52 hlineto
          7 170 136 8 rlineto
          55 vlineto
          -136 8 rlineto
          206 vlineto
          -22 callsubr
          -206 vlineto
          -136 -8 rlineto
          -55 vlineto
          136 -8 rlineto
          endchar
        </CharString>
        <CharString name="dcaron">
          -46 -77 callsubr
          292 450 -34 callgsubr
          -275 -544 rmoveto
          -72 callgsubr
          -7 callsubr
          endchar
        </CharString>
        <CharString name="dcroat">
          -46 571 688 rmoveto
          -67 55 -81 -55 -136 -73 136 -169 -6 hlineto
          56 -27 -57 16 -82 hhcurveto
          -147 -39 -57 -207 -206 41 -56 148 69 69 12 67 30 hvcurveto
          6 hlineto
          3 -71 rlineto
          73 615 67 hlineto
          -163 -489 rmoveto
          -7 callsubr
          -72 callgsubr
          endchar
        </CharString>
        <CharString name="degree">
          -247 195 -22 callgsubr
          48 vmoveto
          -6 callsubr
          endchar
        </CharString>
        <CharString name="dialog">
          168 306 -212 rmoveto
          213 212 rlineto
          227 688 -687 -688 247 60 -187 568 567 -568 -192 hlineto
          -188 -187 rlineto
          endchar
        </CharString>
        <CharString name="dieresis">
          -332 20 647 -87 callsubr
          endchar
        </CharString>
        <CharString name="divide">
          -97 234 401 rmoveto
          72 80 -72 hlineto
          -164 -264 rmoveto
          -13 callgsubr
          164 -264 rmoveto
          72 81 -72 hlineto
          endchar
        </CharString>
        <CharString name="dollar">
          -99 468 226 rmoveto
          116 -28 26 -77 9 vhcurveto
          -60 6 rlineto
          159 vlineto
          43 -2 51 -4 43 -5 rrcurveto
          73 vlineto
          -43 8 -42 5 -52 1 rrcurveto
          78 -63 -79 vlineto
          -110 -6 -61 -31 -118 vvcurveto
          -89 21 -46 94 -11 vhcurveto
          56 -7 rlineto
          -164 vlineto
          -70 1 -52 5 -32 4 rrcurveto
          -74 vlineto
          41 -6 59 -5 54 -2 rrcurveto
          -76 63 76 vlineto
          123 7 42 33 118 vvcurveto
          -255 167 rmoveto
          -52 6 -11 5 62 vvcurveto
          61 31 12 59 3 vhcurveto
          -152 vlineto
          63 -245 rmoveto
          157 vlineto
          21 -3 rlineto
          50 -5 13 -3 -67 vvcurveto
          -54 -11 -21 -73 -4 vhcurveto
          endchar
        </CharString>
        <CharString name="dotaccent">
          -520 20 -28 callsubr
          endchar
        </CharString>
        <CharString name="dotbelowcomb">
          -159 -165 -80 callsubr
        </CharString>
        <CharString name="dotlessi">
          -383 87 hmoveto
          -42 callsubr
          endchar
        </CharString>
        <CharString name="e">
          -77 495 255 -105 callgsubr
          endchar
        </CharString>
        <CharString name="eacute">
          -77 433 738 -66 callsubr
          191 -347 -105 callgsubr
          endchar
        </CharString>
        <CharString name="ebreve">
          -77 279 598 rmoveto
          131 8 61 84 hvcurveto
          -54 hlineto
          -58 -2 -32 -83 -84 0 32 58 vhcurveto
          -53 hlineto
          -84 7 -61 130 vhcurveto
          216 -343 -105 callgsubr
          endchar
        </CharString>
        <CharString name="ecaron">
          -77 322 601 -35 callsubr
          258 -346 -105 callgsubr
          endchar
        </CharString>
        <CharString name="ecircumflex">
          -77 282 -16 callgsubr
          301 -346 -105 callgsubr
          endchar
        </CharString>
        <CharString name="edieresis">
          -77 228 730 -19 callgsubr
          79 -392 -105 callgsubr
          endchar
        </CharString>
        <CharString name="edotaccent">
          -77 318 730 rmoveto
          -77 -83 77 hlineto
          177 -392 -105 callgsubr
          endchar
        </CharString>
        <CharString name="egrave">
          -77 329 602 -62 callgsubr
          226 -347 -105 callgsubr
          endchar
        </CharString>
        <CharString name="eight">
          46 341 -65 callsubr
        </CharString>
        <CharString name="eight.dnom">
          -241 198 -4 -95 callsubr
        </CharString>
        <CharString name="eight.numr">
          -241 198 304 -95 callsubr
        </CharString>
        <CharString name="eight.tnum">
          24 330 -65 callsubr
        </CharString>
        <CharString name="ellipsis">
          31 64 hmoveto
          0 callgsubr
          223 -102 -20 callsubr
          223 -102 1 callsubr
        </CharString>
        <CharString name="emacron">
          -77 402 742 10 callgsubr
          93 -407 -105 callgsubr
          endchar
        </CharString>
        <CharString name="emdash">
          236 57 268 rmoveto
          759 72 -759 hlineto
          endchar
        </CharString>
        <CharString name="endash">
          -165 57 268 rmoveto
          358 72 -358 hlineto
          endchar
        </CharString>
        <CharString name="eng">
          -38 338 518 rmoveto
          -27 callgsubr
          hvcurveto
          -41 callgsubr
          -510 81 263 hlineto
          111 6 65 131 110 17 -15 -137 vhcurveto
          -364 vlineto
          -42 -8 -13 -88 vhcurveto
          -68 vlineto
          133 44 10 133 hvcurveto
          376 vlineto
          -37 callgsubr
          vhcurveto
          endchar
        </CharString>
        <CharString name="eogonek">
          -77 495 255 rmoveto
          -19 callsubr
          74 -196 -210 -15 -76 -188 -198 23 -64 207 30 34 1 2 31 vhcurveto
          -38 -36 -24 -39 -42 vvcurveto
          -39 23 -35 73 vhcurveto
          0 callsubr
          19 40 44 47 32 21 hvcurveto
          -98 callgsubr
          endchar
        </CharString>
        <CharString name="equal">
          -97 70 318 rmoveto
          -13 callgsubr
          -272 vmoveto
          -13 callgsubr
          endchar
        </CharString>
        <CharString name="estimated">
          81 162 323 rmoveto
          479 21 hlineto
          293 -14 59 -268 -30 callsubr
          -59 -293 -293 13 -59 269 219 45 31 177 11 vhcurveto
          -36 hlineto
          -161 -11 -40 -13 -178 hhcurveto
          -190 -16 6 291 -1 hvcurveto
          197 339 rmoveto
          180 16 -6 -299 hvcurveto
          -393 hlineto
          299 16 6 181 vhcurveto
          endchar
        </CharString>
        <CharString name="eth">
          -58 11 callsubr
          54 -4 59 -10 54 hvcurveto
          -14 76 -31 67 -34 49 72 12 rcurveline
          59 vlineto
          -108 -18 -25 28 -23 19 -14 13 rlinecurve
          -90 -4 hlineto
          17 -15 27 -24 28 -31 -81 -13 rcurveline
          -59 vlineto
          118 19 24 -33 22 -40 17 -48 rlinecurve
          -4 -2 rlineto
          15 -29 -41 9 -59 hhcurveto
          -192 -13 -70 -193 -33 callgsubr
        </CharString>
        <CharString name="exclam">
          -389 96 201 rmoveto
          -45 callsubr
          -16 -201 1 callsubr
        </CharString>
        <CharString name="exclam.case">
          -389 96 201 rmoveto
          -45 callsubr
          -16 -201 1 callsubr
        </CharString>
        <CharString name="exclam.ss02">
          157 397 -8 rmoveto
          194 158 158 194 194 -158 158 -194 -194 -158 -158 -194 -194 158 -158 194 hvcurveto
          45 vmoveto
          -169 -138 138 169 169 138 138 169 169 138 -138 -169 -169 -138 -138 -169 hvcurveto
          -20 231 rmoveto
          40 hlineto
          4 21 10 90 101 vvcurveto
          99 -68 -99 vlineto
          -101 10 -90 4 -21 vhcurveto
          -14 -159 rmoveto
          68 82 -68 hlineto
          endchar
        </CharString>
        <CharString name="exclamdbl">
          -178 96 201 rmoveto
          -45 callsubr
          210 hmoveto
          -45 callsubr
          -226 -201 rmoveto
          94 102 -94 hlineto
          210 -102 1 callsubr
        </CharString>
        <CharString name="exclamdown">
          -395 74 408 -24 callsubr
        </CharString>
        <CharString name="exclamdown.case">
          -389 74 586 -24 callsubr
        </CharString>
        <CharString name="f">
          -265 130 hmoveto
          -29 callgsubr
        </CharString>
        <CharString name="f_f">
          107 130 hmoveto
          -46 callgsubr
          372 -436 rmoveto
          -29 callgsubr
        </CharString>
        <CharString name="fi">
          -11 456 -28 callgsubr
          -326 -30 callgsubr
          329 -436 -50 callsubr
        </CharString>
        <CharString name="five">
          -17 82 84 rmoveto
          -74 vlineto
          -11 56 87 -7 63 hhcurveto
          214 48 60 162 130 -33 67 -195 -50 -63 -4 -5 -40 6 callgsubr
          65 72 5 41 hhcurveto
          159 36 -14 -113 -102 -31 -30 -151 -47 -81 5 7 -71 hvcurveto
          endchar
        </CharString>
        <CharString name="five.dnom">
          -274 49 53 -64 callgsubr
          endchar
        </CharString>
        <CharString name="five.numr">
          -274 49 361 -64 callgsubr
          endchar
        </CharString>
        <CharString name="five.tnum">
          24 104 84 rmoveto
          -74 vlineto
          -11 56 87 -7 62 hhcurveto
          215 48 60 162 130 -33 67 -196 -49 -64 -4 -5 -39 6 callgsubr
          64 72 5 41 hhcurveto
          160 36 -14 -113 -102 -32 -30 -150 -47 -82 5 7 -70 hvcurveto
          endchar
        </CharString>
        <CharString name="fiveeighths">
          265 177 hmoveto
          65 -39 callsubr
          -578 -327 -64 callgsubr
          655 -365 -95 callsubr
        </CharString>
        <CharString name="fl">
          -11 459 hmoveto
          81 743 -81 hlineto
          -329 -30 callgsubr
          endchar
        </CharString>
        <CharString name="florin">
          -252 390 674 rmoveto
          13 68 rlineto
          -171 -42 -8 -221 -49 hvcurveto
          -1 -3 rlineto
          -104 hlineto
          -14 -74 rlineto
          104 hlineto
          -104 -480 rlineto
          -69 -15 -25 -11 -108 hhcurveto
          -13 -67 rlineto
          166 46 5 203 43 hvcurveto
          91 419 rlineto
          132 hlineto
          14 74 rlineto
          -131 hlineto
          1 7 rlineto
          143 31 7 14 129 hhcurveto
          endchar
        </CharString>
        <CharString name="four">
          6 410 hmoveto
          86 159 101 80 -101 237 -68 hlineto
          -18 -237 rlineto
          -268 hlineto
          268 -1 callgsubr
        </CharString>
        <CharString name="four.dnom">
          -266 232 hmoveto
          -31 callgsubr
        </CharString>
        <CharString name="four.numr">
          -266 232 308 rmoveto
          -31 callgsubr
        </CharString>
        <CharString name="four.ss01">
          6 410 hmoveto
          86 158 101 81 -101 449 -115 hlineto
          -335 -455 rlineto
          -75 364 vlineto
          -274 81 rmoveto
          273 363 rlineto
          1 -363 hlineto
          endchar
        </CharString>
        <CharString name="four.tnum">
          24 418 hmoveto
          85 159 102 80 -102 237 -67 hlineto
          -18 -237 rlineto
          -269 hlineto
          269 -1 callgsubr
        </CharString>
        <CharString name="fraction">
          -494 -186 hmoveto
          65 -39 callsubr
          endchar
        </CharString>
        <CharString name="g">
          -46 273 -206 -100 callsubr
        </CharString>
        <CharString name="g_tilde.loclGUA">
          -46 476 744 -106 callgsubr
          -203 -950 -100 callsubr
        </CharString>
        <CharString name="gbreve">
          -46 434 743 -102 callsubr
          -161 -949 -100 callsubr
        </CharString>
        <CharString name="gcaron">
          -46 253 601 -96 callgsubr
          122 -943 -100 callsubr
        </CharString>
        <CharString name="gcircumflex">
          -46 151 601 -106 callsubr
          122 -814 -100 callsubr
        </CharString>
        <CharString name="gcommaaccent">
          -46 363 -12 callgsubr
          -90 -973 -100 callsubr
        </CharString>
        <CharString name="gdotaccent">
          -46 257 -28 callsubr
          16 -936 -100 callsubr
        </CharString>
        <CharString name="germandbls">
          -29 335 hmoveto
          178 30 67 174 131 -43 49 -82 14 hvcurveto
          4 vlineto
          80 13 36 41 81 vvcurveto
          115 -44 61 -174 -175 -54 -68 -141 vhcurveto
          -541 80 528 vlineto
          129 45 19 98 113 29 -22 -88 -72 -33 -23 -100 vhcurveto
          -31 -75 31 hlineto
          111 31 -25 -132 -155 -16 -10 -130 hvcurveto
          -54 -74 hlineto
          endchar
        </CharString>
        <CharString name="grave">
          -408 149 602 -88 callsubr
          endchar
        </CharString>
        <CharString name="gravecomb">
          -80 602 -88 callsubr
          endchar
        </CharString>
        <CharString name="gravecomb.case">
          -80 747 -88 callsubr
          endchar
        </CharString>
        <CharString name="greater">
          -96 70 44 rmoveto
          400 167 rlineto
          83 3 callsubr
          -135 rlineto
          endchar
        </CharString>
        <CharString name="greaterequal">
          -96 70 173 rmoveto
          400 168 rlineto
          82 3 callsubr
          -134 rlineto
          -249 vmoveto
          -13 callgsubr
          endchar
        </CharString>
        <CharString name="guillemotleft">
          -163 179 99 3 callgsubr
          -132 -206 rlineto
          300 -205 3 callgsubr
          -133 -206 rlineto
          endchar
        </CharString>
        <CharString name="guillemotright">
          -163 69 99 -10 callsubr
          54 -205 -10 callsubr
          endchar
        </CharString>
        <CharString name="guilsinglleft">
          -331 178 99 rmoveto
          58 hlineto
          -113 205 113 206 rlineto
          -58 hlineto
          -132 -206 rlineto
          endchar
        </CharString>
        <CharString name="guilsinglright">
          -331 69 99 rmoveto
          59 hlineto
          132 205 -132 206 rlineto
          -59 hlineto
          114 -206 rlineto
          endchar
        </CharString>
        <CharString name="h">
          -38 callsubr
          endchar
        </CharString>
        <CharString name="hbar">
          -38 338 517 rmoveto
          -102 -43 -30 -44 -20 hvcurveto
          -5 172 136 73 -136 55 -81 -55 -67 -73 67 -615 81 263 hlineto
          111 6 65 131 110 17 -15 -137 vhcurveto
          -287 81 319 vlineto
          136 -24 62 -151 vhcurveto
          endchar
        </CharString>
        <CharString name="hcircumflex">
          -38 -18 779 -106 callsubr
          450 -786 rmoveto
          81 319 hlineto
          136 -24 62 -151 -102 -43 -30 -44 -20 vhcurveto
          -5 300 -81 -743 81 263 hlineto
          111 6 65 131 110 17 -15 -137 vhcurveto
          endchar
        </CharString>
        <CharString name="hookabovecomb">
          -202 607 -103 callgsubr
          endchar
        </CharString>
        <CharString name="hookabovecomb.case">
          -202 731 -94 callgsubr
          endchar
        </CharString>
        <CharString name="house">
          107 55 hmoveto
          634 hlineto
          1 414 -286 281 rlineto
          -64 hlineto
          -285 -281 rlineto
          64 -355 rmoveto
          333 vlineto
          253 248 254 -248 -1 -333 rlineto
          endchar
        </CharString>
        <CharString name="hungarumlaut">
          -231 20 607 -80 callgsubr
          endchar
        </CharString>
        <CharString name="hyphen">
          4 callgsubr
        </CharString>
        <CharString name="i">
          -9 callsubr
          endchar
        </CharString>
        <CharString name="i.loclTRK">
          -383 88 -28 callsubr
          -1 -730 -50 callsubr
        </CharString>
        <CharString name="iacute">
          -383 86 602 -98 callsubr
          1 -607 -50 callsubr
        </CharString>
        <CharString name="iacute_j.loclNLD">
          -129 90 602 -98 callsubr
          254 -5 -98 callsubr
          -257 -607 -49 callgsubr
          158 -710 -74 callsubr
        </CharString>
        <CharString name="ibreve">
          -383 265 743 -102 callsubr
          -178 -743 -50 callsubr
        </CharString>
        <CharString name="icircumflex">
          -383 -17 601 -106 callsubr
          104 -608 -50 callsubr
        </CharString>
        <CharString name="idieresis">
          -383 -5 647 -87 callsubr
          -97 -730 -50 callsubr
        </CharString>
        <CharString name="igrave">
          -383 109 602 -88 callsubr
          107 -738 -50 callsubr
        </CharString>
        <CharString name="ij">
          -129 4 callsubr
          254 -93 rmoveto
          86 93 -86 hlineto
          -251 -743 -49 callgsubr
          158 -710 -74 callsubr
        </CharString>
        <CharString name="imacron">
          -383 5 662 -61 callsubr
          82 -742 -50 callsubr
        </CharString>
        <CharString name="infinity">
          401 284 50 rmoveto
          141 56 63 75 38 hvcurveto
          -75 39 56 -63 142 hhcurveto
          181 37 73 133 131 -37 75 -181 -142 -56 -64 -74 -39 hvcurveto
          74 -38 -56 64 -141 hhcurveto
          -181 -39 -75 -131 -133 39 -73 181 hvcurveto
          2 66 rmoveto
          -131 -25 45 95 94 25 46 131 127 43 -69 -71 28 hvcurveto
          -71 -28 -43 -69 -127 hhcurveto
          468 hmoveto
          -127 -45 69 71 -26 hvcurveto
          71 26 45 69 127 hhcurveto
          130 23 -46 -94 -95 -23 -45 -130 hvcurveto
          endchar
        </CharString>
        <CharString name="integral">
          -243 55 -190 rmoveto
          135 63 7 114 9 0 10 -3 35 hvcurveto
          -39 547 rlineto
          -1 15 -1 19 8 vvcurveto
          46 25 9 92 vhcurveto
          67 vlineto
          -135 -64 -7 -114 -12 1 -12 1 -17 hvcurveto
          39 -545 rlineto
          3 -40 1 -10 -7 vvcurveto
          -46 -25 -9 -92 vhcurveto
          endchar
        </CharString>
        <CharString name="iogonek">
          -383 165 730 rmoveto
          -76 -83 76 hlineto
          -15 -786 rmoveto
          -34 -11 17 21 37 36 45 27 19 hvcurveto
          -36 callsubr
          -510 8 vlineto
          -36 -35 -25 -43 -42 vvcurveto
          -41 22 -35 73 11 11 -1 callsubr
          -6 hhcurveto
          endchar
        </CharString>
        <CharString name="itilde">
          -383 307 744 -106 callgsubr
          -220 -744 -50 callsubr
        </CharString>
        <CharString name="j">
          12 callgsubr
          -93 -943 -74 callsubr
        </CharString>
        <CharString name="jcircumflex">
          -383 -18 601 -106 callsubr
          9 -808 -74 callsubr
        </CharString>
        <CharString name="k">
          -40 callsubr
          448 -81 -743 81 220 64 hlineto
          endchar
        </CharString>
        <CharString name="kcommaaccent">
          -40 callsubr
          448 -81 -743 81 220 64 hlineto
          -20 -446 -85 callsubr
        </CharString>
        <CharString name="kgreenlandic">
          -40 callsubr
          215 -81 -510 81 220 64 hlineto
          endchar
        </CharString>
        <CharString name="l">
          -383 -14 callsubr
          endchar
        </CharString>
        <CharString name="lacute">
          -383 90 780 -98 callsubr
          -3 -785 rmoveto
          81 743 -81 hlineto
          endchar
        </CharString>
        <CharString name="lcaron">
          -383 -14 callsubr
          123 -301 -34 callgsubr
          endchar
        </CharString>
        <CharString name="lcommaaccent">
          -383 -14 callsubr
          -17 -969 -85 callsubr
        </CharString>
        <CharString name="ldot">
          -354 -14 callsubr
          136 -495 -80 callsubr
        </CharString>
        <CharString name="leftOpenDialog">
          -12 626 628 rmoveto
          60 -626 -688 626 60 -566 568 vlineto
          endchar
        </CharString>
        <CharString name="less">
          -96 471 44 rmoveto
          74 vlineto
          -334 135 334 134 rlineto
          75 vlineto
          -400 -168 rlineto
          -83 vlineto
          endchar
        </CharString>
        <CharString name="lessequal">
          -96 471 173 rmoveto
          75 vlineto
          -334 134 334 134 rlineto
          75 vlineto
          -401 -168 rlineto
          -82 vlineto
          -342 vmoveto
          401 71 -401 hlineto
          endchar
        </CharString>
        <CharString name="logicalnot">
          -98 403 52 rmoveto
          66 239 -399 -73 333 hlineto
          endchar
        </CharString>
        <CharString name="longs">
          -294 130 hmoveto
          81 601 -63 callgsubr
          endchar
        </CharString>
        <CharString name="lozenge">
          -97 231 hmoveto
          78 hlineto
          175 344 -175 344 rlineto
          -78 hlineto
          -175 -344 rlineto
          214 -284 rmoveto
          -148 284 148 283 148 -283 rlineto
          endchar
        </CharString>
        <CharString name="lslash">
          -378 89 hmoveto
          81 349 hlineto
          61 22 rlineto
          73 vlineto
          -61 -22 rlineto
          321 -81 -353 vlineto
          -60 -21 rlineto
          -72 vlineto
          60 20 rlineto
          endchar
        </CharString>
        <CharString name="m">
          246 715 hmoveto
          81 319 hlineto
          136 -23 63 -136 -95 -45 -32 -48 -19 vhcurveto
          -7 hlineto
          55 -17 -40 25 -90 hhcurveto
          -95 -41 -32 -48 -19 hvcurveto
          -41 callgsubr
          -510 81 263 hlineto
          112 6 64 116 97 14 -15 -137 vhcurveto
          -287 81 263 vlineto
          117 6 59 116 97 14 -15 -137 vhcurveto
          endchar
        </CharString>
        <CharString name="macron">
          -275 59 662 -61 callsubr
          endchar
        </CharString>
        <CharString name="minus">
          -97 70 217 rmoveto
          -13 callgsubr
          endchar
        </CharString>
        <CharString name="minute">
          -428 54 382 -14 callgsubr
          endchar
        </CharString>
        <CharString name="multiply">
          -155 241 202 rmoveto
          126 -125 47 51 -127 124 127 125 -46 50 -127 -125 -126 125 -47 -51 126 -124 -125 -124 46 -50 rlineto
          endchar
        </CharString>
        <CharString name="n">
          -38 432 hmoveto
          -85 callgsubr
        </CharString>
        <CharString name="nacute">
          -38 263 602 -98 callsubr
          169 -607 rmoveto
          -85 callgsubr
        </CharString>
        <CharString name="nacute.loclPLK">
          -38 263 602 -71 callsubr
          169 -607 rmoveto
          -85 callgsubr
        </CharString>
        <CharString name="napostrophe">
          10 -18 callsubr
          472 -581 rmoveto
          -85 callgsubr
        </CharString>
        <CharString name="ncaron">
          -38 257 601 -96 callgsubr
          277 -737 rmoveto
          -85 callgsubr
        </CharString>
        <CharString name="ncommaaccent">
          -38 432 hmoveto
          -84 callgsubr
          -189 -513 -85 callsubr
        </CharString>
        <CharString name="nine">
          20 303 -8 rmoveto
          140 73 22 82 35 hvcurveto
          24 56 6 81 118 vvcurveto
          111 -4 75 -18 52 vhcurveto
          95 -30 -75 12 -144 -55 callsubr
        </CharString>
        <CharString name="nine.dnom">
          -259 173 -4 -60 callgsubr
        </CharString>
        <CharString name="nine.numr">
          -259 173 304 -60 callgsubr
        </CharString>
        <CharString name="nine.ss01">
          20 203 hmoveto
          105 hlineto
          129 89 158 174 202 vvcurveto
          170 -54 61 -214 -213 -52 -68 -144 -148 41 -62 182 100 48 10 21 33 vhcurveto
          4 -1 -55 -123 -110 -103 -102 -72 rlinecurve
          125 347 rmoveto
          -134 -48 3 129 107 36 24 146 135 45 -10 -135 -98 -51 -20 -129 hvcurveto
          endchar
        </CharString>
        <CharString name="nine.tnum">
          24 309 -8 rmoveto
          136 73 21 72 34 hvcurveto
          28 60 7 83 123 vvcurveto
          117 -6 78 -20 56 vhcurveto
          83 -31 -75 11 -139 -55 callsubr
        </CharString>
        <CharString name="notequal">
          -97 233 117 rmoveto
          237 71 -206 hlineto
          62 130 rlineto
          144 71 -112 hlineto
          57 122 rlineto
          -59 hlineto
          -58 -122 rlineto
          -228 -71 197 hlineto
          -63 -130 rlineto
          -134 -71 104 hlineto
          -56 -118 rlineto
          59 hlineto
          endchar
        </CharString>
        <CharString name="ntilde">
          -38 481 743 -106 callgsubr
          -49 -743 rmoveto
          -85 callgsubr
        </CharString>
        <CharString name="numbersign">
          157 356 hmoveto
          61 hlineto
          44 190 rlineto
          134 64 -120 hlineto
          41 173 rlineto
          116 65 -102 hlineto
          47 196 rlineto
          -62 hlineto
          -46 -196 rlineto
          -173 hlineto
          46 196 rlineto
          -62 hlineto
          -46 -196 rlineto
          -130 -65 116 hlineto
          -41 -173 rlineto
          -112 -64 98 hlineto
          -44 -190 rlineto
          62 hlineto
          44 190 rlineto
          173 hlineto
          55 237 rmoveto
          -41 -173 rlineto
          -173 hlineto
          41 173 rlineto
          endchar
        </CharString>
        <CharString name="o">
          -60 289 -8 -101 callgsubr
        </CharString>
        <CharString name="oacute">
          -60 249 602 -98 callsubr
          40 -615 -101 callgsubr
        </CharString>
        <CharString name="oacute.loclPLK">
          -60 252 602 -71 callsubr
          37 -615 -101 callgsubr
        </CharString>
        <CharString name="obreve">
          -60 427 743 -102 callsubr
          -138 -751 -101 callgsubr
        </CharString>
        <CharString name="ocircumflex">
          -60 callsubr
          endchar
        </CharString>
        <CharString name="odieresis">
          -60 156 647 -87 callsubr
          -56 -738 -101 callgsubr
        </CharString>
        <CharString name="oe">
          291 862 255 rmoveto
          -19 callsubr
          74 -195 -101 -54 -18 -42 -30 vhcurveto
          45 -28 -54 15 -102 -52 callgsubr
          103 53 14 46 28 hvcurveto
          -44 32 56 -16 101 hhcurveto
          63 75 11 callgsubr
          -46 -69 -5 -48 hhcurveto
          -154 -11 27 133 hvcurveto
          348 hlineto
          -573 -160 -21 callsubr
          366 378 rmoveto
          100 29 -16 -132 hvcurveto
          -8 -270 vlineto
          132 15 24 126 vhcurveto
          endchar
        </CharString>
        <CharString name="ogonek">
          -503 134 -194 rmoveto
          -35 callgsubr
        </CharString>
        <CharString name="ograve">
          -60 275 602 -88 callsubr
          143 -746 -101 callgsubr
        </CharString>
        <CharString name="ohorn">
          -60 511 605 -90 callsubr
        </CharString>
        <CharString name="ohungarumlaut">
          -60 171 607 -80 callgsubr
          -74 -620 -101 callgsubr
        </CharString>
        <CharString name="omacron">
          -60 167 662 -61 callsubr
          122 -750 -101 callgsubr
        </CharString>
        <CharString name="one">
          -260 180 hmoveto
          86 688 -61 hlineto
          -167 -91 rlineto
          -83 vlineto
          142 68 rlineto
          endchar
        </CharString>
        <CharString name="one.dnom">
          -411 103 hmoveto
          1 callgsubr
        </CharString>
        <CharString name="one.numr">
          -411 103 308 rmoveto
          1 callgsubr
        </CharString>
        <CharString name="one.tnum">
          24 116 hmoveto
          468 80 -184 608 -60 hlineto
          -218 -104 rlineto
          -81 vlineto
          192 81 rlineto
          -504 -198 vlineto
          endchar
        </CharString>
        <CharString name="oneeighth">
          172 -51 callsubr
          -40 -612 rmoveto
          64 -39 callsubr
          67 -692 -95 callsubr
        </CharString>
        <CharString name="onehalf">
          148 -51 callsubr
          409 76 rmoveto
          -449 -688 rlineto
          64 hlineto
          450 688 rlineto
          -70 -611 rmoveto
          28 5 11 25 11 vhcurveto
          41 17 35 13 30 12 rrcurveto
          47 19 21 28 62 vvcurveto
          94 -58 6 -70 -37 -52 -4 -6 -39 vhcurveto
          -57 vlineto
          5 47 43 4 24 hhcurveto
          63 17 -5 -42 -31 -7 -11 -32 -13 hvcurveto
          -42 -17 -36 -15 -31 -14 rrcurveto
          -50 -22 -3 -22 -80 vvcurveto
          -48 263 59 -204 vlineto
          endchar
        </CharString>
        <CharString name="onequarter">
          69 -51 callsubr
          -40 -612 rmoveto
          64 -39 callsubr
          22 -688 rmoveto
          61 79 53 57 -53 124 -47 hlineto
          -13 -124 rlineto
          -126 hlineto
          140 236 rlineto
          -67 hlineto
          -141 -246 rlineto
          -47 193 vlineto
          endchar
        </CharString>
        <CharString name="ordfeminine">
          -229 162 314 rmoveto
          43 52 4 43 28 hvcurveto
          4 hlineto
          5 -43 rlineto
          59 233 hlineto
          105 -20 40 -134 -49 -50 -4 -6 -35 vhcurveto
          -57 vlineto
          5 32 49 3 30 hhcurveto
          99 13 -6 -79 hvcurveto
          -21 vlineto
          2 -45 -67 2 -22 hhcurveto
          -90 -22 -29 -82 -85 37 -25 83 hvcurveto
          23 54 rmoveto
          -67 -15 11 50 48 13 10 54 hvcurveto
          118 -18 hlineto
          -30 -3 -21 -8 -18 vhcurveto
          -29 -13 -37 -3 -42 hhcurveto
          endchar
        </CharString>
        <CharString name="ordmasculine">
          -215 211 314 rmoveto
          155 9 45 145 145 -9 47 -155 -155 -9 -47 -145 -145 9 -45 155 hvcurveto
          57 vmoveto
          -99 0 18 115 114 0 20 99 99 0 -20 -114 -115 0 -18 -99 hvcurveto
          endchar
        </CharString>
        <CharString name="orn.001">
          -300 289 341 rmoveto
          105 -6 17 -117 -112 -6 -17 -105 -102 6 -16 112 117 6 16 102 vhcurveto
          endchar
        </CharString>
        <CharString name="orn.002">
          -88 210 -53 callsubr
          63 101 -47 callgsubr
          121 87 -11 callsubr
          -29 -21 22 28 29 21 21 29 28 22 -21 -29 -28 -22 -22 -28 hvcurveto
          endchar
        </CharString>
        <CharString name="orn.003">
          -222 211 -53 callsubr
          63 101 -47 callgsubr
          63 101 -26 callgsubr
          endchar
        </CharString>
        <CharString name="orn.007">
          -300 168 222 rmoveto
          67 54 53 67 67 -54 54 -67 -67 -53 -54 -67 -67 53 -53 67 hvcurveto
          endchar
        </CharString>
        <CharString name="orn.010">
          157 397 hmoveto
          352 348 hlineto
          5 callgsubr
          -207 -145 -143 -205 -204 145 -144 207 vhcurveto
          endchar
        </CharString>
        <CharString name="orn.015">
          2 callsubr
          187 60 -187 hlineto
          187 -272 rmoveto
          213 212 rlineto
          167 60 -192 hlineto
          -188 -187 rlineto
          endchar
        </CharString>
        <CharString name="orn.016">
          2 callsubr
          567 60 -567 hlineto
          endchar
        </CharString>
        <CharString name="orn.017">
          -577 0 vmoveto
          60 688 -60 hlineto
          endchar
        </CharString>
        <CharString name="orn.018">
          155 211 -53 callsubr
          370 hmoveto
          99 62 67 110 126 vvcurveto
          125 -67 111 -99 62 vhcurveto
          -32 -51 rlineto
          82 -51 56 -92 -104 vvcurveto
          -105 -55 -91 -83 -52 vhcurveto
          -275 51 -47 callgsubr
          244 hmoveto
          65 41 44 73 83 vvcurveto
          83 -44 73 -66 41 vhcurveto
          -32 -51 rlineto
          49 -31 33 -54 -61 vvcurveto
          -62 -33 -53 -48 -31 vhcurveto
          -149 50 -26 callgsubr
          118 hmoveto
          -23 callgsubr
        </CharString>
        <CharString name="orn.019">
          -88 338 -50 callgsubr
          -89 36 -11 callsubr
          -28 -22 22 28 29 22 21 28 29 21 -21 -29 -28 -21 -22 -29 hvcurveto
          endchar
        </CharString>
        <CharString name="orn.020">
          -222 204 -50 callgsubr
          -31 50 rmoveto
          -23 callgsubr
        </CharString>
        <CharString name="orn.021">
          116 376 -116 rmoveto
          89 38 243 183 259 vvcurveto
          188 -149 144 -183 -183 -148 -144 -188 -259 243 -183 88 -38 vhcurveto
          endchar
        </CharString>
        <CharString name="orn.022">
          -248 171 220 rmoveto
          98 80 83 40 40 -80 83 -98 -81 -42 -55 -68 -68 42 -55 81 hvcurveto
          endchar
        </CharString>
        <CharString name="oslash">
          -60 462 483 -67 callsubr
        </CharString>
        <CharString name="oslashacute">
          -60 441 738 -66 callsubr
          150 -119 -67 callsubr
        </CharString>
        <CharString name="otilde">
          -60 469 743 -106 callgsubr
          -180 -751 -101 callgsubr
        </CharString>
        <CharString name="p">
          -46 87 -200 rmoveto
          81 264 -11 callgsubr
          -69 -70 -12 -68 -29 hvcurveto
          -41 callgsubr
          hlineto
          218 -439 rmoveto
          -68 -39 17 43 -18 hvcurveto
          -11 27 -1 41 56 vvcurveto
          54 1 42 13 32 vhcurveto
          39 16 39 18 68 -2 callsubr
        </CharString>
        <CharString name="paragraph">
          -49 309 -144 rmoveto
          62 832 -62 hlineto
          -233 -11 -31 -203 -203 11 -29 233 hvcurveto
          128 -366 rmoveto
          61 832 -61 hlineto
          endchar
        </CharString>
        <CharString name="parenleft">
          -329 227 -150 rmoveto
          61 hlineto
          -85 110 -44 50 287 vvcurveto
          285 44 51 85 110 vhcurveto
          -61 hlineto
          -109 -126 -38 -58 -262 vvcurveto
          -263 38 -54 109 -130 vhcurveto
          endchar
        </CharString>
        <CharString name="parenleft.ss02">
          -4 callsubr
          -204 145 -144 207 hvcurveto
          endchar
        </CharString>
        <CharString name="parenright">
          -329 20 -150 rmoveto
          61 hlineto
          109 130 38 54 263 vvcurveto
          262 -38 58 -109 126 vhcurveto
          -61 hlineto
          85 -110 44 -51 -285 vvcurveto
          -287 -44 -50 -85 -110 vhcurveto
          endchar
        </CharString>
        <CharString name="parenright.ss02">
          -240 0 vmoveto
          207 145 144 204 5 callgsubr
          hvcurveto
          endchar
        </CharString>
        <CharString name="partialdiff">
          -59 11 callsubr
          61 -4 53 -11 59 hvcurveto
          -22 124 -65 106 -89 69 rrcurveto
          -90 -4 hlineto
          84 -67 53 -75 35 -102 -4 -2 rcurveline
          17 -33 -47 7 -55 hhcurveto
          -186 -13 -71 -192 -33 callgsubr
        </CharString>
        <CharString name="percent">
          190 198 311 rmoveto
          133 7 37 155 154 -7 -2 callgsubr
          -42 -311 rmoveto
          65 hlineto
          449 688 rlineto
          -64 hlineto
          -408 -324 rmoveto
          -78 -6 2 137 137 6 3 78 81 2 -3 -137 -137 -6 -2 -77 hvcurveto
          432 -372 rmoveto
          133 8 37 155 154 -8 -2 callgsubr
          53 vmoveto
          -78 -5 2 137 137 5 3 78 81 2 -3 -137 -137 -5 -2 -78 hvcurveto
          endchar
        </CharString>
        <CharString name="period">
          -414 64 hmoveto
          0 callgsubr
          endchar
        </CharString>
        <CharString name="periodcentered">
          -414 64 248 -80 callsubr
        </CharString>
        <CharString name="perthousand">
          326 180 360 rmoveto
          116 5 callsubr
          -116 -116 -8 -35 -133 -134 8 -34 116 hvcurveto
          -107 -360 rmoveto
          66 hlineto
          461 688 rlineto
          -65 hlineto
          -355 -279 -16 callsubr
          314 -417 rmoveto
          116 5 callsubr
          -116 -117 -7 -35 -133 -134 7 -34 117 hvcurveto
          289 hmoveto
          117 5 callsubr
          -117 -116 -7 -35 -133 -134 7 -34 116 hvcurveto
          -289 49 -16 callsubr
          289 hmoveto
          -64 -6 2 117 117 6 2 64 68 2 -2 -117 -117 -5 -2 -65 hvcurveto
          endchar
        </CharString>
        <CharString name="pi">
          -46 424 hmoveto
          80 510 -417 -510 81 436 256 hlineto
          endchar
        </CharString>
        <CharString name="plus">
          -97 236 51 rmoveto
          66 166 -3 callgsubr
          endchar
        </CharString>
        <CharString name="plusminus">
          -97 236 184 rmoveto
          66 165 -3 callgsubr
          -166 -350 rmoveto
          -13 callgsubr
          endchar
        </CharString>
        <CharString name="product">
          95 546 -189 rmoveto
          86 877 -532 -877 85 797 361 hlineto
          endchar
        </CharString>
        <CharString name="q">
          -46 423 -200 rmoveto
          81 710 -73 hlineto
          -3 -72 rlineto
          -6 hlineto
          68 -30 -69 12 -69 hhcurveto
          -148 -41 -57 -207 -206 39 -56 147 82 57 16 56 28 hvcurveto
          5 hlineto
          -138 7 -6 callgsubr
          20 -37 callsubr
          17 21 122 66 38 -16 -34 16 hvcurveto
          17 -34 1 -43 -58 vvcurveto
          -55 -2 -40 -11 -29 vhcurveto
          -42 -17 -38 -18 -70 hhcurveto
          endchar
        </CharString>
        <CharString name="question">
          -56 callsubr
        </CharString>
        <CharString name="question.case">
          -56 callsubr
        </CharString>
        <CharString name="questiondown">
          -199 256 408 -54 callgsubr
        </CharString>
        <CharString name="questiondown.case">
          -133 266 586 -54 callgsubr
        </CharString>
        <CharString name="quotedbl">
          -289 2 callgsubr
          150 -172 rmoveto
          56 hlineto
          11 172 rlineto
          74 -78 -74 vlineto
          endchar
        </CharString>
        <CharString name="quotedblbase">
          -255 43 -79 -40 callgsubr
        </CharString>
        <CharString name="quotedblleft">
          -255 -15 callgsubr
          162 -81 rmoveto
          92 99 -38 17 hlineto
          51 10 11 49 vhcurveto
          40 vlineto
          -97 -16 -26 -111 hvcurveto
          endchar
        </CharString>
        <CharString name="quotedblright">
          -255 43 510 -40 callgsubr
        </CharString>
        <CharString name="quoteleft">
          -418 -15 callgsubr
          endchar
        </CharString>
        <CharString name="quoteright">
          -418 43 510 -45 callgsubr
          endchar
        </CharString>
        <CharString name="quotesinglbase">
          -418 43 -79 -45 callgsubr
          endchar
        </CharString>
        <CharString name="quotesingle">
          -428 2 callgsubr
          endchar
        </CharString>
        <CharString name="r">
          -25 callgsubr
          endchar
        </CharString>
        <CharString name="racute">
          -270 147 602 -98 callsubr
          -60 -607 rmoveto
          -73 callsubr
          endchar
        </CharString>
        <CharString name="radical">
          -21 284 -106 rmoveto
          87 hlineto
          228 876 rlineto
          -74 hlineto
          -204 -782 -172 345 -120 -56 18 -51 57 25 rlineto
          endchar
        </CharString>
        <CharString name="rcaron">
          -270 141 601 -96 callgsubr
          48 -737 rmoveto
          -73 callsubr
          endchar
        </CharString>
        <CharString name="rcommaaccent">
          -25 callgsubr
          -17 -736 -85 callsubr
        </CharString>
        <CharString name="registered">
          96 366 696 rmoveto
          6 callsubr
          7 callsubr
          hvcurveto
          -662 -21 callgsubr
          143 381 rmoveto
          61 -8 52 -101 vhcurveto
          -167 -370 54 142 91 hlineto
          8 8 0 2 8 hvcurveto
          55 -144 rlineto
          60 hlineto
          -63 152 rlineto
          48 16 7 46 43 vvcurveto
          -130 -65 rmoveto
          -92 128 99 hlineto
          63 6 -19 -45 -41 -5 -23 -71 hvcurveto
          endchar
        </CharString>
        <CharString name="rightCloseDialog">
          -14 624 688 rmoveto
          -625 -60 565 -568 -190 hlineto
          -188 -187 rlineto
          -85 vlineto
          213 212 rlineto
          225 hlineto
          -438 60 rmoveto
          -187 -60 187 hlineto
          endchar
        </CharString>
        <CharString name="rightOpenDialog">
          -13 625 688 rmoveto
          -626 -60 566 -568 -566 -60 626 hlineto
          endchar
        </CharString>
        <CharString name="ring">
          -333 151 602 -89 callsubr
          endchar
        </CharString>
        <CharString name="s">
          -61 callgsubr
          endchar
        </CharString>
        <CharString name="sacute">
          -138 213 602 -98 callsubr
          43 -615 -96 callsubr
          endchar
        </CharString>
        <CharString name="sacute.loclPLK">
          -138 213 602 -71 callsubr
          43 -615 -96 callsubr
          endchar
        </CharString>
        <CharString name="scaron">
          -138 210 601 -96 callgsubr
          148 -745 -96 callsubr
          endchar
        </CharString>
        <CharString name="scedilla">
          -138 444 144 rmoveto
          116 -30 18 -80 9 vhcurveto
          -138 16 rlineto
          -51 5 -11 7 56 vvcurveto
          69 41 4 79 55 54 -4 -8 52 vhcurveto
          72 vlineto
          8 -41 -67 6 -52 hhcurveto
          -123 -77 -14 -136 -88 20 -41 93 -11 hvcurveto
          133 -15 rlineto
          52 -6 13 -3 -62 vvcurveto
          -56 -12 -20 -102 -62 -56 4 7 -63 vhcurveto
          -72 vlineto
          40 -6 57 -4 50 -2 -60 -178 rcurveline
          9 callsubr
          110 3 57 26 123 vvcurveto
          endchar
        </CharString>
        <CharString name="scircumflex">
          -138 105 601 -106 callsubr
          151 -616 -96 callsubr
          endchar
        </CharString>
        <CharString name="scommaaccent">
          -61 callgsubr
          -63 -218 -85 callsubr
        </CharString>
        <CharString name="second">
          -271 54 382 -14 callgsubr
          136 -306 -14 callgsubr
          endchar
        </CharString>
        <CharString name="section">
          59 327 -171 rmoveto
          138 83 27 126 33 -1 34 -16 26 hvcurveto
          93 9 13 83 78 vvcurveto
          102 -42 25 -100 27 vhcurveto
          -191 56 rlineto
          -62 16 -11 10 61 vvcurveto
          70 47 4 125 56 65 -5 -2 22 vhcurveto
          74 vlineto
          2 -18 -72 11 -87 hhcurveto
          -137 -84 -28 -125 -34 0 -34 16 -26 hvcurveto
          -93 -10 -12 -82 -79 vvcurveto
          -101 42 -26 107 -28 vhcurveto
          195 -56 rlineto
          51 -14 11 -11 -59 vvcurveto
          -71 -47 -3 -125 -61 -60 5 2 -22 vhcurveto
          -74 vlineto
          -2 18 72 -11 87 hhcurveto
          168 302 rmoveto
          -14 -20 7 6 -25 hvcurveto
          -235 65 rlineto
          -51 13 -11 15 60 vvcurveto
          66 21 29 41 14 19 -7 -7 28 vhcurveto
          240 -65 rlineto
          44 -12 11 -15 -59 vvcurveto
          -66 -22 -30 -40 vhcurveto
          endchar
        </CharString>
        <CharString name="semicolon">
          13 callgsubr
          -21 -591 -15 callsubr
        </CharString>
        <CharString name="seven">
          -73 139 hmoveto
          96 hlineto
          280 615 rlineto
          73 -474 -81 379 vlineto
          endchar
        </CharString>
        <CharString name="seven.dnom">
          -307 78 hmoveto
          -20 callgsubr
          endchar
        </CharString>
        <CharString name="seven.numr">
          -307 78 308 rmoveto
          -20 callgsubr
          endchar
        </CharString>
        <CharString name="seven.tnum">
          24 191 hmoveto
          95 hlineto
          300 615 rlineto
          73 -513 -81 419 vlineto
          endchar
        </CharString>
        <CharString name="seveneighths">
          185 97 hmoveto
          65 -39 callsubr
          -469 -380 rmoveto
          -20 callgsubr
          388 -637 -95 callsubr
        </CharString>
        <CharString name="six">
          20 347 -8 rmoveto
          209 41 51 176 167 -65 27 -169 -130 -43 -27 -23 -21 hvcurveto
          -6 hlineto
          216 22 37 187 47 76 -6 -7 64 vhcurveto
          75 vlineto
          10 -68 -85 8 -52 hhcurveto
          -145 -73 -24 -92 -34 hvcurveto
          -20 -54 -5 -78 -111 vvcurveto
          -120 5 -79 19 -47 vhcurveto
          -88 34 75 -11 137 hhcurveto
          -8 80 rmoveto
          -134 -39 12 callsubr
          29 -9 -124 -116 -32 -12 -141 hvcurveto
          endchar
        </CharString>
        <CharString name="six.dnom">
          -259 201 -4 -59 callgsubr
        </CharString>
        <CharString name="six.numr">
          -259 201 304 -59 callgsubr
        </CharString>
        <CharString name="six.ss01">
          20 329 -8 rmoveto
          214 52 67 144 148 -42 62 -182 -100 -48 -9 -22 -32 hvcurveto
          -5 2 55 123 109 103 103 72 rlinecurve
          6 -106 vlineto
          -134 -93 -151 -175 -197 vvcurveto
          -171 53 -60 214 vhcurveto
          -1 80 rmoveto
          -134 -46 10 135 97 51 20 129 135 48 -2 -130 -107 -37 -23 -146 hvcurveto
          endchar
        </CharString>
        <CharString name="six.tnum">
          24 345 -8 rmoveto
          209 40 51 176 167 -65 27 -169 -120 -50 -24 -26 -23 hvcurveto
          -6 hlineto
          216 22 37 186 48 77 -6 -7 62 vhcurveto
          75 vlineto
          10 -66 -85 8 -54 hhcurveto
          -133 -73 -20 -73 -36 hvcurveto
          -28 -57 -7 -83 -126 vvcurveto
          -113 5 -76 17 -51 vhcurveto
          -93 32 74 -12 143 hhcurveto
          -8 80 rmoveto
          -135 -38 12 callsubr
          28 -9 -124 -116 -32 -12 -140 hvcurveto
          endchar
        </CharString>
        <CharString name="slash">
          -278 -4 -55 rmoveto
          74 hlineto
          292 798 rlineto
          -75 hlineto
          endchar
        </CharString>
        <CharString name="space">
          -402 endchar
        </CharString>
        <CharString name="sterling">
          -47 214 80 rmoveto
          236 242 79 -242 vlineto
          103 7 69 44 27 vhcurveto
          18 30 46 4 68 hhcurveto
          29 53 -5 -5 40 hvcurveto
          75 vlineto
          9 -33 -63 6 -52 hhcurveto
          -210 -45 -65 -236 hvcurveto
          -74 -79 74 -236 -74 -80 489 80 hlineto
          endchar
        </CharString>
        <CharString name="summation">
          70 87 -189 rmoveto
          532 80 -423 hlineto
          312 358 -312 359 rlineto
          423 80 -532 -76 hlineto
          315 -363 -315 -362 rlineto
          endchar
        </CharString>
        <CharString name="t">
          -278 129 hmoveto
          -42 callgsubr
          endchar
        </CharString>
        <CharString name="tbar">
          -278 333 285 rmoveto
          -123 151 122 74 -122 148 -81 -148 -103 -74 103 -151 -101 -73 101 -212 81 212 123 hlineto
          endchar
        </CharString>
        <CharString name="tcaron">
          -278 369 442 -34 callgsubr
          -254 -614 rmoveto
          -42 callgsubr
          endchar
        </CharString>
        <CharString name="thorn">
          -46 87 -189 rmoveto
          81 253 -11 callgsubr
          -77 -59 -15 -60 -28 hvcurveto
          -5 300 -81 hlineto
          218 -672 rmoveto
          -69 -39 18 46 -18 hvcurveto
          -10 25 -1 40 55 vvcurveto
          57 1 43 14 30 vhcurveto
          39 18 39 16 65 -2 callsubr
        </CharString>
        <CharString name="three">
          -35 264 -5 callgsubr
          75 17 43 -9 callgsubr
          77 6 55 hhcurveto
          133 52 -10 -105 -94 -57 -19 -68 hvcurveto
          -129 -80 129 hlineto
          97 35 -30 -90 -106 -63 -8 callgsubr
        </CharString>
        <CharString name="three.dnom">
          -286 155 -4 -73 callgsubr
          endchar
        </CharString>
        <CharString name="three.numr">
          -286 155 304 -73 callgsubr
          endchar
        </CharString>
        <CharString name="three.tnum">
          24 297 -5 callgsubr
          76 17 42 -9 callgsubr
          78 6 54 hhcurveto
          133 52 -10 -105 -94 -57 -19 -67 hvcurveto
          -130 -80 130 hlineto
          96 36 -30 -90 -106 -64 -8 callgsubr
        </CharString>
        <CharString name="threeeighths">
          253 155 304 -73 callgsubr
          10 -304 rmoveto
          65 -39 callsubr
          77 -692 -95 callsubr
        </CharString>
        <CharString name="threequarters">
          161 50 374 rmoveto
          -55 vlineto
          -6 35 48 -4 33 hhcurveto
          122 25 42 67 51 -23 -3 callsubr
          -32 -48 -5 -6 -35 vhcurveto
          -55 vlineto
          5 37 41 3 27 hhcurveto
          64 25 -7 -46 -45 -27 -9 -29 hvcurveto
          -76 -53 76 hlineto
          44 16 -15 -42 -48 -29 -6 -58 -23 -41 3 4 -49 hvcurveto
          115 -374 rmoveto
          65 -39 callsubr
          18 -688 rmoveto
          62 79 52 57 -52 124 -47 hlineto
          -13 -124 rlineto
          -127 hlineto
          140 236 rlineto
          -66 hlineto
          -142 -246 rlineto
          -47 193 vlineto
          endchar
        </CharString>
        <CharString name="tilde">
          -235 381 744 -106 callgsubr
          endchar
        </CharString>
        <CharString name="tildecomb">
          -21 744 -106 callgsubr
          endchar
        </CharString>
        <CharString name="tildecomb.case">
          -21 889 -106 callgsubr
          endchar
        </CharString>
        <CharString name="trademark">
          110 143 386 rmoveto
          46 257 98 45 -240 -45 96 hlineto
          197 -257 rmoveto
          43 222 4 hlineto
          100 -222 rlineto
          30 hlineto
          99 223 rlineto
          4 -223 44 302 -57 hlineto
          -101 -224 rlineto
          -5 hlineto
          -103 224 rlineto
          -58 hlineto
          endchar
        </CharString>
        <CharString name="two">
          -27 153 125 rmoveto
          38 2 22 8 20 vhcurveto
          7 15 14 11 24 -53 callgsubr
        </CharString>
        <CharString name="two.dnom">
          -280 100 72 -55 callgsubr
        </CharString>
        <CharString name="two.numr">
          -280 100 380 -55 callgsubr
        </CharString>
        <CharString name="two.tnum">
          24 179 125 rmoveto
          39 2 22 9 19 vhcurveto
          6 15 15 11 23 -53 callgsubr
        </CharString>
        <CharString name="u">
          -38 440 hmoveto
          73 -36 callsubr
          -101 callsubr
          endchar
        </CharString>
        <CharString name="uacute">
          -38 268 602 -98 callsubr
          172 -607 rmoveto
          73 -36 callsubr
          -101 callsubr
          endchar
        </CharString>
        <CharString name="ubreve">
          -38 438 743 -102 callsubr
          2 -743 rmoveto
          73 -36 callsubr
          -101 callsubr
          endchar
        </CharString>
        <CharString name="ucircumflex">
          -38 155 601 -106 callsubr
          285 -608 rmoveto
          73 -36 callsubr
          -101 callsubr
          endchar
        </CharString>
        <CharString name="udieresis">
          -38 166 647 -87 callsubr
          85 -730 rmoveto
          73 -36 callsubr
          -101 callsubr
          endchar
        </CharString>
        <CharString name="ugrave">
          -38 283 602 -88 callsubr
          286 -738 rmoveto
          73 -36 callsubr
          -101 callsubr
          endchar
        </CharString>
        <CharString name="uhorn">
          -38 554 605 -72 callsubr
          -66 -101 callsubr
          4 -72 rlineto
          73 469 hlineto
          84 3 16 26 83 vvcurveto
          24 vlineto
          endchar
        </CharString>
        <CharString name="uhungarumlaut">
          -38 182 607 -80 callgsubr
          66 -612 rmoveto
          73 -36 callsubr
          -101 callsubr
          endchar
        </CharString>
        <CharString name="umacron">
          -38 178 662 -61 callsubr
          262 -742 rmoveto
          73 -36 callsubr
          -101 callsubr
          endchar
        </CharString>
        <CharString name="underscore">
          -278 -172 10 callsubr
          endchar
        </CharString>
        <CharString name="underscoredbl">
          -278 -165 10 callsubr
          -180 10 callsubr
          endchar
        </CharString>
        <CharString name="uni00AD">
          4 callgsubr
        </CharString>
        <CharString name="uni00B2">
          -275 108 394 rmoveto
          -48 callsubr
          59 -204 vlineto
          endchar
        </CharString>
        <CharString name="uni00B3">
          -283 156 309 rmoveto
          122 24 42 67 51 -22 -3 callsubr
          -33 -47 -5 -6 -35 vhcurveto
          -55 -4 callgsubr
          -75 -53 75 hlineto
          45 16 -15 -42 -48 -29 -6 -59 -22 -41 3 4 -49 hvcurveto
          -55 vlineto
          -6 35 47 -4 34 hhcurveto
          endchar
        </CharString>
        <CharString name="uni00B5">
          -44 callgsubr
        </CharString>
        <CharString name="uni00B9">
          -396 -51 callsubr
          endchar
        </CharString>
        <CharString name="uni0162">
          -55 30 688 rmoveto
          -83 218 -605 13 7 callgsubr
          15 605 217 83 hlineto
          endchar
        </CharString>
        <CharString name="uni0163">
          -278 210 510 rmoveto
          148 -81 -148 -103 -74 103 -436 11 7 callgsubr
          12 436 122 74 hlineto
          endchar
        </CharString>
        <CharString name="uni018F">
          61 334 696 rmoveto
          -57 -75 -7 -10 -47 hvcurveto
          -77 vlineto
          8 42 66 6 49 hhcurveto
          193 28 -19 -210 2 hvcurveto
          -458 -43 hlineto
          -293 12 -59 259 260 13 59 293 295 -38 57 -249 vhcurveto
          14 -624 rmoveto
          -167 -17 5 230 -2 hvcurveto
          373 hlineto
          -230 -1 -18 -5 -168 hhcurveto
          endchar
        </CharString>
        <CharString name="uni019D">
          95 550 688 rmoveto
          -514 -4 vlineto
          -358 514 rlineto
          -88 -765 hlineto
          -42 -7 -13 -89 vhcurveto
          -68 vlineto
          134 45 10 133 hvcurveto
          583 4 vlineto
          363 -526 rlineto
          82 688 hlineto
          endchar
        </CharString>
        <CharString name="uni01C4">
          659 955 746 -96 callgsubr
          -753 -882 rmoveto
          -54 callsubr
        </CharString>
        <CharString name="uni01C5">
          560 909 601 -96 callgsubr
          -707 -737 rmoveto
          -76 callgsubr
          436 -80 rmoveto
          -81 callsubr
          endchar
        </CharString>
        <CharString name="uni01C6">
          462 -77 callsubr
          550 609 -96 callgsubr
          -59 -737 rmoveto
          -81 callsubr
          -358 1 rmoveto
          -72 callgsubr
          -7 callsubr
          endchar
        </CharString>
        <CharString name="uni01C7">
          256 100 hmoveto
          -39 callgsubr
          472 -612 -70 callgsubr
        </CharString>
        <CharString name="uni01C8">
          155 622 -28 callgsubr
          -522 -743 rmoveto
          -39 callgsubr
          429 -888 -74 callsubr
        </CharString>
        <CharString name="uni01C9">
          -129 -14 callsubr
          251 -93 rmoveto
          86 93 -86 hlineto
          -93 -943 -74 callsubr
        </CharString>
        <CharString name="uni01CA">
          450 550 hmoveto
          -79 callgsubr
          579 -450 -70 callgsubr
        </CharString>
        <CharString name="uni01CB">
          349 816 -28 callgsubr
          -266 -743 rmoveto
          -79 callgsubr
          536 -726 -74 callsubr
        </CharString>
        <CharString name="uni01CC">
          216 683 -28 callgsubr
          -251 -743 rmoveto
          -84 callgsubr
          158 -487 -74 callsubr
        </CharString>
        <CharString name="uni01CD">
          47 299 746 -96 callgsubr
          370 -882 -99 callsubr
        </CharString>
        <CharString name="uni01CD.ss01">
          72 312 746 -96 callgsubr
          321 -882 -102 callgsubr
        </CharString>
        <CharString name="uni01CE">
          -67 242 601 -96 callgsubr
          83 -745 -107 callsubr
        </CharString>
        <CharString name="uni01CF">
          -351 100 746 -96 callgsubr
          102 -882 -46 callsubr
        </CharString>
        <CharString name="uni01D0">
          -383 84 601 -96 callgsubr
          105 -737 -50 callsubr
        </CharString>
        <CharString name="uni01D1">
          81 316 746 -96 callgsubr
          145 -890 -104 callgsubr
          endchar
        </CharString>
        <CharString name="uni01D2">
          -60 246 601 -96 callgsubr
          145 -745 -101 callgsubr
        </CharString>
        <CharString name="uni01D3">
          72 312 746 -96 callgsubr
          321 -194 rmoveto
          -420 vlineto
          -99 callgsubr
          387 vlineto
          endchar
        </CharString>
        <CharString name="uni01D4">
          -38 257 601 -96 callgsubr
          285 -737 rmoveto
          73 -36 callsubr
          -101 callsubr
          endchar
        </CharString>
        <CharString name="uni01D5">
          72 235 934 -61 callsubr
          -13 -222 -36 callgsubr
          -187 rmoveto
          -420 vlineto
          -99 callgsubr
          387 vlineto
          endchar
        </CharString>
        <CharString name="uni01D6">
          -38 180 822 -61 callsubr
          -13 -255 -87 callsubr
          84 -730 rmoveto
          73 -36 callsubr
          -101 callsubr
          endchar
        </CharString>
        <CharString name="uni01D7">
          72 322 874 -98 callsubr
          -100 -87 -36 callgsubr
          -187 rmoveto
          -420 vlineto
          -99 callgsubr
          387 vlineto
          endchar
        </CharString>
        <CharString name="uni01D8">
          -38 265 762 -98 callsubr
          -98 -120 -87 callsubr
          84 -730 rmoveto
          73 -36 callsubr
          -101 callsubr
          endchar
        </CharString>
        <CharString name="uni01D9">
          72 314 873 -96 callgsubr
          10 -217 -36 callgsubr
          -187 rmoveto
          -420 vlineto
          -99 callgsubr
          387 vlineto
          endchar
        </CharString>
        <CharString name="uni01DA">
          -38 259 761 -96 callgsubr
          10 -250 -87 callsubr
          84 -730 rmoveto
          73 -36 callsubr
          -101 callsubr
          endchar
        </CharString>
        <CharString name="uni01DB">
          72 335 874 -88 callsubr
          16 -218 -36 callgsubr
          -187 rmoveto
          -420 vlineto
          -99 callgsubr
          387 vlineto
          endchar
        </CharString>
        <CharString name="uni01DC">
          -38 284 762 -88 callsubr
          12 -251 -87 callsubr
          84 -730 rmoveto
          73 -36 callsubr
          -101 callsubr
          endchar
        </CharString>
        <CharString name="uni01EA">
          81 497 -196 rmoveto
          10 11 1 1 18 hvcurveto
          56 vlineto
          -6 -6 -1 -6 hhcurveto
          -35 -11 18 20 45 42 53 48 26 hvcurveto
          74 43 5 92 186 vvcurveto
          293 -14 59 -268 -30 callsubr
          -59 -293 -293 13 -59 269 40 34 1 4 29 vhcurveto
          -38 -38 -23 -41 -39 vvcurveto
          -40 22 -35 74 vhcurveto
          -138 268 -70 callsubr
          endchar
        </CharString>
        <CharString name="uni01EB">
          -60 289 518 rmoveto
          -212 -12 -53 -210 -210 12 -53 212 27 23 1 2 20 hvcurveto
          -29 -35 -20 -41 -39 vvcurveto
          -41 22 -35 74 vhcurveto
          18 17 2 4 hhcurveto
          56 vlineto
          -4 -8 -1 -6 hhcurveto
          -35 -11 17 22 43 42 57 34 24 hvcurveto
          51 35 4 70 126 vvcurveto
          210 -12 53 -211 vhcurveto
          -452 vmoveto
          -64 callsubr
        </CharString>
        <CharString name="uni01F1">
          659 100 hmoveto
          -54 callsubr
        </CharString>
        <CharString name="uni01F2">
          560 100 hmoveto
          -76 callgsubr
          436 -80 rmoveto
          -81 callsubr
          endchar
        </CharString>
        <CharString name="uni01F3">
          462 -77 callsubr
          389 8 rmoveto
          -81 callsubr
          -358 1 rmoveto
          -72 callgsubr
          -7 callsubr
          endchar
        </CharString>
        <CharString name="uni01F4">
          40 304 747 -98 callsubr
          201 -458 -93 callsubr
          endchar
        </CharString>
        <CharString name="uni01F4.ss01">
          57 312 747 -98 callsubr
          57 -760 -94 callsubr
          endchar
        </CharString>
        <CharString name="uni01F5">
          -46 259 602 -98 callsubr
          14 -813 -100 callsubr
        </CharString>
        <CharString name="uni0200">
          47 285 752 -95 callgsubr
          142 -752 -99 callsubr
        </CharString>
        <CharString name="uni0200.ss01">
          72 298 752 -95 callgsubr
          93 -752 -102 callgsubr
        </CharString>
        <CharString name="uni0201">
          -67 228 607 -95 callgsubr
          -145 -615 -107 callsubr
        </CharString>
        <CharString name="uni0202">
          47 204 749 -87 callgsubr
          363 -749 -99 callsubr
        </CharString>
        <CharString name="uni0202.ss01">
          72 217 749 -87 callgsubr
          314 -749 -102 callgsubr
        </CharString>
        <CharString name="uni0203">
          -67 147 604 -87 callgsubr
          76 -612 -107 callsubr
        </CharString>
        <CharString name="uni0204">
          -33 267 752 -95 callgsubr
          -307 -752 rmoveto
          -91 callsubr
          endchar
        </CharString>
        <CharString name="uni0205">
          -77 223 607 -95 callgsubr
          132 -352 -105 callgsubr
          endchar
        </CharString>
        <CharString name="uni0206">
          -33 186 749 -87 callgsubr
          -86 -749 rmoveto
          -91 callsubr
          endchar
        </CharString>
        <CharString name="uni0207">
          -77 281 694 -43 callgsubr
          214 -439 -105 callgsubr
          endchar
        </CharString>
        <CharString name="uni0208">
          -351 86 752 -95 callgsubr
          -126 -752 -46 callsubr
        </CharString>
        <CharString name="uni0209">
          -383 70 607 -95 callgsubr
          -123 -607 -50 callsubr
        </CharString>
        <CharString name="uni020A">
          -351 5 749 -87 callgsubr
          95 -749 -46 callsubr
        </CharString>
        <CharString name="uni020B">
          -383 -11 604 -87 callgsubr
          98 -604 -50 callsubr
        </CharString>
        <CharString name="uni020C">
          81 302 752 -95 callgsubr
          -83 -760 -104 callgsubr
          endchar
        </CharString>
        <CharString name="uni020D">
          -60 232 607 -95 callgsubr
          -83 -615 -101 callgsubr
        </CharString>
        <CharString name="uni020E">
          81 221 749 -87 callgsubr
          138 -757 -104 callgsubr
          endchar
        </CharString>
        <CharString name="uni020F">
          -60 151 604 -87 callgsubr
          138 -612 -101 callgsubr
        </CharString>
        <CharString name="uni0210">
          45 284 752 -95 callgsubr
          194 -752 rmoveto
          -91 callgsubr
          endchar
        </CharString>
        <CharString name="uni0210.ss01">
          50 287 752 -95 callgsubr
          174 -581 -93 callgsubr
          endchar
        </CharString>
        <CharString name="uni0211">
          -270 127 607 -95 callgsubr
          -180 -607 rmoveto
          -73 callsubr
          endchar
        </CharString>
        <CharString name="uni0212">
          45 342 839 -43 callgsubr
          276 -839 rmoveto
          -91 callgsubr
          endchar
        </CharString>
        <CharString name="uni0212.ss01">
          50 345 839 -43 callgsubr
          256 -668 -93 callgsubr
          endchar
        </CharString>
        <CharString name="uni0213">
          -270 46 604 -87 callgsubr
          41 -604 rmoveto
          -73 callsubr
          endchar
        </CharString>
        <CharString name="uni0214">
          72 298 752 -95 callgsubr
          93 -64 rmoveto
          -420 vlineto
          -99 callgsubr
          387 vlineto
          endchar
        </CharString>
        <CharString name="uni0215">
          -38 243 607 -95 callgsubr
          57 -607 rmoveto
          73 -36 callsubr
          -101 callsubr
          endchar
        </CharString>
        <CharString name="uni0216">
          72 217 749 -87 callgsubr
          314 -61 rmoveto
          -420 vlineto
          -99 callgsubr
          387 vlineto
          endchar
        </CharString>
        <CharString name="uni0217">
          -38 162 604 -87 callgsubr
          278 -604 rmoveto
          73 -36 callsubr
          -101 callsubr
          endchar
        </CharString>
        <CharString name="uni021A">
          -55 248 hmoveto
          -29 callsubr
          -14 -831 -85 callsubr
        </CharString>
        <CharString name="uni021B">
          -278 129 hmoveto
          -42 callgsubr
          -16 -662 -85 callsubr
        </CharString>
        <CharString name="uni0232">
          -27 183 807 -61 callsubr
          78 -887 rmoveto
          -83 callgsubr
          endchar
        </CharString>
        <CharString name="uni0232.loclGUA">
          -27 426 887 10 callgsubr
          56 -119 -92 callsubr
          endchar
        </CharString>
        <CharString name="uni0233">
          -38 178 662 -61 callsubr
          105 -948 -97 callsubr
          endchar
        </CharString>
        <CharString name="uni0233.loclGUA">
          -107 400 742 10 callgsubr
          20 -152 -84 callsubr
        </CharString>
        <CharString name="uni0237">
          -383 -9 -200 -74 callsubr
        </CharString>
        <CharString name="uni0259">
          -77 265 518 rmoveto
          -62 -76 -6 -8 -42 hvcurveto
          -71 vlineto
          6 47 68 5 48 hhcurveto
          154 12 -27 -133 hvcurveto
          -349 -29 hlineto
          -189 9 -74 196 210 15 76 188 198 -23 64 -207 vhcurveto
          7 -452 rmoveto
          -100 -29 16 132 hvcurveto
          8 271 vlineto
          -132 -1 -15 -24 -126 hhcurveto
          endchar
        </CharString>
        <CharString name="uni0272">
          -38 -9 -200 rmoveto
          133 44 10 133 hvcurveto
          321 vlineto
          110 6 65 131 110 17 -15 -137 vhcurveto
          -287 81 319 vlineto
          -37 callgsubr
          -27 callgsubr
          vhcurveto
          -41 callgsubr
          -587 hlineto
          -42 -8 -13 -88 vhcurveto
          endchar
        </CharString>
        <CharString name="uni02BC">
          -503 -18 callsubr
          endchar
        </CharString>
        <CharString name="uni02C9">
          -275 59 662 -61 callsubr
          endchar
        </CharString>
        <CharString name="uni0302">
          -310 601 -106 callsubr
          endchar
        </CharString>
        <CharString name="uni0302.case">
          -310 746 -106 callsubr
          endchar
        </CharString>
        <CharString name="uni03020300">
          -78 762 -78 callgsubr
          endchar
        </CharString>
        <CharString name="uni03020300.case">
          -78 907 -78 callgsubr
          endchar
        </CharString>
        <CharString name="uni03020301">
          -117 762 -81 callgsubr
          endchar
        </CharString>
        <CharString name="uni03020301.case">
          -117 907 -81 callgsubr
          endchar
        </CharString>
        <CharString name="uni03020303">
          17 917 -106 callgsubr
          -327 -316 -106 callsubr
          endchar
        </CharString>
        <CharString name="uni03020303.case">
          17 -63 callsubr
          -327 -316 -106 callsubr
          endchar
        </CharString>
        <CharString name="uni03020309">
          -127 754 -103 callgsubr
          -183 -162 -106 callsubr
          endchar
        </CharString>
        <CharString name="uni03020309.case">
          -127 899 -103 callgsubr
          -183 -162 -106 callsubr
          endchar
        </CharString>
        <CharString name="uni0304">
          -303 662 -61 callsubr
          endchar
        </CharString>
        <CharString name="uni0304.case">
          -303 807 -61 callsubr
          endchar
        </CharString>
        <CharString name="uni0306">
          -20 743 -102 callsubr
          endchar
        </CharString>
        <CharString name="uni0306.case">
          -20 888 -102 callsubr
          endchar
        </CharString>
        <CharString name="uni03060300">
          -174 775 -88 callsubr
          283 -168 -102 callsubr
          endchar
        </CharString>
        <CharString name="uni03060300.case">
          -174 920 -88 callsubr
          283 -168 -102 callsubr
          endchar
        </CharString>
        <CharString name="uni03060301">
          -194 775 -98 callsubr
          174 -37 -102 callsubr
          endchar
        </CharString>
        <CharString name="uni03060301.case">
          -194 920 -98 callsubr
          174 -37 -102 callsubr
          endchar
        </CharString>
        <CharString name="uni03060303">
          24 -58 callsubr
          endchar
        </CharString>
        <CharString name="uni03060303.case">
          24 -76 callsubr
          endchar
        </CharString>
        <CharString name="uni03060309">
          -208 743 -103 callgsubr
          188 -9 -102 callsubr
          endchar
        </CharString>
        <CharString name="uni03060309.case">
          -208 888 -103 callgsubr
          188 -9 -102 callsubr
          endchar
        </CharString>
        <CharString name="uni0307">
          -97 -28 callsubr
          endchar
        </CharString>
        <CharString name="uni0307.case">
          -97 -34 callsubr
          endchar
        </CharString>
        <CharString name="uni0308">
          -285 647 -87 callsubr
          endchar
        </CharString>
        <CharString name="uni0308.case">
          -285 792 -87 callsubr
          endchar
        </CharString>
        <CharString name="uni030A">
          -153 602 -89 callsubr
          endchar
        </CharString>
        <CharString name="uni030A.case">
          -153 717 -89 callsubr
          endchar
        </CharString>
        <CharString name="uni030B">
          -386 607 -80 callgsubr
          endchar
        </CharString>
        <CharString name="uni030B.case">
          -386 752 -80 callgsubr
          endchar
        </CharString>
        <CharString name="uni030C">
          -208 601 -96 callgsubr
          endchar
        </CharString>
        <CharString name="uni030C.case">
          -208 746 -96 callgsubr
          endchar
        </CharString>
        <CharString name="uni030F">
          -212 607 -95 callgsubr
          endchar
        </CharString>
        <CharString name="uni030F.case">
          -212 752 -95 callgsubr
          endchar
        </CharString>
        <CharString name="uni0311">
          -296 604 -87 callgsubr
          endchar
        </CharString>
        <CharString name="uni0311.case">
          -296 749 -87 callgsubr
          endchar
        </CharString>
        <CharString name="uni0312">
          -308 -12 callgsubr
          endchar
        </CharString>
        <CharString name="uni031B">
          -219 510 rmoveto
          -66 -41 66 hlineto
          97 18 24 88 hvcurveto
          24 -59 -32 vlineto
          -49 -6 -14 -50 vhcurveto
          endchar
        </CharString>
        <CharString name="uni0326">
          -176 -226 -85 callsubr
        </CharString>
        <CharString name="uni0327">
          -141 -7 callgsubr
        </CharString>
        <CharString name="uni0328">
          -194 vmoveto
          -35 callgsubr
        </CharString>
        <CharString name="uni0335">
          -295 311 rmoveto
          264 75 -264 hlineto
          endchar
        </CharString>
        <CharString name="uni0336">
          -100 480 rmoveto
          75 -532 -75 vlineto
          endchar
        </CharString>
        <CharString name="uni0394">
          -26 callsubr
        </CharString>
        <CharString name="uni03A9">
          -62 callsubr
        </CharString>
        <CharString name="uni03BC">
          -44 callgsubr
        </CharString>
        <CharString name="uni1E0C">
          52 100 hmoveto
          -76 callgsubr
          -7 -245 -80 callsubr
        </CharString>
        <CharString name="uni1E0D">
          -46 -77 callsubr
          31 78 rmoveto
          -72 callgsubr
          -7 callsubr
          -36 -235 -80 callsubr
        </CharString>
        <CharString name="uni1E24">
          95 547 hmoveto
          -33 callsubr
          -228 -470 -80 callsubr
        </CharString>
        <CharString name="uni1E25">
          -38 callsubr
          -179 -452 -80 callsubr
        </CharString>
        <CharString name="uni1E44">
          95 327 -34 callsubr
          223 -875 rmoveto
          -79 callgsubr
          endchar
        </CharString>
        <CharString name="uni1E45">
          -38 261 -28 callsubr
          171 -730 rmoveto
          -85 callgsubr
        </CharString>
        <CharString name="uni1E5A">
          -49 callsubr
          -86 -515 -80 callsubr
        </CharString>
        <CharString name="uni1E5A.ss01">
          -56 callgsubr
          -88 -518 -80 callsubr
        </CharString>
        <CharString name="uni1E5B">
          -25 callgsubr
          -7 -675 -80 callsubr
        </CharString>
        <CharString name="uni1E62">
          -65 callgsubr
          -61 -157 -80 callsubr
        </CharString>
        <CharString name="uni1E63">
          -61 callgsubr
          -53 -157 -80 callsubr
        </CharString>
        <CharString name="uni1E6C">
          -55 248 hmoveto
          -29 callsubr
          -4 -770 -80 callsubr
        </CharString>
        <CharString name="uni1E6D">
          -278 129 hmoveto
          -42 callgsubr
          -6 -601 -80 callsubr
        </CharString>
        <CharString name="uni1E92">
          -30 54 hmoveto
          -75 callsubr
          203 -241 -80 callsubr
        </CharString>
        <CharString name="uni1E93">
          -129 52 hmoveto
          -81 callsubr
          155 -234 -80 callsubr
        </CharString>
        <CharString name="uni1E9E">
          79 449 375 rmoveto
          -21 hlineto
          170 215 rlineto
          69 vlineto
          20 -60 -98 17 -96 hhcurveto
          -208 -44 -63 -291 hvcurveto
          -342 85 342 vlineto
          247 15 27 172 46 45 -4 -12 50 vhcurveto
          -179 -226 rlineto
          -66 112 vlineto
          87 32 -30 -89 -91 -33 -26 -115 -37 -60 5 7 -48 hvcurveto
          -74 vlineto
          -10 39 65 -8 46 hhcurveto
          165 65 60 130 143 -58 50 -137 hvcurveto
          endchar
        </CharString>
        <CharString name="uni1EA0">
          47 567 hmoveto
          -103 callsubr
          -43 -760 -80 callsubr
        </CharString>
        <CharString name="uni1EA0.ss01">
          72 531 hmoveto
          -105 callsubr
          -223 -585 -80 callsubr
        </CharString>
        <CharString name="uni1EA1">
          -67 223 -8 -107 callgsubr
          -16 -230 -80 callsubr
        </CharString>
        <CharString name="uni1EA2">
          47 289 731 -94 callgsubr
          278 -740 -99 callsubr
        </CharString>
        <CharString name="uni1EA2.ss01">
          72 302 731 -94 callgsubr
          229 -740 -102 callgsubr
        </CharString>
        <CharString name="uni1EA3">
          -67 232 607 -103 callgsubr
          -9 -624 -107 callsubr
        </CharString>
        <CharString name="uni1EA4">
          47 387 907 -81 callgsubr
          373 -753 -99 callsubr
        </CharString>
        <CharString name="uni1EA4.ss01">
          72 400 907 -81 callgsubr
          324 -753 -102 callgsubr
        </CharString>
        <CharString name="uni1EA5">
          -67 330 762 -81 callgsubr
          86 -616 -107 callsubr
        </CharString>
        <CharString name="uni1EA6">
          47 426 907 -78 callgsubr
          373 -753 -99 callsubr
        </CharString>
        <CharString name="uni1EA6.ss01">
          72 439 907 -78 callgsubr
          324 -753 -102 callgsubr
        </CharString>
        <CharString name="uni1EA7">
          -67 369 762 -78 callgsubr
          86 -616 -107 callsubr
        </CharString>
        <CharString name="uni1EA8">
          47 380 899 -103 callgsubr
          -183 -162 -106 callsubr
          370 -753 -99 callsubr
        </CharString>
        <CharString name="uni1EA8.ss01">
          72 393 899 -103 callgsubr
          -183 -162 -106 callsubr
          321 -753 -102 callgsubr
        </CharString>
        <CharString name="uni1EA9">
          -67 323 754 -103 callgsubr
          -183 -162 -106 callsubr
          83 -616 -107 callsubr
        </CharString>
        <CharString name="uni1EAA">
          47 522 -63 callsubr
          -327 -316 -106 callsubr
          372 -753 -99 callsubr
        </CharString>
        <CharString name="uni1EAA.ss01">
          72 535 -63 callsubr
          -327 -316 -106 callsubr
          323 -753 -102 callgsubr
        </CharString>
        <CharString name="uni1EAB">
          -67 465 917 -106 callgsubr
          -327 -316 -106 callsubr
          85 -616 -107 callsubr
        </CharString>
        <CharString name="uni1EAC">
          47 197 746 -106 callsubr
          370 -753 rmoveto
          -103 callsubr
          -43 -760 -80 callsubr
        </CharString>
        <CharString name="uni1EAC.ss01">
          72 210 746 -106 callsubr
          321 -753 rmoveto
          -105 callsubr
          -223 -585 -80 callsubr
        </CharString>
        <CharString name="uni1EAD">
          -67 140 601 -106 callsubr
          83 -616 -107 callgsubr
          -16 -230 -80 callsubr
        </CharString>
        <CharString name="uni1EAE">
          47 305 920 -98 callsubr
          174 -37 -102 callsubr
          88 -71 callgsubr
        </CharString>
        <CharString name="uni1EAE.ss01">
          72 318 920 -98 callsubr
          174 -37 -102 callsubr
          39 -74 callgsubr
        </CharString>
        <CharString name="uni1EAF">
          -67 241 775 -98 callsubr
          174 -37 -102 callsubr
          -192 -92 callgsubr
        </CharString>
        <CharString name="uni1EB0">
          47 331 920 -88 callsubr
          283 -168 -102 callsubr
          82 -71 callgsubr
        </CharString>
        <CharString name="uni1EB0.ss01">
          72 344 920 -88 callsubr
          283 -168 -102 callsubr
          33 -74 callgsubr
        </CharString>
        <CharString name="uni1EB1">
          -67 274 775 -88 callsubr
          283 -168 -102 callsubr
          -205 -92 callgsubr
        </CharString>
        <CharString name="uni1EB2">
          47 292 888 -103 callgsubr
          188 -9 -102 callsubr
          87 -71 callgsubr
        </CharString>
        <CharString name="uni1EB2.ss01">
          72 304 871 -94 callgsubr
          189 8 -102 callsubr
          38 -74 callgsubr
        </CharString>
        <CharString name="uni1EB3">
          -67 235 743 -103 callgsubr
          188 -9 -102 callsubr
          -200 -92 callgsubr
        </CharString>
        <CharString name="uni1EB4">
          47 522 -76 callsubr
          89 -71 callgsubr
        </CharString>
        <CharString name="uni1EB4.ss01">
          72 535 -76 callsubr
          40 -74 callgsubr
        </CharString>
        <CharString name="uni1EB5">
          -67 465 -58 callsubr
          -198 -92 callgsubr
        </CharString>
        <CharString name="uni1EB6">
          -57 callgsubr
          -43 -760 -80 callsubr
        </CharString>
        <CharString name="uni1EB6.ss01">
          -58 callgsubr
          -223 -585 -80 callsubr
        </CharString>
        <CharString name="uni1EB7">
          -67 423 743 -102 callsubr
          -200 -751 -107 callgsubr
          -16 -230 -80 callsubr
        </CharString>
        <CharString name="uni1EB8">
          -33 100 hmoveto
          -91 callsubr
          177 -853 -80 callsubr
        </CharString>
        <CharString name="uni1EB9">
          -77 495 255 -105 callgsubr
          -55 -609 -80 callsubr
        </CharString>
        <CharString name="uni1EBA">
          -33 271 731 -94 callgsubr
          -171 -740 rmoveto
          -91 callsubr
          endchar
        </CharString>
        <CharString name="uni1EBB">
          -77 346 719 -83 callsubr
          149 -464 -105 callgsubr
          endchar
        </CharString>
        <CharString name="uni1EBC">
          -33 504 889 -106 callgsubr
          -404 -889 rmoveto
          -91 callsubr
          endchar
        </CharString>
        <CharString name="uni1EBD">
          -77 177 669 -90 callgsubr
          318 -414 -105 callgsubr
          endchar
        </CharString>
        <CharString name="uni1EBE">
          -33 369 907 -81 callgsubr
          -76 -753 rmoveto
          -91 callsubr
          endchar
        </CharString>
        <CharString name="uni1EBF">
          -77 426 903 rmoveto
          -101 -136 rlineto
          -5 60 vlineto
          129 136 rlineto
          5 vlineto
          -238 -206 -66 callgsubr
          102 -83 rmoveto
          -210 -15 -76 -188 -198 23 -64 207 62 76 11 callgsubr
          -47 -68 -5 -48 hhcurveto
          -154 -12 27 133 hvcurveto
          349 29 hlineto
          -19 callsubr
          74 -196 vhcurveto
          -2 -74 rmoveto
          100 29 -16 -132 hvcurveto
          -8 -271 vlineto
          132 1 15 24 126 hhcurveto
          endchar
        </CharString>
        <CharString name="uni1EC0">
          -33 408 907 -78 callgsubr
          -76 -753 rmoveto
          -91 callsubr
          endchar
        </CharString>
        <CharString name="uni1EC1">
          -77 424 762 -62 callgsubr
          -88 -65 -66 callgsubr
          307 -346 -105 callgsubr
          endchar
        </CharString>
        <CharString name="uni1EC2">
          -33 362 899 -103 callgsubr
          -183 -162 -106 callsubr
          -79 -753 rmoveto
          -91 callsubr
          endchar
        </CharString>
        <CharString name="uni1EC3">
          -77 437 866 -83 callsubr
          -158 -169 -66 callgsubr
          304 -346 -105 callgsubr
          endchar
        </CharString>
        <CharString name="uni1EC4">
          -33 504 -63 callsubr
          -327 -316 -106 callsubr
          -77 -753 rmoveto
          -91 callsubr
          endchar
        </CharString>
        <CharString name="uni1EC5">
          -77 177 842 -90 callgsubr
          58 -99 rmoveto
          -102 -135 rlineto
          -7 56 vlineto
          88 96 89 -96 rlineto
          56 7 hlineto
          -102 135 rlineto
          175 -488 -105 callgsubr
          endchar
        </CharString>
        <CharString name="uni1EC6">
          -33 179 746 -106 callsubr
          -79 -753 rmoveto
          -91 callsubr
          177 -853 -80 callsubr
        </CharString>
        <CharString name="uni1EC7">
          -77 279 -16 callgsubr
          304 -346 -105 callgsubr
          -55 -609 -80 callsubr
        </CharString>
        <CharString name="uni1EC8">
          -351 90 731 -94 callgsubr
          10 -740 -46 callsubr
        </CharString>
        <CharString name="uni1EC9">
          -383 74 607 -103 callgsubr
          13 -616 -50 callsubr
        </CharString>
        <CharString name="uni1ECA">
          -351 100 hmoveto
          86 688 -86 hlineto
          -4 -853 -80 callsubr
        </CharString>
        <CharString name="uni1ECB">
          -9 callsubr
          -23 -675 -80 callsubr
        </CharString>
        <CharString name="uni1ECC">
          81 359 -8 -104 callgsubr
          -47 -237 -80 callsubr
        </CharString>
        <CharString name="uni1ECD">
          -60 289 -8 -104 callsubr
          -47 -231 -80 callsubr
        </CharString>
        <CharString name="uni1ECE">
          81 306 731 -94 callgsubr
          53 -748 -104 callgsubr
          endchar
        </CharString>
        <CharString name="uni1ECF">
          -60 236 607 -103 callgsubr
          53 -624 -101 callgsubr
        </CharString>
        <CharString name="uni1ED0">
          81 404 907 -81 callgsubr
          148 -761 -104 callgsubr
          endchar
        </CharString>
        <CharString name="uni1ED1">
          -60 334 762 -81 callgsubr
          148 -78 callsubr
        </CharString>
        <CharString name="uni1ED2">
          81 443 907 -78 callgsubr
          148 -761 -104 callgsubr
          endchar
        </CharString>
        <CharString name="uni1ED3">
          -60 373 762 -78 callgsubr
          148 -78 callsubr
        </CharString>
        <CharString name="uni1ED4">
          81 397 899 -103 callgsubr
          -183 -162 -106 callsubr
          145 -761 -104 callgsubr
          endchar
        </CharString>
        <CharString name="uni1ED5">
          -60 327 754 -103 callgsubr
          -183 -162 -106 callsubr
          145 -78 callsubr
        </CharString>
        <CharString name="uni1ED6">
          81 539 -63 callsubr
          -327 -316 -106 callsubr
          147 -761 -104 callgsubr
          endchar
        </CharString>
        <CharString name="uni1ED7">
          -60 469 917 -106 callgsubr
          -327 -316 -106 callsubr
          147 -78 callsubr
        </CharString>
        <CharString name="uni1ED8">
          81 214 746 -106 callsubr
          145 -761 -104 callgsubr
          -47 -237 -80 callsubr
        </CharString>
        <CharString name="uni1ED9">
          -60 callsubr
          -47 -231 -80 callsubr
        </CharString>
        <CharString name="uni1EDA">
          81 513 883 -66 callsubr
          221 36 -89 callgsubr
        </CharString>
        <CharString name="uni1EDB">
          -60 441 738 -66 callsubr
          199 3 -90 callsubr
        </CharString>
        <CharString name="uni1EDC">
          81 397 747 -62 callgsubr
          268 36 -89 callgsubr
        </CharString>
        <CharString name="uni1EDD">
          -60 331 602 -62 callgsubr
          240 3 -90 callsubr
        </CharString>
        <CharString name="uni1EDE">
          81 425 -67 callgsubr
          180 -60 -89 callgsubr
        </CharString>
        <CharString name="uni1EDF">
          -60 355 719 -83 callsubr
          156 -114 -90 callsubr
        </CharString>
        <CharString name="uni1EE0">
          81 256 814 -90 callgsubr
          349 -31 -89 callgsubr
        </CharString>
        <CharString name="uni1EE1">
          -60 186 669 -90 callgsubr
          325 -64 -90 callsubr
        </CharString>
        <CharString name="uni1EE2">
          81 605 783 -88 callgsubr
          -47 -237 -80 callsubr
        </CharString>
        <CharString name="uni1EE3">
          -60 511 605 -72 callsubr
          -58 hlineto
          6 -28 -36 2 -44 -52 callgsubr
          211 12 53 210 109 -3 66 -33 39 hvcurveto
          79 4 15 27 81 vvcurveto
          24 vlineto
          -281 -539 -21 callsubr
          -47 -231 -80 callsubr
        </CharString>
        <CharString name="uni1EE4">
          72 531 688 rmoveto
          -420 vlineto
          -99 callgsubr
          387 vlineto
          -309 -853 -80 callsubr
        </CharString>
        <CharString name="uni1EE5">
          -38 440 hmoveto
          73 -36 callsubr
          -101 callsubr
          -204 -237 -80 callsubr
        </CharString>
        <CharString name="uni1EE6">
          72 302 731 -94 callgsubr
          229 -52 rmoveto
          -420 vlineto
          -99 callgsubr
          387 vlineto
          endchar
        </CharString>
        <CharString name="uni1EE7">
          -38 247 607 -103 callgsubr
          193 -616 rmoveto
          73 -36 callsubr
          -101 callsubr
          endchar
        </CharString>
        <CharString name="uni1EE8">
          72 509 883 -66 callsubr
          284 36 -72 callsubr
          -77 -420 hlineto
          -99 callgsubr
          346 vlineto
          89 2 17 25 85 vvcurveto
          24 vlineto
          endchar
        </CharString>
        <CharString name="uni1EE9">
          -38 452 738 -66 callsubr
          231 3 -72 callsubr
          -66 -101 callsubr
          4 -72 rlineto
          73 469 hlineto
          84 3 16 26 83 vvcurveto
          24 vlineto
          endchar
        </CharString>
        <CharString name="uni1EEA">
          72 393 747 -62 callgsubr
          331 36 -72 callsubr
          -77 -420 hlineto
          -99 callgsubr
          346 vlineto
          89 2 17 25 85 vvcurveto
          24 vlineto
          endchar
        </CharString>
        <CharString name="uni1EEB">
          -38 342 602 -62 callgsubr
          272 3 -72 callsubr
          -66 -101 callsubr
          4 -72 rlineto
          73 469 hlineto
          84 3 16 26 83 vvcurveto
          24 vlineto
          endchar
        </CharString>
        <CharString name="uni1EEC">
          72 421 -67 callgsubr
          243 -60 -72 callsubr
          -77 -420 hlineto
          -99 callgsubr
          346 vlineto
          89 2 17 25 85 vvcurveto
          24 vlineto
          endchar
        </CharString>
        <CharString name="uni1EED">
          -38 366 719 -83 callsubr
          188 -114 -72 callsubr
          -66 -101 callsubr
          4 -72 rlineto
          73 469 hlineto
          84 3 16 26 83 vvcurveto
          24 vlineto
          endchar
        </CharString>
        <CharString name="uni1EEE">
          72 252 814 -90 callgsubr
          412 -31 -72 callsubr
          -77 -420 hlineto
          -99 callgsubr
          346 vlineto
          89 2 17 25 85 vvcurveto
          24 vlineto
          endchar
        </CharString>
        <CharString name="uni1EEF">
          -38 197 669 -90 callgsubr
          357 -64 -72 callsubr
          -66 -101 callsubr
          4 -72 rlineto
          73 469 hlineto
          84 3 16 26 83 vvcurveto
          24 vlineto
          endchar
        </CharString>
        <CharString name="uni1EF0">
          72 664 783 -72 callsubr
          -77 -420 hlineto
          -99 callgsubr
          346 vlineto
          89 2 17 25 85 vvcurveto
          24 vlineto
          -415 -948 -80 callsubr
        </CharString>
        <CharString name="uni1EF1">
          -38 554 605 -72 callsubr
          -66 -101 callsubr
          4 -72 rlineto
          73 469 hlineto
          84 3 16 26 83 vvcurveto
          24 vlineto
          -381 -770 -80 callsubr
        </CharString>
        <CharString name="uni1EF4">
          -27 261 hmoveto
          -83 callgsubr
          -3 -425 -80 callsubr
        </CharString>
        <CharString name="uni1EF4.loclGUA">
          -27 482 688 -92 callsubr
          -311 -853 -80 callsubr
        </CharString>
        <CharString name="uni1EF5">
          -38 283 -206 -97 callsubr
          -47 -165 -80 callsubr
        </CharString>
        <CharString name="uni1EF5.loclGUA">
          -107 247 -189 rmoveto
          256 699 rlineto
          -83 hlineto
          -150 -420 rlineto
          -7 hlineto
          -151 420 rlineto
          -85 hlineto
          188 -510 rlineto
          17 hlineto
          -68 -189 rlineto
          64 -165 -80 callsubr
        </CharString>
        <CharString name="uni1EF6">
          -27 252 731 -94 callgsubr
          9 -740 rmoveto
          -83 callgsubr
          endchar
        </CharString>
        <CharString name="uni1EF6.loclGUA">
          -27 370 -67 callgsubr
          112 -155 -92 callsubr
          endchar
        </CharString>
        <CharString name="uni1EF7">
          -38 247 607 -103 callgsubr
          36 -822 -97 callsubr
          endchar
        </CharString>
        <CharString name="uni1EF7.loclGUA">
          -107 344 719 -83 callsubr
          76 -209 -84 callsubr
        </CharString>
        <CharString name="uni1EF8">
          -27 485 889 -106 callgsubr
          -224 -889 rmoveto
          -83 callgsubr
          endchar
        </CharString>
        <CharString name="uni1EF8.loclGUA">
          -27 201 814 -90 callgsubr
          281 -126 -92 callsubr
          endchar
        </CharString>
        <CharString name="uni1EF9">
          -38 480 744 -106 callgsubr
          -197 -950 -97 callsubr
          endchar
        </CharString>
        <CharString name="uni1EF9.loclGUA">
          -107 175 669 -90 callgsubr
          245 -159 -84 callsubr
        </CharString>
        <CharString name="uni2002">
          -337 endchar
        </CharString>
        <CharString name="uni20B2">
          -22 343 381 rmoveto
          157 vlineto
          41 65 -7 -9 62 hvcurveto
          75 vlineto
          -46 10 -66 8 -56 2 rrcurveto
          79 -63 -79 vlineto
          -165 -6 -38 -54 -213 vvcurveto
          -215 40 -53 163 -5 vhcurveto
          -79 63 79 vlineto
          177 5 15 49 172 vvcurveto
          84 vlineto
          -373 -37 rmoveto
          164 15 25 103 4 vhcurveto
          -386 vlineto
          -102 4 -16 28 161 vvcurveto
          288 -67 rmoveto
          -103 -5 -20 -102 -3 vhcurveto
          152 107 vlineto
          endchar
        </CharString>
        <CharString name="uni2113">
          -161 185 186 rmoveto
          138 70 89 153 140 vvcurveto
          88 -46 56 -82 -142 -51 -125 -240 -33 1 -30 2 -28 vhcurveto
          -20 -4 -21 -4 -21 -1 rrcurveto
          -81 vlineto
          24 2 24 3 23 5 rrcurveto
          -118 22 51 -45 89 hhcurveto
          51 43 17 27 45 hvcurveto
          88 vlineto
          -39 -61 -36 -13 -36 hhcurveto
          -46 -28 24 88 -12 hvcurveto
          92 427 rmoveto
          37 18 -22 -41 -101 -59 -112 -95 -62 hvcurveto
          -1 18 0 20 22 vvcurveto
          187 25 91 75 vhcurveto
          endchar
        </CharString>
        <CharString name="uni2116">
          431 860 -22 callgsubr
          -310 -397 rmoveto
          -79 callgsubr
          673 -81 rmoveto
          -6 callsubr
          -122 -228 rmoveto
          240 71 -240 hlineto
          endchar
        </CharString>
        <CharString name="uni2126">
          -62 callsubr
        </CharString>
        <CharString name="uni2153">
          151 -51 callsubr
          -40 -612 rmoveto
          64 -39 callsubr
          -60 -631 rmoveto
          -54 vlineto
          -6 35 47 -5 33 hhcurveto
          123 24 42 67 51 -23 24 -30 12 hvcurveto
          4 vlineto
          29 13 19 25 46 vvcurveto
          70 -33 33 -108 -32 -47 -4 -6 -35 vhcurveto
          -56 vlineto
          5 36 41 3 27 hhcurveto
          64 25 -7 -46 -45 -26 -9 -30 hvcurveto
          -76 -53 76 hlineto
          45 15 -14 -43 -48 -29 -6 -58 -23 -41 3 4 -48 hvcurveto
          endchar
        </CharString>
        <CharString name="uni2154">
          220 313 377 rmoveto
          -204 17 hlineto
          -48 callsubr
          vlineto
          303 370 rmoveto
          -450 -688 rlineto
          65 hlineto
          450 688 rlineto
          56 -500 rmoveto
          4 vlineto
          30 13 19 25 46 vvcurveto
          70 -34 33 -107 -33 -47 -4 -6 -35 vhcurveto
          -56 -4 callgsubr
          -76 -53 76 hlineto
          45 16 -14 -43 -48 -30 -6 -58 -22 -41 3 4 -49 hvcurveto
          -54 vlineto
          -6 35 47 -5 34 hhcurveto
          122 24 42 67 51 -22 24 -31 12 hvcurveto
          endchar
        </CharString>
        <CharString name="uni2206">
          -26 callsubr
        </CharString>
        <CharString name="uniA78B">
          8 callgsubr
          178 -79 vlineto
          endchar
        </CharString>
        <CharString name="uniA78C">
          8 callgsubr
          233 -79 vlineto
          endchar
        </CharString>
        <CharString name="uniF8FF">
          204 72 hmoveto
          697 698 -697 hlineto
          546 -316 rmoveto
          -66 vlineto
          -100 -72 -81 -124 -125 -73 81 100 vhcurveto
          66 vlineto
          100 73 81 125 124 72 -81 -100 vhcurveto
          -135 -92 rmoveto
          118 vlineto
          33 -27 27 -34 -35 -27 -27 -33 vhcurveto
          -118 vlineto
          -33 27 -27 35 34 27 27 33 vhcurveto
          endchar
        </CharString>
        <CharString name="uogonek">
          -38 496 -139 rmoveto
          -34 -12 17 21 37 36 45 27 19 hvcurveto
          -36 callsubr
          -263 vlineto
          -100 callgsubr
          4 -72 rlineto
          -35 -35 -26 -43 -42 vvcurveto
          -41 22 -35 74 18 7 1 1 14 vhcurveto
          56 vlineto
          -4 -7 -1 -7 hhcurveto
          endchar
        </CharString>
        <CharString name="uring">
          -38 299 602 -89 callsubr
          141 -647 rmoveto
          73 -36 callsubr
          -101 callsubr
          endchar
        </CharString>
        <CharString name="utilde">
          -38 480 744 -106 callgsubr
          -40 -744 rmoveto
          73 -36 callsubr
          -101 callsubr
          endchar
        </CharString>
        <CharString name="v">
          -107 215 hmoveto
          101 hlineto
          187 510 rlineto
          -83 hlineto
          -150 -420 rlineto
          -7 hlineto
          -151 420 rlineto
          -85 hlineto
          endchar
        </CharString>
        <CharString name="w">
          180 529 hmoveto
          -82 callgsubr
        </CharString>
        <CharString name="wacute">
          180 372 602 -98 callsubr
          157 -607 rmoveto
          -82 callgsubr
        </CharString>
        <CharString name="wcircumflex">
          180 264 601 -106 callsubr
          265 -608 rmoveto
          -82 callgsubr
        </CharString>
        <CharString name="wdieresis">
          180 276 647 -87 callsubr
          64 -730 rmoveto
          -82 callgsubr
        </CharString>
        <CharString name="wgrave">
          180 391 602 -88 callsubr
          267 -738 rmoveto
          -82 callgsubr
        </CharString>
        <CharString name="x">
          -90 423 hmoveto
          93 hlineto
          -193 260 186 250 rlineto
          -90 hlineto
          -142 -185 rlineto
          -5 hlineto
          -142 185 rlineto
          -93 hlineto
          186 -251 -193 -259 rlineto
          90 hlineto
          148 194 rlineto
          6 hlineto
          endchar
        </CharString>
        <CharString name="y">
          -38 283 -206 -97 callsubr
          endchar
        </CharString>
        <CharString name="y.loclGUA">
          -107 420 510 -84 callsubr
        </CharString>
        <CharString name="yacute">
          -38 266 602 -98 callsubr
          17 -813 -97 callsubr
          endchar
        </CharString>
        <CharString name="yacute.loclGUA">
          -107 430 738 -66 callsubr
          119 -92 -84 callsubr
        </CharString>
        <CharString name="ycircumflex">
          -38 155 601 -106 callsubr
          128 -814 -97 callsubr
          endchar
        </CharString>
        <CharString name="ycircumflex.loclGUA">
          -107 277 -16 callgsubr
          231 -91 -84 callsubr
        </CharString>
        <CharString name="ydieresis">
          -38 168 647 -87 callsubr
          -74 -936 -97 callsubr
          endchar
        </CharString>
        <CharString name="ydieresis.loclGUA">
          -107 222 730 -19 callgsubr
          10 -137 -84 callsubr
        </CharString>
        <CharString name="yen">
          -13 268 hmoveto
          86 236 203 58 -184 hlineto
          62 102 rlineto
          122 59 -92 hlineto
          126 233 rlineto
          -88 hlineto
          -187 -346 rlineto
          -7 hlineto
          -186 346 rlineto
          -91 hlineto
          126 -233 rlineto
          -93 -59 122 hlineto
          62 -102 rlineto
          -184 -58 203 hlineto
          endchar
        </CharString>
        <CharString name="yen.bold">
          -13 591 688 rmoveto
          -88 hlineto
          -130 -241 rlineto
          -120 hlineto
          -130 241 rlineto
          -91 hlineto
          133 -241 rlineto
          -100 -58 132 hlineto
          52 -94 rlineto
          -184 -58 203 -237 86 237 203 58 -184 hlineto
          52 94 rlineto
          132 58 -100 hlineto
          -141 -105 rmoveto
          -7 hlineto
          -25 47 rlineto
          57 hlineto
          endchar
        </CharString>
        <CharString name="ygrave">
          -38 282 602 -88 callsubr
          130 -944 -97 callsubr
          endchar
        </CharString>
        <CharString name="ygrave.loclGUA">
          -107 320 602 -62 callgsubr
          160 -92 -84 callsubr
        </CharString>
        <CharString name="z">
          -129 52 hmoveto
          -81 callsubr
          endchar
        </CharString>
        <CharString name="zacute">
          -129 217 602 -98 callsubr
          -165 -607 rmoveto
          -81 callsubr
          endchar
        </CharString>
        <CharString name="zacute.loclPLK">
          -129 217 602 -71 callsubr
          -165 -607 rmoveto
          -81 callsubr
          endchar
        </CharString>
        <CharString name="zcaron">
          -129 218 601 -96 callgsubr
          -64 -737 rmoveto
          -81 callsubr
          endchar
        </CharString>
        <CharString name="zdotaccent">
          -129 215 -28 callsubr
          -163 -730 rmoveto
          -81 callsubr
          endchar
        </CharString>
        <CharString name="zero">
          35 336 -8 rmoveto
          251 8 59 293 293 -9 59 -250 -251 -8 -59 -293 -293 8 -59 251 -17 callsubr
          -168 -6 6 266 266 6 6 168 167 6 -6 -266 -266 -6 -6 -167 hvcurveto
          endchar
        </CharString>
        <CharString name="zero.dnom">
          -248 194 -4 -44 callsubr
        </CharString>
        <CharString name="zero.numr">
          -248 194 304 -44 callsubr
        </CharString>
        <CharString name="zero.tnum">
          -25 callsubr
          80 vmoveto
          -162 -5 6 266 267 5 5 162 163 4 -7 -265 -267 -4 -5 -163 hvcurveto
          endchar
        </CharString>
        <CharString name="zero.zero">
          -25 callsubr
          -167 391 rmoveto
          226 11 7 156 155 11 -7 -226 1 vhcurveto
          -167 -311 rmoveto
          -156 -11 5 229 hvcurveto
          334 hlineto
          -229 -1 -10 -5 -156 hhcurveto
          endchar
        </CharString>
      <CharString index="0">
        rmoveto
        64 82 8 71 31 hvcurveto
        6 hlineto
        4 -71 rlineto
        73 319 hlineto
        148 -28 51 -181 -68 -66 -5 -9 -51 vhcurveto
        -71 vlineto
        5 34 77 6 45 hhcurveto
        134 23 -8 -116 hvcurveto
        -30 vlineto
        2 -65 -97 3 -29 -23 callsubr
        -34 -40 -115 -115 56 -33 112 hvcurveto
        31 73 rmoveto
        -99 -20 13 70 73 18 11 79 hvcurveto
        170 -23 hlineto
        -43 -6 -31 -15 -26 vhcurveto
        -38 -21 -49 -6 -57 hhcurveto
        return
      </CharString>
      <CharString index="1">
        rmoveto
        -47 hlineto
        -40 -2 -14 -29 -27 -32 10 9 -32 vhcurveto
        11 -38 -41 13 -40 hhcurveto
        -66 -7 -38 -79 hvcurveto
        47 hlineto
        40 2 13 29 27 32 -9 -10 32 vhcurveto
        -11 39 40 -12 40 hhcurveto
        66 7 37 80 hvcurveto
        return
      </CharString>
      <CharString index="2">
        rmoveto
        -19 callsubr
        74 -196 -210 -15 -76 -188 -198 23 -64 207 62 76 -17 callgsubr
        vhcurveto
        -98 callgsubr
        return
      </CharString>
      <CharString index="3">
        rmoveto
        268 14 59 293 293 -14 59 -268 -30 callsubr
        -59 -293 -293 13 -59 269 -17 callsubr
        -184 -13 5 267 267 13 5 184 183 13 -5 -267 -267 -13 -5 -183 hvcurveto
        return
      </CharString>
      <CharString index="4">
        rmoveto
        49 hlineto
        23 2 2 39 11 vhcurveto
        24 7 rlineto
        50 14 12 15 47 vvcurveto
        71 -44 8 -87 -34 -50 -3 -5 -32 vhcurveto
        -46 vlineto
        3 32 46 2 24 hhcurveto
        64 24 1 -38 -23 -6 -6 -46 -11 hvcurveto
        -69 callgsubr
        return
      </CharString>
      <CharString index="5">
        rmoveto
        -105 callsubr
        endchar
      </CharString>
      <CharString index="6">
        -104 callsubr
        endchar
      </CharString>
      <CharString index="7">
        -111 -7 -65 -131 -110 -16 15 137 vhcurveto
        287 -81 -319 vlineto
        -136 24 -63 150 104 44 32 48 21 vhcurveto
        6 hlineto
        return
      </CharString>
      <CharString index="8">
        -164 -8 -32 -168 -168 -10 32 164 vhcurveto
        420 -85 -387 vlineto
        -249 27 -60 236 236 26 60 249 vhcurveto
        return
      </CharString>
      <CharString index="9">
        71 vlineto
        -6 -47 -68 -5 -48 hhcurveto
        -154 -12 27 133 hvcurveto
        349 hlineto
        -207 218 rmoveto
        100 29 -16 -132 hvcurveto
        -8 -271 vlineto
        132 1 15 24 126 hhcurveto
        return
      </CharString>
      <CharString index="10">
        rmoveto
        138 94 13 192 50 -3 37 -11 28 hvcurveto
        -22 57 -49 11 -70 7 -168 19 rcurveline
        -75 8 -10 14 77 vvcurveto
        42 3 30 30 17 vhcurveto
        16 26 43 6 74 hhcurveto
        63 83 -5 -8 52 hvcurveto
        76 vlineto
        10 -47 -89 7 -77 hhcurveto
        -155 -92 -23 -171 -106 17 -63 129 -15 hvcurveto
        170 -19 rlineto
        87 -8 5 -14 -86 vvcurveto
        -44 -3 -36 -29 -18 vhcurveto
        -16 -30 -39 -5 -70 hhcurveto
        -54 -93 6 7 -70 hvcurveto
        -79 vlineto
        -8 68 99 -6 75 hhcurveto
        return
      </CharString>
      <CharString index="11">
        rmoveto
        85 hlineto
        102 136 rlineto
        6 -56 vlineto
        -89 -96 -88 96 rlineto
        -56 -6 hlineto
        return
      </CharString>
      <CharString index="12">
        rmoveto
        5 vlineto
        -97 126 rlineto
        -77 -5 hlineto
        121 -126 rlineto
        245 hmoveto
        5 vlineto
        -96 126 rlineto
        -77 -5 hlineto
        121 -126 rlineto
        return
      </CharString>
      <CharString index="13">
        rmoveto
        49 hlineto
        22 2 3 39 11 vhcurveto
        24 6 rlineto
        50 14 12 16 46 vvcurveto
        72 -44 7 -87 -34 -50 -3 -4 -32 vhcurveto
        -46 vlineto
        3 32 46 2 24 hhcurveto
        64 24 0 -37 -24 -6 -5 -46 -12 hvcurveto
        -51 callgsubr
        return
      </CharString>
      <CharString index="14">
        rmoveto
        -6 103 -35 26 -70 15 rrcurveto
        4 vlineto
        77 18 41 41 123 vvcurveto
        123 -43 64 -144 vhcurveto
        -321 -688 86 273 202 hlineto
        121 3 -53 -68 5 hvcurveto
        11 -152 rlineto
        84 hlineto
        -227 353 rmoveto
        -199 255 204 hlineto
        124 8 -41 -86 -83 -20 -45 -117 hvcurveto
        return
      </CharString>
      <CharString index="15">
        -751 -107 callsubr
      </CharString>
      <CharString index="16">
        -117 284 rlineto
        97 29 10 94 72 vvcurveto
        119 -19 90 -173 vhcurveto
        -316 -688 86 270 216 hlineto
        17 hlineto
        107 -270 rlineto
        -146 350 rmoveto
        -194 258 201 hlineto
        128 7 -40 -89 -87 -10 -42 -132 hvcurveto
        return
      </CharString>
      <CharString index="17">
        rmoveto
        27 32 -9 -10 32 hvcurveto
        -11 39 40 -12 40 hhcurveto
        66 7 37 80 hvcurveto
        -47 hlineto
        -40 -2 -14 -29 -27 -32 10 9 -32 vhcurveto
        11 -38 -41 13 -40 hhcurveto
        -66 -7 -38 -79 hvcurveto
        47 hlineto
        40 2 13 29 vhcurveto
        return
      </CharString>
      <CharString index="18">
        -88 callgsubr
        endchar
      </CharString>
      <CharString index="19">
        -72 callsubr
        -61 hlineto
        6 -34 -43 2 -52 hhcurveto
        -30 callsubr
        -59 -293 -293 13 -59 269 268 14 59 293 166 -4 91 -53 47 hvcurveto
        67 7 13 28 76 vvcurveto
        24 vlineto
        -305 -711 -70 callsubr
        return
      </CharString>
      <CharString index="20">
        rmoveto
        54 hlineto
        58 2 32 83 84 0 -32 -58 vhcurveto
        53 hlineto
        84 -7 61 -130 -131 -8 -61 -84 vhcurveto
        return
      </CharString>
      <CharString index="21">
        rmoveto
        71 vlineto
        -5 -35 -48 -5 -36 hhcurveto
        -127 -19 29 160 155 17 34 126 37 48 -5 -6 33 hvcurveto
        72 vlineto
        7 -34 -57 6 -47 hhcurveto
        -175 -29 -76 -187 -182 15 -81 192 48 57 6 7 34 hvcurveto
        endchar
      </CharString>
      <CharString index="22">
        -84 callgsubr
        endchar
      </CharString>
      <CharString index="23">
        81 319 hlineto
        -37 callgsubr
        -27 callgsubr
        vhcurveto
        -41 callgsubr
        -510 81 263 hlineto
        111 6 65 131 110 17 -15 -137 vhcurveto
        return
      </CharString>
      <CharString index="24">
        86 260 hlineto
        251 428 rlineto
        -90 hlineto
        -198 -335 rlineto
        -7 hlineto
        -199 335 rlineto
        -92 hlineto
        249 -428 rlineto
        return
      </CharString>
      <CharString index="25">
        94 hlineto
        163 510 rlineto
        -82 hlineto
        -124 -405 rlineto
        -7 hlineto
        -125 405 rlineto
        -77 hlineto
        -124 -405 rlineto
        -7 hlineto
        -125 405 rlineto
        -84 hlineto
        163 -510 rlineto
        94 hlineto
        116 365 rlineto
        7 hlineto
        endchar
      </CharString>
      <CharString index="26">
        -98 callsubr
        -193 -166 -106 callsubr
        return
      </CharString>
      <CharString index="27">
        rmoveto
        52 hlineto
        121 126 rlineto
        5 -77 vlineto
        -96 -126 rlineto
        192 -5 rmoveto
        53 hlineto
        121 126 rlineto
        5 -77 vlineto
        -97 -126 rlineto
        return
      </CharString>
      <CharString index="28">
        82 688 -82 -514 -4 hlineto
        -358 514 rlineto
        -88 -688 83 526 4 hlineto
        return
      </CharString>
      <CharString index="29">
        -88 callsubr
        -103 -297 -106 callsubr
        return
      </CharString>
      <CharString index="30">
        -27 callsubr
        25 164 -69 callsubr
        142 0 -25 -164 -68 callgsubr
        hvcurveto
        return
      </CharString>
      <CharString index="31">
        219 hlineto
        280 13 54 290 290 -13 54 -280 hvcurveto
        -219 hlineto
        86 -608 rmoveto
        528 119 vlineto
        208 14 -3 -261 -261 -11 -3 -211 hvcurveto
        return
      </CharString>
      <CharString index="32">
        rmoveto
        -19 callsubr
        73 -195 -96 -54 -16 -39 -31 vhcurveto
        40 -26 -52 15 -95 hhcurveto
        -76 -67 -7 -7 -42 hvcurveto
        -71 vlineto
        5 29 82 6 45 hhcurveto
        134 23 -8 -116 hvcurveto
        -29 vlineto
        -34 -104 2 -53 -23 callsubr
        -34 -39 -114 -115 59 -33 120 72 84 7 69 42 hvcurveto
        -56 28 55 -20 117 hhcurveto
        63 75 11 callgsubr
        -46 -69 -5 -48 hhcurveto
        -154 -11 28 134 hvcurveto
        348 hlineto
        -207 216 rmoveto
        100 29 -16 -132 hvcurveto
        -6 -270 vlineto
        130 15 24 126 vhcurveto
        -223 -235 rmoveto
        -40 -5 -28 -13 -25 vhcurveto
        -44 -21 -50 -7 -59 hhcurveto
        -99 -20 13 70 72 18 9 79 hvcurveto
        170 hlineto
        endchar
      </CharString>
      <CharString index="33">
        -888 -102 callgsubr
      </CharString>
      <CharString index="34">
        rmoveto
        126 27 36 69 62 -27 20 -45 9 hvcurveto
        2 vlineto
        44 9 24 25 55 vvcurveto
        71 -36 28 -112 -36 -51 -4 -5 -32 vhcurveto
        -49 vlineto
        4 32 43 2 31 hhcurveto
        73 27 -5 -51 -48 -30 -10 -37 hvcurveto
        -75 -50 75 hlineto
        52 19 -14 -47 -53 -34 -5 -65 -27 -47 3 3 -39 hvcurveto
        -48 vlineto
        -5 34 51 -4 35 hhcurveto
        return
      </CharString>
      <CharString index="35">
        -122 -17 20 165 163 17 21 120 71 39 -18 -42 16 hvcurveto
        12 -29 2 -40 -50 vvcurveto
        -59 -1 -41 -14 -34 vhcurveto
        return
      </CharString>
      <CharString index="36">
        -888 -99 callsubr
      </CharString>
      <CharString index="37">
        rmoveto
        -76 vlineto
        219 2 10 8 274 vvcurveto
        404 -86 -434 vlineto
        -168 -2 -7 -141 -3 vhcurveto
        endchar
      </CharString>
      <CharString index="38">
        -22 -7 -79 callsubr
        return
      </CharString>
      <CharString index="39">
        -164 0 -25 -142 return
      </CharString>
      <CharString index="40">
        843 rmoveto
        -24 -6 -5 -46 -12 vhcurveto
        -22 -6 -31 callsubr
        22 2 3 39 11 vhcurveto
        24 6 rlineto
        50 14 12 16 46 vvcurveto
        72 -44 7 -87 -34 -50 -3 -4 -32 vhcurveto
        -46 vlineto
        3 32 46 2 24 hhcurveto
        64 24 0 -37 hvcurveto
        return
      </CharString>
      <CharString index="41">
        rmoveto
        89 -96 rlineto
        56 7 hlineto
        -102 135 rlineto
        -85 hlineto
        -102 -135 rlineto
        -7 56 vlineto
        return
      </CharString>
      <CharString index="42">
        -8 329 -8 -97 callgsubr
        return
      </CharString>
      <CharString index="43">
        rmoveto
        -48 vlineto
        -5 35 50 -4 35 hhcurveto
        124 29 36 87 71 -18 40 -111 -31 -32 -2 -4 -23 hvcurveto
        101 187 52 -241 -204 vlineto
        3 36 40 3 24 hhcurveto
        89 19 -8 -57 -54 -17 -13 -84 -27 -47 3 3 -37 hvcurveto
        return
      </CharString>
      <CharString index="44">
        hlineto
        64 22 10 110 vhcurveto
        67 vlineto
        -157 -56 -9 -147 hvcurveto
        -76 -104 -74 104 vlineto
        return
      </CharString>
      <CharString index="45">
        rmoveto
        5 vlineto
        -101 136 rlineto
        -88 -5 hlineto
        129 -136 rlineto
        return
      </CharString>
      <CharString index="46">
        -138 256 -8 -96 callsubr
        return
      </CharString>
      <CharString index="47">
        rmoveto
        85 44 14 53 18 hvcurveto
        11 32 3 41 55 vvcurveto
        56 -1 39 -9 31 vhcurveto
        58 -17 -44 7 -86 hhcurveto
        -121 -24 -30 -97 -94 39 -14 92 73 23 16 11 11 hvcurveto
        3 hlineto
        -110 -12 -17 -100 -26 -44 3 4 -37 vhcurveto
        -48 vlineto
        -6 38 50 -4 31 hhcurveto
        8 202 rmoveto
        -76 -14 5 63 61 17 4 73 71 20 -6 -70 -44 -8 -13 -83 hvcurveto
        endchar
      </CharString>
      <CharString index="48">
        rmoveto
        121 24 29 97 95 -38 13 -93 -72 -23 -15 -11 -11 hvcurveto
        -4 hlineto
        109 12 17 100 27 43 -3 -3 38 vhcurveto
        48 vlineto
        6 -41 -48 4 -30 hhcurveto
        -87 -44 -15 -58 -19 hvcurveto
        -9 -30 -3 -40 -53 vvcurveto
        -53 2 -39 7 -24 vhcurveto
        -66 18 44 -8 86 hhcurveto
        -3 51 rmoveto
        -71 -20 5 71 43 7 13 84 75 15 -4 -63 -62 -17 -3 -73 hvcurveto
        endchar
      </CharString>
      <CharString index="49">
        72 493 888 -102 callsubr
        38 -888 rmoveto
        -105 callsubr
        return
      </CharString>
      <CharString index="50">
        47 480 888 -102 callsubr
        87 -888 rmoveto
        -103 callsubr
        return
      </CharString>
      <CharString index="51">
        50 601 171 -93 callgsubr
        return
      </CharString>
      <CharString index="52">
        rmoveto
        17 0 9 3 13 vhcurveto
        3 9 9 6 13 6 119 45 rcurveline
        48 18 20 23 64 vvcurveto
        93 -61 7 -73 -44 -55 -4 -6 -33 vhcurveto
        -49 vlineto
        5 40 48 2 27 hhcurveto
        71 19 -5 -48 -31 -8 -10 -37 -15 hvcurveto
        -34 -14 -37 -14 -33 -13 rrcurveto
        -63 -25 -1 -24 -84 vvcurveto
        -47 274 53 -215 vlineto
        endchar
      </CharString>
      <CharString index="53">
        -20 callsubr
        10 -696 rmoveto
        54 80 7 9 57 hvcurveto
        76 vlineto
        -7 -54 -69 -5 -40 hhcurveto
        -108 -37 6 93 80 12 12 76 25 hvcurveto
        31 11 rlineto
        53 18 21 17 75 vvcurveto
        79 -77 -60 vlineto
        -57 -4 0 -66 -23 vhcurveto
        -48 -16 rlineto
        -69 -24 -15 -52 -87 vvcurveto
        -132 57 -45 146 vhcurveto
        endchar
      </CharString>
      <CharString index="54">
        9 70 29 70 29 67 27 rrcurveto
        89 37 35 37 120 vvcurveto
        162 -101 15 -128 -73 -96 -7 -11 -57 vhcurveto
        -75 vlineto
        7 65 86 6 49 hhcurveto
        134 36 -13 -93 -64 -14 -20 -71 -29 hvcurveto
        -62 -25 -65 -27 -55 -23 rrcurveto
        -112 -47 -5 -41 -152 vvcurveto
        -82 469 81 -386 vlineto
        endchar
      </CharString>
      <CharString index="55">
        hhcurveto
        -212 -12 -53 -210 -210 12 -53 212 return
      </CharString>
      <CharString index="56">
        -22 -6 -79 callsubr
        return
      </CharString>
      <CharString index="57">
        46 rmoveto
        99 62 67 110 126 vvcurveto
        125 -67 111 -99 62 vhcurveto
        -32 -51 rlineto
        82 -51 56 -92 -104 vvcurveto
        -105 -55 -91 -83 -52 vhcurveto
        -31 51 rmoveto
        65 41 44 73 83 vvcurveto
        83 -44 73 -66 41 vhcurveto
        -32 -51 rlineto
        49 -31 33 -54 -61 vvcurveto
        -62 -33 -53 -48 -31 vhcurveto
        return
      </CharString>
      <CharString index="58">
        rmoveto
        -42 callsubr
        return
      </CharString>
      <CharString index="59">
        -13 callsubr
        -302 -68 -75 68 hlineto
        205 -231 rmoveto
        -119 231 110 75 -110 222 119 hlineto
        208 14 -3 -261 -261 -11 -3 -211 hvcurveto
        endchar
      </CharString>
      <CharString index="60">
        rmoveto
        32 51 rlineto
        -48 31 -33 53 62 vvcurveto
        61 33 54 49 31 vhcurveto
        -32 51 rlineto
        -66 -41 -44 -73 -83 vvcurveto
        -83 44 -73 65 -41 vhcurveto
        return
      </CharString>
      <CharString index="61">
        81 436 132 74 -132 91 -63 callgsubr
        return
      </CharString>
      <CharString index="62">
        rmoveto
        -40 vlineto
        97 15 26 111 -5 callsubr
        -99 -8 callsubr
        -51 -10 -11 -48 vhcurveto
        return
      </CharString>
      <CharString index="63">
        -38 432 510 rmoveto
        -263 vlineto
        -111 -7 -65 -131 -110 -16 15 137 vhcurveto
        287 -81 -699 81 204 vlineto
        -16 25 30 -7 38 hhcurveto
        104 44 32 48 21 hvcurveto
        6 hlineto
        4 -72 rlineto
        73 510 hlineto
        endchar
      </CharString>
      <CharString index="64">
        rmoveto
        84 0 -32 -58 hvcurveto
        53 hlineto
        84 -7 61 -130 -131 -8 -61 -84 vhcurveto
        54 hlineto
        58 2 32 83 vhcurveto
        return
      </CharString>
      <CharString index="65">
        81 436 122 74 -122 148 -81 -148 -103 -74 103 hlineto
        return
      </CharString>
      <CharString index="66">
        -6 hlineto
        -4 72 rlineto
        -72 return
      </CharString>
      <CharString index="67">
        -45 callgsubr
        163 hmoveto
        -40 vlineto
        96 16 26 111 hvcurveto
        81 -92 -99 38 -17 vlineto
        -51 -10 -11 -48 vhcurveto
        endchar
      </CharString>
      <CharString index="68">
        407 83 -321 605 -86 hlineto
        return
      </CharString>
      <CharString index="69">
        -164 -164 return
      </CharString>
      <CharString index="70">
        136 -24 63 -151 return
      </CharString>
      <CharString index="71">
        -87 callsubr
        120 return
      </CharString>
      <CharString index="72">
        57 vlineto
        -2 -7 -6 0 -4 hhcurveto
        -36 -11 17 23 35 37 48 26 20 hvcurveto
        -72 hlineto
        -36 -35 -26 -47 -40 vvcurveto
        -43 22 -35 74 14 12 1 1 13 vhcurveto
        endchar
      </CharString>
      <CharString index="73">
        rmoveto
        56 hlineto
        37 172 rlineto
        74 -79 -74 vlineto
        return
      </CharString>
      <CharString index="74">
        -205 13 -57 211 hvcurveto
        74 vmoveto
        -27 callsubr
        23 165 164 0 26 -52 callsubr
        -49 -141 -165 0 -23 -18 callgsubr
        endchar
      </CharString>
      <CharString index="75">
        34 544 hmoveto
        100 hlineto
        -265 355 262 333 rlineto
        -96 hlineto
        -235 -298 rlineto
        -124 298 -86 -688 86 310 124 hlineto
        return
      </CharString>
      <CharString index="76">
        59 84 56 51 -56 120 -43 hlineto
        -15 -120 rlineto
        -142 hlineto
        144 242 rlineto
        -66 hlineto
        -143 -248 rlineto
        -45 206 vlineto
        endchar
      </CharString>
      <CharString index="77">
        -743 rmoveto
        -46 callgsubr
        return
      </CharString>
      <CharString index="78">
        -46 callgsubr
        endchar
      </CharString>
      <CharString index="79">
        650 rmoveto
        86 93 -86 hlineto
        return
      </CharString>
      <CharString index="80">
        -104 -44 -32 -48 -21 return
      </CharString>
      <CharString index="81">
        rmoveto
        32 51 rlineto
        -14 9 -10 16 20 vvcurveto
        20 10 16 15 9 vhcurveto
        -32 51 rlineto
        -32 -20 -21 -35 -41 vvcurveto
        -42 21 -34 31 -20 vhcurveto
        return
      </CharString>
      <CharString index="82">
        -270 87 hmoveto
        -73 callsubr
        return
      </CharString>
      <CharString index="83">
        102 136 rlineto
        6 -56 vlineto
        -89 -96 -88 96 rlineto
        -56 -6 hlineto
        102 return
      </CharString>
      <CharString index="84">
        31 20 21 34 42 vvcurveto
        41 -21 35 -32 20 vhcurveto
        -32 -51 rlineto
        15 -9 10 -16 -20 vvcurveto
        -20 -10 -16 -14 -9 vhcurveto
        endchar
      </CharString>
      <CharString index="85">
        397 rmoveto
        125 7 35 114 113 -7 37 -125 -125 -7 -37 -113 -114 7 -35 125 hvcurveto
        return
      </CharString>
      <CharString index="86">
        vmoveto
        -233 -6 16 294 294 6 15 233 234 6 -15 -294 -294 -6 -16 -234 hvcurveto
        return
      </CharString>
      <CharString index="87">
        66 hlineto
        157 331 rlineto
        46 -277 -52 212 vlineto
        return
      </CharString>
      <CharString index="88">
        rmoveto
        -77 -83 77 hlineto
        188 83 rmoveto
        -76 -83 76 hlineto
        return
      </CharString>
      <CharString index="89">
        -142 hvcurveto
        return
      </CharString>
      <CharString index="90">
        6 8 42 return
      </CharString>
      <CharString index="91">
        697 -66 callgsubr
        return
      </CharString>
      <CharString index="92">
        64 470 rmoveto
        91 99 -37 17 hlineto
        51 10 11 48 vhcurveto
        40 vlineto
        -96 -16 -26 -111 hvcurveto
        return
      </CharString>
      <CharString index="93">
        rmoveto
        56 hlineto
        34 172 9 134 rlineto
        -78 hlineto
        return
      </CharString>
      <CharString index="94">
        400 71 -400 hlineto
        return
      </CharString>
      <CharString index="95">
        767 rmoveto
        40 vlineto
        -97 -15 -24 -100 hvcurveto
        -80 91 98 -37 17 vlineto
        40 10 9 48 vhcurveto
        return
      </CharString>
      <CharString index="96">
        5 hlineto
        -56 28 56 -16 82 hhcurveto
        147 40 57 207 206 -41 56 -148 return
      </CharString>
      <CharString index="97">
        -79 callsubr
        -9 return
      </CharString>
      <CharString index="98">
        45 100 vvcurveto
        122 -59 59 -196 -61 -85 -7 -11 -55 vhcurveto
        -75 vlineto
        7 52 return
      </CharString>
      <CharString index="99">
        -10 -119 -47 -82 5 7 -69 hvcurveto
        -74 vlineto
        -10 55 87 -8 62 hhcurveto
        endchar
      </CharString>
      <CharString index="100">
        -190 rmoveto
        81 hlineto
        40 193 rlineto
        5 -56 vlineto
        -65 -193 rlineto
        endchar
      </CharString>
      <CharString index="101">
        rmoveto
        -122 -17 return
      </CharString>
      <CharString index="102">
        -8 rmoveto
        221 42 75 117 112 -48 39 -77 14 hvcurveto
        4 vlineto
        return
      </CharString>
      <CharString index="103">
        vlineto
        5 37 41 3 27 hhcurveto
        63 26 -7 -46 -45 -27 -9 -30 hvcurveto
        return
      </CharString>
      <CharString index="104">
        168 71 -168 165 -66 -165 -166 -71 166 hlineto
        return
      </CharString>
      <CharString index="105">
        39 -133 -133 -9 -39 -154 -155 9 -37 133 hvcurveto
        return
      </CharString>
      <CharString index="106">
        449 rlineto
        -95 hlineto
        -269 -458 rlineto
        -71 364 vlineto
        endchar
      </CharString>
      <CharString index="107">
        95 102 -95 hlineto
        return
      </CharString>
      <CharString index="108">
        61 377 -45 hlineto
        -98 -51 rlineto
        -54 vlineto
        82 38 rlineto
        endchar
      </CharString>
      <CharString index="109">
        76 442 rmoveto
        56 hlineto
        12 172 rlineto
        74 -79 -74 vlineto
        return
      </CharString>
      <CharString index="110">
        rmoveto
        58 hlineto
        -114 205 114 206 rlineto
        -58 hlineto
        return
      </CharString>
      <CharString index="111">
        -275 59 246 rmoveto
        244 79 -244 hlineto
        endchar
      </CharString>
      <CharString index="112">
        205 -145 143 -207 return
      </CharString>
      <CharString index="113">
        hvcurveto
        205 330 81 -409 -370 vlineto
        8 return
      </CharString>
      <CharString index="114">
        vlineto
        -62 -185 rlineto
        -5 81 vlineto
        39 190 rlineto
        return
      </CharString>
      <CharString index="115">
        -492 33 282 rmoveto
        56 hlineto
        23 228 rlineto
        return
      </CharString>
      <CharString index="116">
        9 -31 vhcurveto
        12 -40 -40 12 -40 hhcurveto
        -66 -8 return
      </CharString>
      <CharString index="117">
        rmoveto
        -244 -80 244 hlineto
        return
      </CharString>
      <CharString index="118">
        -17 callgsubr
        hvcurveto
        71 vlineto
        -6 return
      </CharString>
</ttFont>
